<svg xmlns="http://www.w3.org/2000/svg" xmlns:xlink="http://www.w3.org/1999/xlink" width="500" zoomAndPan="magnify" viewBox="0 0 375 374.999991" height="500" preserveAspectRatio="xMidYMid meet" version="1.0"><defs><clipPath id="a08e0bb28c"><path d="M 37.453125 39 L 304 39 L 304 250 L 37.453125 250 Z M 37.453125 39 " clip-rule="nonzero"/></clipPath><clipPath id="15f58bfd4f"><path d="M 44.640625 76.339844 L 337.375 76.339844 L 337.375 352.117188 L 44.640625 352.117188 Z M 44.640625 76.339844 " clip-rule="nonzero"/></clipPath></defs><g clip-path="url(#a08e0bb28c)"><path fill="#003594" d="M 287.136719 80.492188 C 291.003906 81.628906 292.667969 87.613281 290.839844 93.855469 C 289.007812 100.097656 284.382812 104.246094 280.507812 103.109375 C 276.640625 101.980469 274.980469 95.988281 276.8125 89.746094 C 278.636719 83.503906 283.261719 79.359375 287.136719 80.492188 Z M 287.148438 124.195312 C 287.148438 124.195312 303.234375 113.121094 303.308594 85.140625 C 303.371094 62.132812 282.605469 61.710938 282.605469 61.710938 C 282.605469 61.710938 267.242188 37.976562 244.6875 39.4375 C 198.386719 42.441406 197.753906 105.378906 197.753906 105.378906 L 93.339844 176.984375 L 88.265625 182.652344 L 82.898438 181.160156 L 76.035156 184.441406 L 74.542969 193.988281 L 67.382812 192.5 L 47.695312 206.519531 L 37.550781 242.023438 L 47.992188 249.484375 L 228.6875 151.96875 C 228.6875 151.96875 238.167969 167.660156 257.421875 164.75 C 283.515625 160.800781 287.148438 124.195312 287.148438 124.195312 " fill-opacity="1" fill-rule="evenodd"/></g><g clip-path="url(#15f58bfd4f)"><path fill="#003594" d="M 328.042969 270.019531 C 328.042969 270.019531 320.613281 228.242188 290.386719 204.996094 C 282.199219 198.691406 271.800781 193.335938 271.800781 193.335938 L 236.839844 182.625 L 229.59375 171.597656 L 229.902344 159.941406 L 236.839844 146.394531 C 242.765625 134.878906 243.019531 127.148438 238.730469 122.453125 C 239.152344 114.722656 237.328125 109.324219 234.949219 104.492188 C 234.949219 104.492188 232.710938 78.324219 203.445312 76.457031 C 164.871094 73.992188 163.96875 111.433594 163.96875 111.433594 L 163.394531 121.320312 C 158.570312 124.664062 160.308594 138.714844 168.164062 146.394531 C 169.480469 163.238281 168.003906 167.175781 166.902344 172.855469 L 156.824219 190.5 L 149.578125 193.023438 L 152.097656 180.417969 L 146.429688 156.164062 L 133.832031 146.394531 C 129.65625 145.546875 123.960938 145.902344 120.265625 153.25 C 114.953125 153.507812 111.304688 155.84375 110.871094 158.488281 C 108.378906 157.363281 101.671875 161.640625 100.878906 165.019531 C 91.484375 167.765625 90.128906 173.878906 90.359375 181.363281 L 79.648438 230.828125 C 79.648438 230.828125 57.492188 252.679688 51.011719 265.402344 C 50.894531 265.640625 50.773438 265.878906 50.664062 266.109375 C 44.679688 278.710938 42.941406 301.96875 47.664062 310.785156 C 52.390625 319.605469 63.058594 323.648438 72.195312 322.390625 C 81.328125 321.132812 87.15625 320.195312 99.128906 311.691406 C 111.101562 303.183594 115.871094 296.351562 115.871094 296.351562 L 119.652344 352.117188 L 274.011719 352.117188 L 314.644531 350.855469 L 328.46875 311.273438 C 328.46875 311.273438 338.171875 309.089844 337.324219 287.535156 C 336.878906 276.117188 328.042969 270.019531 328.042969 270.019531 " fill-opacity="1" fill-rule="evenodd"/></g><path fill="#ffffff" d="M 230.851562 113.632812 C 220.078125 113.839844 213.074219 106.117188 203.621094 105.277344 C 195.023438 104.515625 190.054688 111.039062 174.660156 113.511719 C 173.527344 123.148438 172.273438 126.789062 171 129.386719 C 158.589844 109.519531 161.859375 149.535156 173.441406 143.207031 C 173.625 165.453125 193.335938 158.726562 204.390625 158.367188 C 213.476562 158.070312 223.066406 164.785156 230.851562 151.75 C 234.132812 144.433594 234.539062 140.214844 234.570312 135.570312 C 234.601562 132.101562 234.746094 127.804688 234.003906 124.972656 L 230.851562 113.632812 " fill-opacity="1" fill-rule="evenodd"/><path fill="#ffffff" d="M 272 198.554688 C 298.910156 207.894531 312.589844 234.957031 319.464844 271.144531 C 308.609375 267.140625 297.753906 267.695312 286.898438 275.824219 L 287.960938 238.148438 L 272.851562 283.914062 C 266.316406 260.164062 263.480469 233.632812 272 198.554688 " fill-opacity="1" fill-rule="evenodd"/><path fill="#003594" d="M 213.644531 145.179688 C 208.300781 146.988281 204.417969 146.097656 200.273438 145.691406 L 198.984375 148.777344 C 203.796875 147.988281 209.003906 147.503906 216.0625 148.417969 L 213.644531 145.179688 " fill-opacity="1" fill-rule="evenodd"/><path fill="#003594" d="M 209.171875 139.414062 L 207.371094 140.238281 L 204.128906 139.054688 L 195.132812 141.421875 L 193.738281 143.375 L 196.363281 141.882812 L 206.960938 142.964844 C 210.3125 142.386719 213.6875 141.835938 217.558594 141.988281 L 218.839844 142.554688 L 218.070312 140.90625 L 209.171875 139.414062 " fill-opacity="1" fill-rule="evenodd"/><path fill="#003594" d="M 210.613281 127.53125 C 206.726562 128.78125 204.917969 128.054688 202.792969 127.632812 C 200.859375 132.726562 198.476562 134.058594 196.003906 134.683594 C 198.632812 135.480469 201.503906 135.898438 205.265625 134.941406 L 206.960938 136.378906 L 209.171875 134.992188 C 211.238281 135.484375 213.519531 135.628906 216.476562 134.734375 C 213.757812 132.875 212.109375 130.257812 210.613281 127.53125 " fill-opacity="1" fill-rule="evenodd"/><path fill="#003594" d="M 208.609375 117.914062 L 211.539062 114.414062 C 211.539062 114.414062 218.070312 114.515625 220.128906 114.671875 C 222.1875 114.828125 224.242188 115.496094 225.835938 116.574219 C 227.433594 117.65625 227.996094 120.226562 227.996094 120.226562 C 227.996094 120.226562 225.835938 118.015625 223.214844 117.808594 C 221.75 117.695312 220.75 117.65625 220.75 117.65625 C 220.75 117.65625 223.160156 119.144531 223.523438 119.558594 C 223.882812 119.96875 224.347656 121.410156 224.347656 121.410156 L 219.976562 119.300781 C 219.8125 122.277344 215.648438 122.65625 214.214844 119.402344 L 211.796875 121.410156 L 209.738281 121.925781 L 208.609375 117.914062 " fill-opacity="1" fill-rule="evenodd"/><path fill="#ffffff" d="M 205.734375 199.375 C 205.734375 199.375 209.910156 193.535156 210.011719 187.175781 C 210.183594 176.808594 208.910156 174.867188 201.5625 170.171875 C 194.707031 165.792969 185.21875 164.898438 182.53125 168.191406 C 179.84375 171.472656 177.546875 180.882812 177.246094 184.917969 C 176.949219 188.949219 186.421875 198.433594 186.421875 198.433594 L 205.734375 199.375 " fill-opacity="1" fill-rule="evenodd"/><path fill="#ffffff" d="M 204.484375 202.695312 L 188.503906 202.097656 C 192.777344 208.191406 195.28125 213.042969 196.023438 216.65625 L 204.484375 202.695312 " fill-opacity="1" fill-rule="evenodd"/><path fill="#ffffff" d="M 160.585938 232.8125 L 238.308594 231.863281 L 244.21875 189.398438 L 237.171875 186.351562 L 236.410156 213.695312 C 236.410156 213.695312 224.257812 203.695312 214.003906 206.609375 C 206.585938 208.714844 199.558594 219.273438 199.558594 219.273438 C 199.558594 219.273438 205.378906 205.53125 213.148438 201.796875 C 220.914062 198.0625 233.121094 207.9375 233.121094 207.9375 C 233.121094 207.9375 234.0625 188.5 232.863281 184.023438 C 231.671875 179.539062 228.535156 175.0625 228.535156 175.0625 C 228.535156 175.0625 218.375 188.203125 213.148438 194.480469 C 207.921875 200.75 203.292969 208.964844 200.601562 212.851562 C 197.914062 216.734375 195.523438 221.0625 195.523438 221.0625 C 195.523438 221.0625 189.253906 206.429688 186.863281 202.84375 C 184.472656 199.261719 176.109375 193.730469 172.671875 186.558594 C 169.238281 179.390625 169.835938 172.519531 169.835938 172.519531 C 169.835938 172.519531 165.800781 180.285156 164.011719 187.457031 C 162.21875 194.625 161.769531 211.808594 161.769531 211.808594 C 161.769531 211.808594 170.433594 205.082031 177.300781 205.679688 C 184.175781 206.277344 191.195312 221.363281 191.195312 221.363281 C 191.195312 221.363281 182.828125 213.296875 178.5 211.058594 C 174.167969 208.816406 171.628906 210.3125 167.746094 213 C 163.859375 215.691406 158.484375 219.574219 158.484375 219.574219 C 158.484375 219.574219 158.484375 207.921875 160.125 200.902344 C 161.769531 193.878906 160.875 189.695312 160.875 189.695312 L 154.453125 195.375 C 155.734375 213.4375 157.78125 225.917969 160.585938 232.8125 " fill-opacity="1" fill-rule="evenodd"/><path fill="#ffffff" d="M 249.308594 244.214844 C 246.578125 240.117188 252.5 191.410156 252.5 191.410156 L 248.175781 191.183594 C 248.175781 191.183594 242.707031 225.097656 242.484375 233.289062 C 242.257812 241.484375 243.394531 243.757812 246.808594 247.628906 C 250.21875 251.5 258.867188 249.222656 258.867188 249.222656 C 258.867188 249.222656 252.042969 248.3125 249.308594 244.214844 " fill-opacity="1" fill-rule="evenodd"/><path fill="#ffffff" d="M 254.546875 231.015625 C 256.304688 231.015625 257.734375 233.207031 257.734375 235.90625 C 257.734375 238.609375 256.304688 240.800781 254.546875 240.800781 C 252.785156 240.800781 251.359375 238.609375 251.359375 235.90625 C 251.359375 233.207031 252.785156 231.015625 254.546875 231.015625 " fill-opacity="1" fill-rule="evenodd"/><path fill="#ffffff" d="M 168.757812 108.097656 C 168.757812 108.097656 182.445312 95.1875 200.035156 95.96875 C 217.621094 96.75 222.386719 100.039062 225.765625 97.617188 C 229.140625 95.1875 228.96875 92.761719 223.863281 87.566406 C 218.746094 82.367188 205.488281 78.8125 194.75 79.246094 C 184.003906 79.683594 176.902344 87.304688 172.832031 92.503906 C 168.757812 97.703125 168.757812 108.097656 168.757812 108.097656 " fill-opacity="1" fill-rule="evenodd"/><path fill="#ffffff" d="M 229.921875 105.675781 C 229.921875 105.675781 213.546875 98.828125 206.535156 97.960938 C 199.511719 97.097656 188.339844 98.566406 183.574219 100.996094 C 178.808594 103.421875 173.960938 105.675781 173.523438 108.273438 C 173.089844 110.871094 185.566406 108.792969 192.238281 106.453125 C 198.910156 104.113281 204.191406 103.246094 207.222656 103.941406 C 210.257812 104.632812 219.148438 108.796875 223.515625 109.484375 C 235.035156 111.304688 229.921875 105.675781 229.921875 105.675781 " fill-opacity="1" fill-rule="evenodd"/><path fill="#ffffff" d="M 131.257812 149.226562 L 143.167969 156.269531 L 144.746094 172.101562 C 144.132812 175.753906 140.175781 174.492188 137.867188 171.230469 L 136.914062 161.855469 L 125.074219 154.097656 C 125.796875 150.988281 128.25 149.800781 131.257812 149.226562 " fill-opacity="1" fill-rule="evenodd"/><path fill="#ffffff" d="M 111.519531 161.988281 L 121.519531 168.703125 L 122.78125 185.777344 C 121.921875 190.894531 116.46875 189.0625 115.824219 183.984375 L 114.019531 173.960938 L 104.945312 166.332031 C 106.609375 162.164062 108.804688 160.71875 111.519531 161.988281 " fill-opacity="1" fill-rule="evenodd"/><path fill="#ffffff" d="M 102.707031 167.648438 L 112.441406 176.199219 L 111.519531 189.230469 C 108.324219 193.957031 105.949219 191.421875 104.28125 188.140625 L 105.035156 180.359375 L 99.152344 175.015625 L 92.835938 181.988281 C 95.101562 170.316406 96.6875 170.808594 102.707031 167.648438 " fill-opacity="1" fill-rule="evenodd"/><path fill="#ffffff" d="M 140.621094 186.730469 L 133.917969 196.390625 L 84.4375 229.710938 C 74.085938 241.847656 63.796875 252.414062 53.09375 273.277344 C 48.851562 289.871094 48.015625 304.820312 60.1875 313.5 C 64.34375 315.261719 76.363281 315.332031 87.394531 309.355469 C 111.644531 291.722656 110.011719 246.863281 113.414062 219.457031 C 152.523438 202.113281 136.4375 208.089844 142.589844 204.671875 C 141.269531 199.488281 144.59375 191.753906 151.265625 182.195312 C 148.019531 179.109375 144.457031 180.8125 140.621094 186.730469 " fill-opacity="1" fill-rule="evenodd"/><path fill="#ffffff" d="M 147.925781 201.019531 L 153.414062 233.582031 C 151.28125 245.875 146.824219 245.539062 142.433594 245.558594 C 148.839844 248.519531 155.316406 251.796875 156.90625 234.578125 L 149.917969 190.664062 L 147.925781 201.019531 " fill-opacity="1" fill-rule="evenodd"/><path fill="#ffffff" d="M 147.300781 230.214844 C 149.019531 230.214844 150.417969 231.863281 150.417969 233.894531 C 150.417969 235.925781 149.019531 237.574219 147.300781 237.574219 C 145.578125 237.574219 144.179688 235.925781 144.179688 233.894531 C 144.179688 231.863281 145.578125 230.214844 147.300781 230.214844 " fill-opacity="1" fill-rule="evenodd"/><path fill="#003594" d="M 201.539062 117.921875 L 199.023438 114.703125 C 193.246094 115.1875 190.269531 114.511719 187.378906 113.804688 L 181.753906 117.921875 L 188.582031 116.011719 L 190.890625 116.613281 C 187.320312 117.425781 185.722656 119.152344 184.664062 121.136719 C 186.835938 119.640625 189.035156 118.617188 191.292969 118.722656 C 192.632812 123.09375 196.886719 121.671875 197.621094 118.421875 L 200.128906 121.335938 C 201.253906 121.070312 201.722656 119.933594 201.539062 117.921875 " fill-opacity="1" fill-rule="evenodd"/><path fill="#ffffff" d="M 327.761719 279.660156 C 305.324219 272.863281 296.1875 278.652344 286.042969 283.488281 L 281.578125 302.21875 C 295.621094 298.046875 309.53125 293.445312 328.1875 304.136719 C 334.921875 294.117188 333.425781 286.328125 327.761719 279.660156 " fill-opacity="1" fill-rule="evenodd"/><path fill="#ffffff" d="M 160.582031 138.421875 L 140.628906 150.925781 L 145.917969 155.164062 L 147.003906 172.476562 C 146.136719 176.5 142.546875 178.332031 137.46875 177.394531 L 136.902344 183.007812 C 133.480469 186.425781 128.523438 189.140625 125.503906 185.871094 C 121.457031 195.914062 118.054688 191.144531 114.203125 190.730469 C 107.585938 200.90625 103.753906 198.0625 100.128906 194.289062 L 100.273438 183.914062 L 97.757812 183.027344 L 91.832031 186.433594 L 84.125 185.25 L 79.976562 197.695312 L 68.269531 198.585938 L 55.527344 208.8125 L 46.339844 242.601562 L 132.871094 192.507812 C 139.734375 181.125 145.894531 175.535156 154.039062 179.238281 C 157.464844 180.261719 161.535156 177.3125 168.269531 171.136719 C 171.546875 168.132812 171.175781 158.324219 169.921875 148.5 C 163.964844 149.613281 161.8125 144.746094 160.582031 138.421875 " fill-opacity="1" fill-rule="evenodd"/><path fill="#ffffff" d="M 288.378906 77.792969 C 293.367188 79.417969 295.367188 87.023438 292.84375 94.761719 C 290.320312 102.503906 284.226562 107.46875 279.234375 105.839844 C 274.246094 104.214844 272.25 96.609375 274.773438 88.867188 C 277.289062 81.128906 283.390625 76.164062 288.378906 77.792969 Z M 215.019531 75.15625 C 218.96875 59.082031 249.351562 22.878906 277.910156 67.292969 C 298.011719 64.894531 312.039062 92.085938 284.652344 120.832031 C 282.164062 145.839844 259.496094 175.601562 237.972656 148.1875 C 237.757812 147.914062 237.398438 147.800781 237.109375 147.601562 C 240.878906 136.515625 246.445312 123.960938 238.226562 122.707031 L 239.726562 107.167969 C 237.925781 85.742188 227.09375 79.414062 215.019531 75.15625 " fill-opacity="1" fill-rule="evenodd"/><path fill="#ffffff" d="M 133.859375 234.828125 L 129.105469 245.917969 L 125.738281 237.003906 C 124.304688 251.878906 121.253906 262.886719 117.023438 271.074219 L 113.855469 256.414062 L 120.390625 225.515625 L 130.6875 216.601562 L 133.859375 234.828125 " fill-opacity="1" fill-rule="evenodd"/><path fill="#003594" d="M 174.023438 158.746094 L 64.007812 224.4375 L 77.507812 211.542969 L 113.375 190.585938 L 118.613281 189.777344 L 122.300781 188.582031 L 126.671875 184.136719 C 129.6875 183.304688 132.875 181.898438 136.546875 178.894531 L 173.21875 154.3125 L 174.023438 158.746094 " fill-opacity="1" fill-rule="evenodd"/><path fill="#ffffff" d="M 123.363281 156.726562 L 133.757812 164.097656 L 134.28125 181.3125 C 132.417969 183.964844 128.894531 185.628906 126.390625 180.378906 L 126.113281 168.308594 L 115.207031 161.464844 C 115.980469 159.238281 116.496094 156.929688 123.363281 156.726562 " fill-opacity="1" fill-rule="evenodd"/><path fill="#ffffff" d="M 285.257812 307.617188 C 299.78125 303.25 312.421875 302.964844 322.582031 308.03125 C 320.296875 325.664062 315.664062 337.042969 309.726562 344.941406 L 273.234375 347.425781 L 285.257812 307.617188 " fill-opacity="1" fill-rule="evenodd"/></svg>