<svg xmlns="http://www.w3.org/2000/svg" xmlns:xlink="http://www.w3.org/1999/xlink" width="300" zoomAndPan="magnify" viewBox="0 0 224.87999 225" height="300" preserveAspectRatio="xMidYMid meet" version="1.0"><defs><clipPath id="b3fad1b226"><path d="M 10 45 L 215 45 L 215 211.675781 L 10 211.675781 Z M 10 45 " clip-rule="nonzero"/></clipPath><clipPath id="69e4341002"><path d="M 129 13.03125 L 215 13.03125 L 215 127 L 129 127 Z M 129 13.03125 " clip-rule="nonzero"/></clipPath><clipPath id="76f1bc6ecc"><path d="M 10 124 L 215 124 L 215 211.675781 L 10 211.675781 Z M 10 124 " clip-rule="nonzero"/></clipPath><clipPath id="2b069de1e9"><path d="M 10 133 L 215 133 L 215 211.675781 L 10 211.675781 Z M 10 133 " clip-rule="nonzero"/></clipPath><clipPath id="737bf35866"><path d="M 130 13.03125 L 215 13.03125 L 215 70 L 130 70 Z M 130 13.03125 " clip-rule="nonzero"/></clipPath></defs><g clip-path="url(#b3fad1b226)"><path fill="#d4dae8" d="M 214.601562 166.480469 C 214.601562 167.867188 213.675781 169.222656 211.855469 170.257812 L 143.90625 209.457031 C 140.3125 211.53125 134.5 211.53125 130.90625 209.457031 L 12.957031 141.011719 C 11.1875 139.976562 10.292969 138.621094 10.292969 137.265625 L 10.257812 133.519531 C 10.257812 133.582031 10.277344 133.628906 10.277344 133.695312 L 10.257812 124.636719 C 10.242188 123.265625 11.152344 121.894531 12.972656 120.855469 L 55.789062 96.171875 L 57.609375 85.007812 L 58.949219 94.355469 L 80.9375 81.660156 C 81.785156 81.179688 82.742188 80.832031 83.75 80.558594 L 83.828125 53.003906 L 96.222656 45.8125 L 108.679688 52.988281 L 108.613281 73.144531 L 114.507812 69.730469 L 126.960938 76.90625 L 126.898438 97.0625 L 132.792969 93.652344 L 145.261719 100.84375 L 145.214844 111.414062 L 211.886719 150.101562 C 213.675781 151.15625 214.570312 152.496094 214.570312 153.851562 Z M 214.601562 166.480469 " fill-opacity="1" fill-rule="nonzero"/></g><g clip-path="url(#69e4341002)"><path fill="#d4dae8" d="M 211.199219 57.058594 L 136.175781 13.800781 C 135.1875 13.25 134.320312 13.191406 133.6875 13.566406 L 130.941406 15.160156 C 130.289062 15.515625 129.882812 16.292969 129.878906 17.410156 L 129.863281 22.230469 L 129.949219 22.277344 L 129.796875 76.367188 C 129.789062 78.582031 131.359375 81.285156 133.289062 82.398438 L 208.316406 125.652344 C 209.363281 126.253906 210.296875 126.25 210.941406 125.773438 L 213.511719 124.28125 C 214.121094 123.90625 214.515625 123.140625 214.515625 122.035156 L 214.675781 67.910156 L 214.695312 63.09375 C 214.695312 60.886719 213.136719 58.183594 211.199219 57.058594 Z M 153.589844 27.066406 C 153.589844 27.066406 153.585938 27.0625 153.585938 27.0625 L 165.941406 34.1875 Z M 152.574219 26.480469 L 147.476562 23.542969 C 147.476562 23.539062 147.472656 23.539062 147.472656 23.539062 L 152.578125 26.480469 Z M 146.464844 22.960938 L 141.375 20.023438 C 141.371094 20.023438 141.367188 20.019531 141.367188 20.019531 L 146.46875 22.960938 C 146.46875 22.960938 146.46875 22.960938 146.464844 22.960938 Z M 211.894531 68.765625 L 211.90625 64.703125 C 211.90625 63.890625 211.695312 63.007812 211.328125 62.160156 C 211.695312 63.003906 211.910156 63.882812 211.910156 64.695312 Z M 140.363281 19.441406 C 140.363281 19.441406 140.363281 19.441406 140.359375 19.4375 L 133.382812 15.417969 C 133.308594 15.371094 133.234375 15.351562 133.160156 15.3125 C 133.238281 15.351562 133.3125 15.375 133.390625 15.417969 Z M 140.363281 19.441406 " fill-opacity="1" fill-rule="nonzero"/></g><g clip-path="url(#76f1bc6ecc)"><path fill="#e4e8f4" d="M 10.253906 124.640625 L 10.289062 137.265625 C 10.289062 138.621094 11.179688 139.972656 12.960938 141.015625 L 130.90625 209.449219 C 134.503906 211.535156 140.308594 211.535156 143.910156 209.449219 L 211.859375 170.269531 C 213.679688 169.222656 214.605469 167.871094 214.605469 166.480469 L 214.566406 153.855469 C 214.566406 155.207031 213.679688 156.597656 211.859375 157.640625 L 143.871094 196.824219 C 140.269531 198.910156 134.464844 198.910156 130.867188 196.824219 L 12.921875 128.390625 C 11.140625 127.347656 10.253906 125.992188 10.253906 124.640625 Z M 10.253906 124.640625 " fill-opacity="1" fill-rule="nonzero"/></g><g clip-path="url(#2b069de1e9)"><path fill="#474b59" d="M 10.253906 133.519531 L 10.289062 137.265625 C 10.289062 138.621094 11.179688 139.972656 12.960938 141.015625 L 130.90625 209.449219 C 134.503906 211.535156 140.308594 211.535156 143.910156 209.449219 L 211.859375 170.265625 C 213.679688 169.222656 214.605469 167.871094 214.605469 166.480469 L 214.566406 162.730469 C 214.566406 164.085938 213.679688 165.476562 211.859375 166.519531 L 143.871094 205.703125 C 140.269531 207.789062 134.464844 207.789062 130.867188 205.703125 L 12.921875 137.265625 C 11.140625 136.222656 10.253906 134.871094 10.253906 133.519531 Z M 10.253906 133.519531 " fill-opacity="1" fill-rule="nonzero"/></g><path fill="#474b59" d="M 12.980469 120.851562 C 9.371094 122.929688 9.355469 126.289062 12.9375 128.371094 L 130.878906 196.8125 C 134.460938 198.894531 140.273438 198.894531 143.882812 196.8125 L 211.847656 157.628906 C 215.457031 155.550781 215.472656 152.1875 211.890625 150.109375 L 93.949219 81.664062 C 90.367188 79.585938 84.554688 79.585938 80.945312 81.664062 Z M 12.980469 120.851562 " fill-opacity="1" fill-rule="nonzero"/><path fill="#ffffff" d="M 24.953125 129.851562 L 129.277344 190.367188 C 129.820312 190.714844 130.75 190.714844 131.367188 190.367188 L 199.320312 151.183594 C 199.859375 150.875 199.859375 150.332031 199.320312 149.984375 L 94.996094 89.472656 C 94.453125 89.164062 93.523438 89.164062 92.941406 89.472656 L 24.992188 128.65625 C 24.414062 129.003906 24.414062 129.542969 24.953125 129.851562 Z M 24.953125 129.851562 " fill-opacity="1" fill-rule="nonzero"/><path fill="#363a44" d="M 168.179688 171.589844 C 166.253906 172.699219 166.242188 174.496094 168.132812 175.589844 C 170.046875 176.703125 173.152344 176.703125 175.078125 175.589844 C 176.980469 174.496094 176.992188 172.699219 175.074219 171.589844 C 173.183594 170.492188 170.082031 170.492188 168.179688 171.589844 Z M 168.179688 171.589844 " fill-opacity="1" fill-rule="nonzero"/><path fill="#363a44" d="M 42.421875 109.214844 L 45.148438 110.792969 L 63.453125 100.238281 L 60.730469 98.660156 Z M 42.421875 109.214844 " fill-opacity="1" fill-rule="nonzero"/><path fill="#474b59" d="M 42.570312 148.964844 C 41.835938 148.539062 41.234375 148.914062 41.230469 149.757812 C 41.230469 150.636719 41.828125 151.667969 42.5625 152.09375 L 55.675781 159.652344 C 56.410156 160.078125 57.039062 159.75 57.042969 158.875 C 57.042969 158.03125 56.417969 156.949219 55.683594 156.523438 Z M 42.570312 148.964844 " fill-opacity="1" fill-rule="nonzero"/><path fill="#5b5e71" d="M 24.136719 138.789062 C 24.390625 138.664062 24.734375 138.664062 25.117188 138.875 L 38.183594 146.421875 C 38.949219 146.890625 39.546875 147.957031 39.546875 148.765625 C 39.546875 149.234375 39.378906 149.535156 39.164062 149.664062 L 40.0625 149.152344 C 40.273438 148.980469 40.445312 148.683594 40.445312 148.253906 C 40.445312 147.402344 39.847656 146.335938 39.078125 145.910156 L 26.015625 138.363281 C 25.628906 138.152344 25.289062 138.152344 25.03125 138.277344 Z M 24.136719 138.789062 " fill-opacity="1" fill-rule="nonzero"/><path fill="#5b5e71" d="M 42.535156 148.339844 L 41.640625 148.894531 C 41.898438 148.722656 42.195312 148.765625 42.578125 148.980469 L 55.6875 156.527344 C 56.414062 156.953125 57.054688 158.019531 57.054688 158.871094 C 57.054688 159.296875 56.882812 159.597656 56.625 159.722656 L 57.566406 159.210938 C 57.777344 159.085938 57.949219 158.785156 57.949219 158.359375 C 57.949219 157.507812 57.308594 156.441406 56.582031 156.015625 L 43.476562 148.425781 C 43.09375 148.210938 42.792969 148.210938 42.535156 148.339844 Z M 42.535156 148.339844 " fill-opacity="1" fill-rule="nonzero"/><path fill="#474b59" d="M 25.097656 138.890625 C 24.335938 138.453125 23.734375 138.824219 23.730469 139.667969 C 23.730469 140.546875 24.328125 141.578125 25.089844 142.019531 L 38.175781 149.5625 C 38.9375 150.003906 39.539062 149.660156 39.542969 148.785156 C 39.542969 147.941406 38.945312 146.875 38.183594 146.433594 Z M 25.097656 138.890625 " fill-opacity="1" fill-rule="nonzero"/><path fill="#cad0dd" d="M 108.679688 52.992188 L 108.511719 111.085938 L 96.125 118.277344 L 96.289062 60.179688 Z M 108.679688 52.992188 " fill-opacity="1" fill-rule="nonzero"/><path fill="#d4dae8" d="M 96.289062 60.179688 L 96.125 118.277344 L 83.671875 111.09375 L 83.835938 53 Z M 96.289062 60.179688 " fill-opacity="1" fill-rule="nonzero"/><path fill="#e4e8f4" d="M 108.679688 52.992188 L 96.289062 60.179688 L 83.835938 53 L 96.222656 45.8125 Z M 108.679688 52.992188 " fill-opacity="1" fill-rule="nonzero"/><path fill="#4562ef" d="M 126.96875 76.914062 L 126.804688 121.632812 L 114.417969 128.820312 L 114.582031 84.101562 Z M 126.96875 76.914062 " fill-opacity="1" fill-rule="nonzero"/><path fill="#576cfb" d="M 114.582031 84.101562 L 114.417969 128.820312 L 101.949219 121.632812 L 102.113281 76.914062 Z M 114.582031 84.101562 " fill-opacity="1" fill-rule="nonzero"/><path fill="#748bfd" d="M 126.96875 76.914062 L 114.582031 84.101562 L 102.113281 76.914062 L 114.5 69.726562 Z M 126.96875 76.914062 " fill-opacity="1" fill-rule="nonzero"/><path fill="#6eba6e" d="M 145.257812 100.835938 L 145.09375 145.554688 L 132.707031 139.367188 L 132.871094 108.027344 Z M 145.257812 100.835938 " fill-opacity="1" fill-rule="nonzero"/><path fill="#75ca75" d="M 132.871094 108.023438 L 132.707031 139.367188 L 120.238281 132.175781 L 120.402344 100.835938 Z M 132.871094 108.023438 " fill-opacity="1" fill-rule="nonzero"/><path fill="#9ad898" d="M 145.257812 100.835938 L 132.871094 108.027344 L 120.402344 100.835938 L 132.789062 93.648438 Z M 145.257812 100.835938 " fill-opacity="1" fill-rule="nonzero"/><path fill="#efac41" d="M 163.535156 124.753906 L 163.371094 142.714844 L 150.984375 149.902344 L 151.148438 131.941406 Z M 163.535156 124.753906 " fill-opacity="1" fill-rule="nonzero"/><path fill="#f9bb4a" d="M 151.148438 131.941406 L 150.984375 149.902344 L 138.515625 142.714844 L 138.679688 124.753906 Z M 151.148438 131.941406 " fill-opacity="1" fill-rule="nonzero"/><path fill="#fed57a" d="M 163.535156 124.753906 L 151.148438 131.941406 L 138.679688 124.753906 L 151.066406 117.5625 Z M 163.535156 124.753906 " fill-opacity="1" fill-rule="nonzero"/><path fill="#37617b" d="M 181.828125 142.144531 L 181.660156 153.261719 L 169.273438 160.449219 L 169.441406 149.335938 Z M 181.828125 142.144531 " fill-opacity="1" fill-rule="nonzero"/><path fill="#416e84" d="M 169.441406 149.335938 L 169.273438 160.449219 L 156.808594 153.261719 L 156.972656 142.144531 Z M 169.441406 149.335938 " fill-opacity="1" fill-rule="nonzero"/><path fill="#4c7891" d="M 181.828125 142.144531 L 169.441406 149.335938 L 156.972656 142.144531 L 169.359375 134.957031 Z M 181.828125 142.144531 " fill-opacity="1" fill-rule="nonzero"/><path fill="#f34858" d="M 145.882812 142.929688 C 146.246094 142.960938 146.675781 143.132812 147.117188 143.386719 C 148.496094 144.175781 150.046875 145.820312 150.902344 147.339844 C 152.042969 149.347656 152.644531 151.527344 153.246094 153.644531 C 154.621094 158.640625 155.460938 167.382812 155.066406 171.636719 L 157.832031 170.03125 C 158.210938 165.777344 157.375 157.035156 156.011719 152.039062 C 155.410156 149.921875 154.792969 147.757812 153.667969 145.75 C 152.816406 144.230469 151.246094 142.570312 149.886719 141.78125 C 149.441406 141.527344 149.015625 141.371094 148.636719 141.324219 C 148.191406 141.277344 147.8125 141.371094 147.496094 141.558594 L 144.746094 143.148438 C 145.058594 142.976562 145.425781 142.878906 145.882812 142.929688 Z M 145.882812 142.929688 " fill-opacity="1" fill-rule="nonzero"/><path fill="#f34858" d="M 103.710938 113.875 C 105.4375 114.867188 107.257812 117.035156 108.382812 119.296875 C 109.996094 122.566406 110.472656 125.949219 110.835938 129.144531 C 110.929688 130.109375 111.074219 131.230469 111.707031 132.164062 C 112.117188 132.777344 112.65625 133.191406 113.179688 133.570312 C 113.558594 133.824219 113.921875 134.058594 114.300781 134.265625 C 117.40625 136.066406 120.523438 136.367188 122.722656 135.085938 L 125.476562 133.480469 C 123.277344 134.761719 120.15625 134.460938 117.054688 132.660156 C 116.675781 132.457031 116.308594 132.21875 115.945312 131.964844 C 115.40625 131.585938 114.886719 131.175781 114.472656 130.574219 C 113.839844 129.625 113.683594 128.519531 113.585938 127.554688 C 113.222656 124.34375 112.75 120.960938 111.132812 117.691406 C 110.027344 115.429688 108.203125 113.265625 106.464844 112.269531 C 105.671875 111.808594 104.878906 111.589844 104.199219 111.714844 C 103.914062 111.761719 103.675781 111.855469 103.457031 111.984375 L 100.6875 113.589844 C 100.910156 113.460938 101.164062 113.367188 101.433594 113.320312 C 102.128906 113.195312 102.90625 113.414062 103.710938 113.875 Z M 103.710938 113.875 " fill-opacity="1" fill-rule="nonzero"/><path fill="#f34858" d="M 70.292969 92.074219 C 70.46875 91.996094 70.628906 91.898438 70.800781 91.835938 C 71.609375 91.535156 72.464844 91.316406 73.414062 91.363281 C 74.570312 91.457031 75.945312 91.949219 77.324219 92.738281 C 79.933594 94.238281 82.515625 96.847656 83.371094 99.882812 C 84.382812 103.441406 87.46875 116.6875 92.457031 119.546875 C 93.675781 120.257812 95.019531 120.335938 96.460938 119.5 L 99.230469 117.894531 C 97.773438 118.734375 96.441406 118.652344 95.222656 117.957031 C 90.238281 115.082031 87.152344 101.835938 86.136719 98.277344 C 85.265625 95.242188 82.6875 92.648438 80.074219 91.132812 C 78.699219 90.34375 77.320312 89.851562 76.179688 89.757812 C 75.214844 89.710938 74.359375 89.933594 73.554688 90.230469 C 73.378906 90.3125 73.222656 90.390625 73.0625 90.484375 Z M 70.292969 92.074219 " fill-opacity="1" fill-rule="nonzero"/><path fill="#f34858" d="M 128.945312 131.703125 C 129.121094 131.769531 129.277344 131.847656 129.453125 131.941406 C 130.828125 132.730469 132.160156 134.421875 133.011719 136.164062 C 133.964844 138.136719 134.390625 140.175781 134.613281 142.074219 C 134.835938 143.941406 135.167969 146.34375 136.652344 147.589844 C 136.796875 147.703125 136.9375 147.796875 137.066406 147.890625 C 137.320312 148.035156 137.574219 148.128906 137.839844 148.222656 C 139.078125 148.632812 140.246094 148.554688 141.148438 148.035156 L 143.902344 146.429688 C 143 146.949219 141.84375 147.027344 140.59375 146.617188 C 140.339844 146.523438 140.085938 146.429688 139.832031 146.285156 C 139.691406 146.207031 139.546875 146.113281 139.40625 145.988281 C 137.917969 144.738281 137.585938 142.335938 137.363281 140.46875 C 137.160156 138.589844 136.730469 136.53125 135.765625 134.558594 C 134.910156 132.835938 133.582031 131.144531 132.203125 130.335938 C 132.042969 130.242188 131.871094 130.164062 131.710938 130.097656 C 130.699219 129.6875 129.875 129.832031 129.164062 130.257812 L 126.730469 131.6875 C 127.363281 131.402344 128.074219 131.355469 128.945312 131.703125 Z M 128.945312 131.703125 " fill-opacity="1" fill-rule="nonzero"/><path fill="#f9607f" d="M 77.316406 92.738281 C 75.945312 91.949219 74.5625 91.460938 73.417969 91.367188 C 72.457031 91.3125 71.605469 91.527344 70.792969 91.839844 C 65.441406 93.980469 62.664062 110.394531 63.773438 118.992188 L 155.070312 171.628906 C 155.457031 167.378906 154.621094 158.640625 153.246094 153.640625 C 152.644531 151.53125 152.035156 149.351562 150.90625 147.34375 C 150.054688 145.828125 148.492188 144.179688 147.121094 143.386719 C 146.675781 143.132812 146.253906 142.964844 145.878906 142.921875 C 143.691406 142.707031 143.269531 145.75 142 147.308594 C 141.0625 148.441406 139.523438 148.773438 137.835938 148.21875 C 137.582031 148.132812 137.328125 148.03125 137.074219 147.882812 C 136.933594 147.800781 136.792969 147.707031 136.652344 147.59375 C 135.167969 146.34375 134.828125 143.941406 134.613281 142.074219 C 134.394531 140.183594 133.964844 138.132812 133.011719 136.164062 C 132.15625 134.429688 130.824219 132.738281 129.449219 131.945312 C 129.28125 131.851562 129.117188 131.769531 128.953125 131.699219 C 126.433594 130.679688 125.144531 133.117188 123.550781 134.5 C 121.34375 136.421875 117.8125 136.296875 114.296875 134.269531 C 113.925781 134.054688 113.554688 133.820312 113.183594 133.566406 C 112.648438 133.1875 112.125 132.777344 111.710938 132.167969 C 111.074219 131.234375 110.925781 130.113281 110.828125 129.152344 C 110.472656 125.949219 109.996094 122.5625 108.375 119.292969 C 107.265625 117.027344 105.445312 114.871094 103.707031 113.871094 C 102.90625 113.410156 102.125 113.191406 101.4375 113.316406 C 98.894531 113.78125 98.773438 118.019531 96.683594 119.371094 C 95.152344 120.347656 93.742188 120.292969 92.460938 119.554688 C 87.476562 116.683594 84.386719 103.441406 83.375 99.882812 C 82.515625 96.847656 79.929688 94.246094 77.316406 92.738281 Z M 77.316406 92.738281 " fill-opacity="1" fill-rule="nonzero"/><path fill="#cad0dd" d="M 137.417969 147.402344 C 137.78125 147.433594 138.207031 147.609375 138.652344 147.859375 C 140.027344 148.652344 141.582031 150.296875 142.433594 151.8125 C 143.574219 153.820312 144.175781 156.003906 144.777344 158.121094 C 146.15625 163.117188 146.992188 171.855469 146.597656 176.109375 L 149.367188 174.503906 C 149.746094 170.253906 148.90625 161.511719 147.546875 156.515625 C 146.945312 154.398438 146.328125 152.230469 145.203125 150.222656 C 144.347656 148.707031 142.78125 147.046875 141.417969 146.257812 C 140.976562 146.003906 140.546875 145.84375 140.167969 145.796875 C 139.726562 145.75 139.34375 145.84375 139.027344 146.035156 L 136.277344 147.625 C 136.59375 147.449219 136.957031 147.355469 137.417969 147.402344 Z M 137.417969 147.402344 " fill-opacity="1" fill-rule="nonzero"/><path fill="#cad0dd" d="M 95.246094 118.347656 C 96.96875 119.34375 98.789062 121.507812 99.914062 123.769531 C 101.53125 127.042969 102.003906 130.425781 102.367188 133.617188 C 102.464844 134.582031 102.605469 135.703125 103.238281 136.636719 C 103.652344 137.253906 104.1875 137.664062 104.710938 138.042969 C 105.09375 138.296875 105.457031 138.535156 105.835938 138.742188 C 108.9375 140.542969 112.058594 140.84375 114.257812 139.5625 L 117.007812 137.957031 C 114.808594 139.238281 111.691406 138.9375 108.585938 137.136719 C 108.207031 136.929688 107.84375 136.691406 107.480469 136.441406 C 106.941406 136.058594 106.417969 135.648438 106.007812 135.046875 C 105.375 134.101562 105.214844 132.992188 105.121094 132.027344 C 104.757812 128.820312 104.28125 125.4375 102.667969 122.164062 C 101.558594 119.90625 99.738281 117.738281 97.996094 116.742188 C 97.207031 116.285156 96.414062 116.0625 95.734375 116.191406 C 95.449219 116.238281 95.210938 116.332031 94.988281 116.457031 L 92.222656 118.0625 C 92.441406 117.9375 92.695312 117.84375 92.964844 117.792969 C 93.660156 117.667969 94.4375 117.890625 95.246094 118.347656 Z M 95.246094 118.347656 " fill-opacity="1" fill-rule="nonzero"/><path fill="#cad0dd" d="M 61.828125 96.550781 C 62 96.46875 62.160156 96.375 62.335938 96.3125 C 63.140625 96.011719 63.996094 95.789062 64.945312 95.835938 C 66.101562 95.933594 67.480469 96.421875 68.855469 97.210938 C 71.46875 98.714844 74.046875 101.324219 74.902344 104.359375 C 75.917969 107.914062 79.003906 121.160156 83.988281 124.023438 C 85.207031 124.734375 86.554688 124.8125 87.996094 123.976562 L 90.761719 122.371094 C 89.304688 123.207031 87.976562 123.128906 86.757812 122.433594 C 81.769531 119.554688 78.683594 106.308594 77.671875 102.753906 C 76.800781 99.71875 74.21875 97.125 71.609375 95.609375 C 70.230469 94.816406 68.851562 94.328125 67.714844 94.234375 C 66.746094 94.183594 65.894531 94.40625 65.085938 94.707031 C 64.910156 94.785156 64.753906 94.863281 64.59375 94.960938 Z M 61.828125 96.550781 " fill-opacity="1" fill-rule="nonzero"/><path fill="#cad0dd" d="M 120.476562 136.179688 C 120.652344 136.242188 120.8125 136.320312 120.984375 136.417969 C 122.363281 137.207031 123.691406 138.898438 124.546875 140.636719 C 125.496094 142.613281 125.921875 144.652344 126.144531 146.550781 C 126.367188 148.414062 126.699219 150.816406 128.1875 152.066406 C 128.328125 152.175781 128.472656 152.273438 128.597656 152.367188 C 128.851562 152.507812 129.105469 152.605469 129.375 152.699219 C 130.609375 153.109375 131.78125 153.03125 132.683594 152.507812 L 135.433594 150.902344 C 134.53125 151.425781 133.375 151.503906 132.125 151.09375 C 131.871094 151 131.621094 150.902344 131.367188 150.761719 C 131.222656 150.683594 131.082031 150.585938 130.9375 150.460938 C 129.449219 149.210938 129.117188 146.808594 128.898438 144.945312 C 128.691406 143.0625 128.261719 141.007812 127.296875 139.03125 C 126.445312 137.308594 125.113281 135.617188 123.738281 134.8125 C 123.578125 134.71875 123.40625 134.636719 123.246094 134.574219 C 122.234375 134.164062 121.410156 134.304688 120.695312 134.734375 L 118.261719 136.164062 C 118.894531 135.878906 119.609375 135.832031 120.476562 136.179688 Z M 120.476562 136.179688 " fill-opacity="1" fill-rule="nonzero"/><path fill="#e4e8f4" d="M 68.847656 97.214844 C 67.476562 96.421875 66.097656 95.933594 64.949219 95.839844 C 63.988281 95.785156 63.136719 96.003906 62.328125 96.3125 C 56.976562 98.457031 54.195312 114.871094 55.304688 123.46875 L 146.601562 176.105469 C 146.988281 171.855469 146.152344 163.113281 144.78125 158.117188 C 144.179688 156.003906 143.566406 153.828125 142.441406 151.820312 C 141.585938 150.300781 140.027344 148.652344 138.65625 147.863281 C 138.210938 147.605469 137.785156 147.4375 137.410156 147.398438 C 135.222656 147.183594 134.800781 150.226562 133.53125 151.78125 C 132.597656 152.914062 131.058594 153.246094 129.367188 152.691406 C 129.113281 152.605469 128.859375 152.503906 128.605469 152.359375 C 128.464844 152.277344 128.324219 152.183594 128.183594 152.066406 C 126.699219 150.816406 126.363281 148.414062 126.144531 146.546875 C 125.929688 144.65625 125.5 142.609375 124.542969 140.640625 C 123.6875 138.902344 122.355469 137.214844 120.980469 136.417969 C 120.816406 136.324219 120.652344 136.242188 120.484375 136.175781 C 117.96875 135.152344 116.675781 137.589844 115.082031 138.972656 C 112.878906 140.898438 109.347656 140.773438 105.828125 138.742188 C 105.457031 138.53125 105.085938 138.296875 104.71875 138.039062 C 104.183594 137.660156 103.65625 137.253906 103.242188 136.644531 C 102.609375 135.707031 102.460938 134.589844 102.363281 133.625 C 102.007812 130.421875 101.53125 127.035156 99.910156 123.765625 C 98.800781 121.5 96.976562 119.347656 95.238281 118.34375 C 94.441406 117.882812 93.660156 117.664062 92.972656 117.792969 C 90.429688 118.253906 90.304688 122.492188 88.214844 123.84375 C 86.6875 124.820312 85.277344 124.769531 83.992188 124.03125 C 79.011719 121.15625 75.921875 107.917969 74.910156 104.359375 C 74.046875 101.324219 71.464844 98.722656 68.847656 97.214844 Z M 68.847656 97.214844 " fill-opacity="1" fill-rule="nonzero"/><path fill="#75ca75" d="M 49.136719 137.058594 L 57.339844 141.953125 L 65.175781 137.949219 L 57.613281 85.007812 Z M 49.136719 137.058594 " fill-opacity="1" fill-rule="nonzero"/><path fill="#6eba6e" d="M 49.136719 137.058594 L 57.339844 141.953125 L 57.613281 85.007812 Z M 49.136719 137.058594 " fill-opacity="1" fill-rule="nonzero"/><path fill="#fed57a" d="M 63.570312 145.503906 L 71.773438 150.398438 L 79.609375 146.394531 L 72.027344 103.84375 Z M 63.570312 145.503906 " fill-opacity="1" fill-rule="nonzero"/><path fill="#9ad898" d="M 78.003906 153.894531 L 86.1875 158.789062 L 94.042969 154.785156 L 86.460938 119.824219 Z M 78.003906 153.894531 " fill-opacity="1" fill-rule="nonzero"/><path fill="#f9607f" d="M 92.839844 162.59375 L 100.625 167.234375 L 108.460938 163.230469 L 100.898438 138.75 Z M 92.839844 162.59375 " fill-opacity="1" fill-rule="nonzero"/><path fill="#4c7891" d="M 106.855469 171.109375 L 115.058594 176.003906 L 122.894531 172 L 115.3125 155.96875 Z M 106.855469 171.109375 " fill-opacity="1" fill-rule="nonzero"/><path fill="#5b5e71" d="M 121.292969 179.898438 L 129.746094 184.941406 L 137.328125 180.792969 L 129.746094 169.378906 Z M 121.292969 179.898438 " fill-opacity="1" fill-rule="nonzero"/><path fill="#f9bb4a" d="M 63.570312 145.503906 L 71.773438 150.398438 L 72.027344 103.84375 Z M 63.570312 145.503906 " fill-opacity="1" fill-rule="nonzero"/><path fill="#75ca75" d="M 78.003906 153.894531 L 86.1875 158.789062 L 86.460938 119.824219 Z M 78.003906 153.894531 " fill-opacity="1" fill-rule="nonzero"/><path fill="#fa5168" d="M 92.839844 162.59375 L 100.625 167.234375 L 100.898438 138.75 Z M 92.839844 162.59375 " fill-opacity="1" fill-rule="nonzero"/><path fill="#416e84" d="M 106.855469 171.109375 L 115.058594 176.003906 L 115.3125 155.96875 Z M 106.855469 171.109375 " fill-opacity="1" fill-rule="nonzero"/><path fill="#525566" d="M 121.292969 179.898438 L 129.746094 184.941406 L 129.746094 169.378906 Z M 121.292969 179.898438 " fill-opacity="1" fill-rule="nonzero"/><path fill="#cad0dd" d="M 214.675781 67.90625 L 214.515625 122.035156 C 214.515625 123.140625 214.121094 123.90625 213.511719 124.28125 L 210.726562 125.898438 C 211.335938 125.523438 211.730469 124.757812 211.730469 123.652344 L 211.890625 69.527344 Z M 214.675781 67.90625 " fill-opacity="1" fill-rule="nonzero"/><path fill="#e4e8f4" d="M 211.976562 69.519531 L 211.820312 123.660156 C 211.816406 125.871094 210.234375 126.757812 208.316406 125.652344 L 133.289062 82.398438 C 131.359375 81.285156 129.789062 78.582031 129.796875 76.367188 L 129.949219 22.230469 Z M 211.976562 69.519531 " fill-opacity="1" fill-rule="nonzero"/><path fill="#ffffff" d="M 209.007812 71.578125 L 208.867188 121.953125 L 208.652344 122.074219 L 133.628906 78.816406 L 133.410156 78.441406 L 133.550781 28.0625 Z M 209.007812 71.578125 " fill-opacity="1" fill-rule="nonzero"/><g clip-path="url(#737bf35866)"><path fill="#fa5168" d="M 214.695312 63.097656 L 214.675781 67.910156 L 211.890625 69.527344 L 211.910156 64.691406 C 211.910156 62.503906 210.351562 59.800781 208.414062 58.675781 L 133.390625 15.417969 C 132.421875 14.867188 131.535156 14.808594 130.902344 15.183594 L 133.6875 13.566406 C 134.320312 13.191406 135.1875 13.25 136.175781 13.800781 L 211.199219 57.058594 C 213.136719 58.183594 214.695312 60.886719 214.695312 63.097656 Z M 214.695312 63.097656 " fill-opacity="1" fill-rule="nonzero"/></g><path fill="#f9607f" d="M 208.410156 58.671875 C 210.351562 59.792969 211.910156 62.503906 211.90625 64.703125 L 211.890625 69.519531 L 129.863281 22.230469 L 129.878906 17.410156 C 129.886719 15.210938 131.453125 14.304688 133.382812 15.417969 Z M 208.410156 58.671875 " fill-opacity="1" fill-rule="nonzero"/><path fill="#e4e8f4" d="M 142.273438 37.339844 L 142.269531 39.160156 L 136.667969 35.929688 L 136.671875 34.113281 Z M 142.273438 37.339844 " fill-opacity="1" fill-rule="nonzero"/><path fill="#e4e8f4" d="M 142.25 45.402344 L 142.246094 47.222656 L 136.644531 43.992188 L 136.648438 42.171875 Z M 142.25 45.402344 " fill-opacity="1" fill-rule="nonzero"/><path fill="#e4e8f4" d="M 142.226562 53.480469 L 142.222656 55.285156 L 136.621094 52.054688 L 136.628906 50.25 Z M 142.226562 53.480469 " fill-opacity="1" fill-rule="nonzero"/><path fill="#e4e8f4" d="M 142.207031 61.542969 L 142.199219 63.347656 L 136.597656 60.117188 L 136.605469 58.3125 Z M 142.207031 61.542969 " fill-opacity="1" fill-rule="nonzero"/><path fill="#e4e8f4" d="M 142.183594 69.601562 L 142.175781 71.421875 L 136.578125 68.195312 L 136.582031 66.375 Z M 142.183594 69.601562 " fill-opacity="1" fill-rule="nonzero"/><path fill="#e4e8f4" d="M 142.160156 77.664062 L 142.152344 79.484375 L 136.554688 76.253906 L 136.558594 74.4375 Z M 142.160156 77.664062 " fill-opacity="1" fill-rule="nonzero"/><path fill="#4c7891" d="M 147.882812 55.882812 C 148.289062 56.121094 148.609375 56.6875 148.609375 57.15625 L 148.535156 83.164062 L 147.074219 82.320312 L 147.148438 56.316406 C 147.148438 55.847656 147.472656 55.648438 147.882812 55.882812 Z M 147.882812 55.882812 " fill-opacity="1" fill-rule="nonzero"/><path fill="#416e84" d="M 151.535156 50.339844 C 151.941406 50.578125 152.261719 51.132812 152.261719 51.601562 L 152.167969 85.257812 L 150.691406 84.40625 L 150.789062 50.75 C 150.789062 50.28125 151.125 50.105469 151.535156 50.339844 Z M 151.535156 50.339844 " fill-opacity="1" fill-rule="nonzero"/><path fill="#d4dae8" d="M 164.371094 70.546875 C 164.78125 70.78125 165.113281 71.359375 165.113281 71.828125 L 165.054688 92.6875 L 163.578125 91.835938 L 163.636719 70.980469 C 163.640625 70.507812 163.964844 70.3125 164.371094 70.546875 Z M 164.371094 70.546875 " fill-opacity="1" fill-rule="nonzero"/><path fill="#e4e8f4" d="M 160.761719 60.820312 C 161.171875 61.054688 161.503906 61.632812 161.503906 62.085938 L 161.421875 90.59375 L 159.949219 89.746094 L 160.03125 61.234375 C 160.03125 60.78125 160.355469 60.582031 160.761719 60.820312 Z M 160.761719 60.820312 " fill-opacity="1" fill-rule="nonzero"/><path fill="#748bfd" d="M 173.597656 87.289062 C 174.003906 87.523438 174.328125 88.09375 174.324219 88.5625 L 174.296875 98.019531 L 172.824219 97.167969 L 172.851562 87.710938 C 172.851562 87.242188 173.1875 87.050781 173.597656 87.289062 Z M 173.597656 87.289062 " fill-opacity="1" fill-rule="nonzero"/><path fill="#576cfb" d="M 177.25 81.746094 C 177.644531 81.972656 177.980469 82.535156 177.976562 83.003906 L 177.929688 100.109375 L 176.453125 99.261719 L 176.503906 82.15625 C 176.503906 81.6875 176.839844 81.507812 177.25 81.746094 Z M 177.25 81.746094 " fill-opacity="1" fill-rule="nonzero"/><path fill="#9ad898" d="M 186.519531 78.160156 C 186.925781 78.394531 187.25 78.964844 187.246094 79.433594 L 187.171875 105.441406 L 185.710938 104.597656 L 185.785156 78.589844 C 185.785156 78.121094 186.109375 77.921875 186.519531 78.160156 Z M 186.519531 78.160156 " fill-opacity="1" fill-rule="nonzero"/><path fill="#75ca75" d="M 190.125 88.316406 C 190.535156 88.550781 190.855469 89.121094 190.855469 89.589844 L 190.804688 107.53125 L 189.328125 106.683594 L 189.378906 88.738281 C 189.382812 88.269531 189.71875 88.078125 190.125 88.316406 Z M 190.125 88.316406 " fill-opacity="1" fill-rule="nonzero"/><path fill="#fa5168" d="M 203.023438 87.675781 C 203.433594 87.910156 203.765625 88.488281 203.765625 88.957031 L 203.691406 114.964844 L 202.214844 114.113281 L 202.289062 88.105469 C 202.292969 87.636719 202.617188 87.441406 203.023438 87.675781 Z M 203.023438 87.675781 " fill-opacity="1" fill-rule="nonzero"/><path fill="#e29c40" d="M 204.988281 73.140625 L 204.984375 74.804688 L 199.0625 71.390625 C 198.664062 71.164062 198.34375 70.605469 198.34375 70.152344 C 198.347656 69.683594 198.667969 69.5 199.066406 69.726562 Z M 204.988281 73.140625 " fill-opacity="1" fill-rule="nonzero"/><path fill="#f9607f" d="M 199.414062 77.945312 C 199.824219 78.183594 200.15625 78.746094 200.15625 79.214844 L 200.0625 112.871094 L 198.585938 112.019531 L 198.679688 78.363281 C 198.683594 77.894531 199.019531 77.71875 199.414062 77.945312 Z M 199.414062 77.945312 " fill-opacity="1" fill-rule="nonzero"/><path fill="#e29c40" d="M 195.710938 67.292969 C 196.351562 67.664062 196.871094 68.5625 196.871094 69.289062 C 196.867188 70.042969 196.34375 70.324219 195.703125 69.953125 C 195.058594 69.582031 194.539062 68.699219 194.539062 67.945312 C 194.542969 67.21875 195.066406 66.921875 195.710938 67.292969 Z M 195.710938 67.292969 " fill-opacity="1" fill-rule="nonzero"/><path fill="#3e60dd" d="M 187.753906 63.203125 L 187.746094 64.867188 L 181.824219 61.453125 C 181.425781 61.222656 181.105469 60.667969 181.109375 60.214844 C 181.109375 59.746094 181.433594 59.558594 181.828125 59.789062 Z M 187.753906 63.203125 " fill-opacity="1" fill-rule="nonzero"/><path fill="#3e60dd" d="M 178.472656 57.355469 C 179.117188 57.726562 179.636719 58.625 179.632812 59.351562 C 179.632812 60.101562 179.109375 60.386719 178.464844 60.015625 C 177.820312 59.644531 177.3125 58.769531 177.316406 58.015625 C 177.316406 57.289062 177.828125 56.984375 178.472656 57.355469 Z M 178.472656 57.355469 " fill-opacity="1" fill-rule="nonzero"/><path fill="#e63044" d="M 170.515625 53.265625 L 170.511719 54.929688 L 164.601562 51.523438 C 164.191406 51.285156 163.871094 50.730469 163.871094 50.277344 C 163.871094 49.808594 164.195312 49.625 164.605469 49.859375 Z M 170.515625 53.265625 " fill-opacity="1" fill-rule="nonzero"/><path fill="#e63044" d="M 161.246094 47.425781 C 161.878906 47.789062 162.398438 48.6875 162.398438 49.414062 C 162.394531 50.164062 161.871094 50.449219 161.242188 50.085938 C 160.582031 49.707031 160.078125 48.828125 160.078125 48.078125 C 160.082031 47.351562 160.589844 47.046875 161.246094 47.425781 Z M 161.246094 47.425781 " fill-opacity="1" fill-rule="nonzero"/><path fill="#ffffff" d="M 147.03125 25.171875 C 148.152344 25.820312 149.058594 27.386719 149.058594 28.664062 C 149.054688 29.957031 148.140625 30.488281 147.015625 29.839844 C 145.902344 29.199219 144.996094 27.617188 145 26.328125 C 145.003906 25.050781 145.917969 24.53125 147.03125 25.171875 Z M 147.03125 25.171875 " fill-opacity="1" fill-rule="nonzero"/><path fill="#ffffff" d="M 153.144531 28.695312 C 154.265625 29.34375 155.160156 30.90625 155.160156 32.183594 C 155.15625 33.472656 154.253906 34.011719 153.128906 33.363281 C 152.003906 32.714844 151.097656 31.132812 151.101562 29.84375 C 151.105469 28.566406 152.019531 28.046875 153.144531 28.695312 Z M 153.144531 28.695312 " fill-opacity="1" fill-rule="nonzero"/><path fill="#ffffff" d="M 140.929688 21.65625 C 142.050781 22.304688 142.945312 23.863281 142.945312 25.140625 C 142.9375 26.429688 142.039062 26.96875 140.914062 26.320312 C 139.789062 25.671875 138.894531 24.097656 138.898438 22.808594 C 138.902344 21.53125 139.804688 21.007812 140.929688 21.65625 Z M 140.929688 21.65625 " fill-opacity="1" fill-rule="nonzero"/></svg>