<svg width="133" height="52" viewBox="0 0 133 52" fill="none" xmlns="http://www.w3.org/2000/svg">
<path d="M0.74856 29.117C0.574476 29.117 0.429407 29.0132 0.313351 28.8056C0.208901 28.598 0.156675 28.4077 0.156675 28.2347C0.156675 28.0386 0.197295 27.8887 0.278534 27.7849C0.359773 27.681 0.510646 27.6176 0.731152 27.5945C2.87819 27.4331 3.9517 26.9487 3.9517 26.1413V8.70223C3.9517 8.24088 3.76021 7.8199 3.37723 7.43928C2.99424 7.05867 2.53582 6.75302 2.00196 6.52235C1.47971 6.28014 1.02129 6.13597 0.626702 6.08983C0.371379 6.06676 0.203098 6.02063 0.121859 5.95143C0.0406195 5.87069 0 5.70345 0 5.44971C0 5.2767 0.0522251 5.08639 0.156675 4.87878C0.272731 4.67118 0.417801 4.56737 0.591885 4.56737H9.08717L23.188 21.0376H23.3969V7.76799C23.3969 7.31818 23.2228 6.97793 22.8746 6.74726C22.5264 6.51658 22.1841 6.37241 21.8475 6.31474C21.5226 6.24554 20.9829 6.17057 20.2285 6.08983C19.9732 6.06676 19.8049 6.02063 19.7237 5.95143C19.6425 5.87069 19.6018 5.70345 19.6018 5.44971C19.6018 5.2767 19.6541 5.08639 19.7585 4.87878C19.8746 4.67118 20.0196 4.56737 20.1937 4.56737H28.4627C28.6368 4.56737 28.776 4.67118 28.8805 4.87878C28.9966 5.08639 29.0546 5.2767 29.0546 5.44971C29.0546 5.64578 29.014 5.79572 28.9327 5.89952C28.8515 6.00333 28.7006 6.06676 28.4801 6.08983C26.4491 6.32051 25.4336 6.85106 25.4336 7.68149V27.162C25.4336 27.3696 25.451 27.5888 25.4859 27.8195L25.5381 28.425C25.5729 28.8287 25.3756 29.1285 24.9462 29.3246C24.5284 29.5322 24.0874 29.636 23.6232 29.636C23.4491 29.636 23.2692 29.5957 23.0835 29.5149C22.9094 29.4457 22.776 29.3592 22.6831 29.2554L6.45851 10.2593H6.16257V25.9164C6.16257 26.3201 6.32504 26.6372 6.65 26.8679C6.98656 27.0986 7.36374 27.2601 7.78154 27.3523C8.21095 27.4331 8.7216 27.5023 9.31348 27.5599L9.67906 27.5945C9.93438 27.6176 10.1027 27.6695 10.1839 27.7503C10.2651 27.8195 10.3058 27.9809 10.3058 28.2347C10.3058 28.4077 10.2477 28.598 10.1317 28.8056C10.0272 29.0132 9.88796 29.117 9.71387 29.117H0.74856Z" fill="white"/>
<path d="M34.016 36.885C33.4589 36.885 32.896 36.7524 32.3274 36.4871C31.7587 36.2218 31.2829 35.8643 30.8999 35.4144C30.5285 34.9646 30.3428 34.4744 30.3428 33.9439C30.3428 33.3095 30.5169 32.7963 30.8651 32.4041C31.2248 32.012 31.7007 31.8159 32.2925 31.8159L34.2423 34.0131C34.869 34.0131 35.4144 33.8574 35.8787 33.546C36.3545 33.2346 36.7839 32.7963 37.1669 32.2311C37.5615 31.6775 38.0605 30.8644 38.664 29.7917L31.5092 14.7748C31.2422 14.2211 30.9463 13.8463 30.6213 13.6502C30.2964 13.4426 29.8844 13.3157 29.3853 13.2696C29.13 13.2465 28.9617 13.2004 28.8805 13.1312C28.7993 13.0505 28.7586 12.8832 28.7586 12.6295C28.7586 12.468 28.8109 12.3123 28.9153 12.1624C29.0198 12.0009 29.159 11.9202 29.3331 11.9202H39.2037C39.3894 11.9202 39.5344 12.0009 39.6389 12.1624C39.7433 12.3123 39.7956 12.468 39.7956 12.6295C39.7956 12.8256 39.7549 12.9755 39.6737 13.0793C39.5925 13.1831 39.4416 13.2465 39.2211 13.2696C38.6524 13.3388 38.194 13.4253 37.8458 13.5291C37.5093 13.6214 37.341 13.7829 37.341 14.0135L41.3623 24.2382L44.9658 14.0308C44.9658 13.7886 44.786 13.6214 44.4262 13.5291C44.078 13.4253 43.6022 13.3388 42.9987 13.2696C42.7782 13.2465 42.6273 13.1831 42.5461 13.0793C42.4648 12.9755 42.4242 12.8256 42.4242 12.6295C42.4242 12.468 42.4764 12.3123 42.5809 12.1624C42.6853 12.0009 42.8304 11.9202 43.0161 11.9202H49.1961C49.3702 11.9202 49.5094 12.0009 49.6139 12.1624C49.7299 12.3238 49.788 12.4795 49.788 12.6295C49.788 12.8832 49.7473 13.0505 49.6661 13.1312C49.5849 13.2004 49.4166 13.2465 49.1613 13.2696C48.6738 13.3157 48.285 13.4368 47.9949 13.6329C47.7164 13.829 47.4552 14.2096 47.2115 14.7748L42.3546 26.4181L42.1109 27.0063C41.1244 29.3592 40.3004 31.1758 39.6389 32.456C38.9774 33.7363 38.1882 34.7916 37.2713 35.622C36.3545 36.464 35.2694 36.885 34.016 36.885Z" fill="white"/>
<path d="M50.7106 29.117C50.5249 29.117 50.3798 29.042 50.2754 28.8921C50.1709 28.7306 50.1187 28.5691 50.1187 28.4077C50.1187 28.2116 50.1593 28.0617 50.2406 27.9579C50.3334 27.8425 50.4843 27.7791 50.6932 27.7676C51.2387 27.7214 51.7087 27.6291 52.1033 27.4907C52.4979 27.3408 52.6952 27.1217 52.6952 26.8333L52.7126 6.14173C52.7126 5.59965 52.6023 5.1902 52.3818 4.91339C52.1613 4.63658 51.9002 4.45204 51.5984 4.35976C51.2967 4.26749 50.9079 4.19253 50.4321 4.13486C50.0375 4.07719 49.817 4.04259 49.7706 4.03105C49.6313 3.97338 49.5268 3.89265 49.4572 3.78884C49.3876 3.68504 49.3528 3.5351 49.3528 3.33903C49.3528 3.17755 49.3934 3.01608 49.4746 2.85461C49.5558 2.6816 49.6545 2.58933 49.7706 2.5778C52.2774 2.41632 54.8596 2.33559 57.5173 2.33559C57.6449 2.33559 57.761 2.39326 57.8654 2.50859C57.9815 2.6124 58.0395 2.78541 58.0395 3.02761V26.2624C58.0395 26.6661 58.144 26.9775 58.3529 27.1966C58.5734 27.4042 58.8229 27.5426 59.1014 27.6118C59.38 27.6695 59.7339 27.7214 60.1634 27.7676C60.4187 27.7906 60.587 27.8425 60.6682 27.9233C60.7494 27.9925 60.7901 28.1539 60.7901 28.4077C60.7901 28.5691 60.7378 28.7306 60.6334 28.8921C60.5289 29.042 60.3839 29.117 60.1982 29.117H50.7106Z" fill="white"/>
<path d="M63.2795 24.9302C63.2795 23.5116 63.8249 22.3755 64.9158 21.522C66.0184 20.6685 67.353 20.0515 68.9198 19.6708C70.4981 19.2787 72.2796 18.9788 74.2641 18.7712V15.9166C74.2641 14.8901 74.0436 14.1865 73.6026 13.8059C73.1732 13.4138 72.5291 13.2177 71.6703 13.2177C70.6722 13.2177 70.0107 13.3157 69.6857 13.5118L66.9178 18.1311C66.0938 18.1311 65.4149 17.9062 64.881 17.4564C64.3588 16.995 64.0976 16.4068 64.0976 15.6917C64.0976 14.769 64.5387 14.002 65.4207 13.3907C66.3143 12.7679 67.3994 12.3123 68.676 12.024C69.9643 11.7241 71.2119 11.5741 72.4189 11.5741C74.1365 11.5741 75.5582 11.7817 76.6839 12.197C77.8096 12.6006 78.6394 13.1658 79.1733 13.8924C79.7072 14.6075 79.9741 15.438 79.9741 16.3837V25.6915C79.9741 26.1413 80.0379 26.5219 80.1656 26.8333C80.2932 27.1332 80.4499 27.2831 80.6356 27.2831C80.7749 27.2831 81.094 27.2312 81.5931 27.1274L82.0457 27.0582C82.2314 27.0582 82.3648 27.162 82.4461 27.3696C82.5273 27.5657 82.5679 27.7906 82.5679 28.0444C82.5679 28.1943 82.5331 28.2981 82.4635 28.3558C82.2778 28.4826 81.9412 28.6384 81.4538 28.8229C80.978 29.0074 80.3687 29.1747 79.6259 29.3246C78.8948 29.4745 78.0998 29.5495 77.241 29.5495C76.3706 29.5495 75.738 29.3996 75.3435 29.0997C74.9489 28.7998 74.7226 28.5115 74.6645 28.2347C74.6181 27.9579 74.5949 27.6234 74.5949 27.2312V27.1793C73.8521 27.9521 72.9527 28.5403 71.8966 28.944C70.8521 29.3361 69.7089 29.5322 68.4671 29.5322C67.6896 29.5322 66.9004 29.3707 66.0996 29.0478C65.2988 28.7249 64.6257 28.2174 64.0802 27.5253C63.5464 26.8333 63.2795 25.9683 63.2795 24.9302ZM69.1809 24.7572C69.1809 25.3801 69.3782 25.9164 69.7728 26.3662C70.179 26.816 70.7418 27.0409 71.4614 27.0409C72.6103 27.0409 73.5446 26.6026 74.2641 25.7261V20.1553C73.2777 20.3052 72.4247 20.5128 71.7051 20.7781C70.9972 21.0434 70.3995 21.4932 69.912 22.1275C69.4246 22.7619 69.1809 23.6385 69.1809 24.7572ZM72.1925 9.80947C71.1945 9.80947 70.2834 9.60763 69.4594 9.20395C68.6354 8.80027 67.9855 8.22934 67.5097 7.49118C67.0339 6.74149 66.7959 5.87646 66.7959 4.89609C66.7959 3.91571 67.0339 3.05645 67.5097 2.31829C67.9855 1.58013 68.6354 1.0092 69.4594 0.605523C70.2834 0.201841 71.1945 0 72.1925 0C73.179 0 74.0843 0.213375 74.9082 0.640124C75.7322 1.05534 76.3822 1.6378 76.858 2.38749C77.3454 3.13719 77.5891 3.99068 77.5891 4.94799C77.5891 5.92836 77.3454 6.78762 76.858 7.52578C76.3822 8.25241 75.7322 8.81757 74.9082 9.22125C74.0959 9.6134 73.1906 9.80947 72.1925 9.80947ZM72.1925 7.28358C73.0397 7.28358 73.6665 7.05867 74.0726 6.60885C74.4788 6.15903 74.6819 5.58234 74.6819 4.87878C74.6819 4.17522 74.4788 3.6043 74.0726 3.16602C73.6665 2.72774 73.0397 2.50859 72.1925 2.50859C71.3453 2.50859 70.7186 2.7335 70.3124 3.18332C69.9178 3.63314 69.7206 4.20983 69.7206 4.91339C69.7206 5.61695 69.9178 6.18787 70.3124 6.62615C70.7186 7.06443 71.3453 7.28358 72.1925 7.28358Z" fill="white"/>
<path d="M91.8466 29.636C90.9994 29.636 90.2102 29.5265 89.4791 29.3073C88.7479 29.0882 88.127 28.8517 87.6164 28.598C87.4307 28.5057 87.2508 28.4596 87.0767 28.4596C86.8678 28.4596 86.7111 28.4884 86.6067 28.5461C86.5022 28.6037 86.3978 28.696 86.2933 28.8229C86.1773 28.9613 86.0612 29.0593 85.9452 29.117C85.8291 29.1862 85.655 29.2208 85.4229 29.2208C85.1908 29.2208 84.9819 29.1747 84.7962 29.0824C84.6221 28.9786 84.5351 28.8517 84.5351 28.7018L84.4654 26.7295C84.4074 24.6534 84.3784 23.5693 84.3784 23.477C84.3784 23.2232 84.4654 23.0387 84.6395 22.9234C84.8252 22.7965 85.0399 22.7331 85.2836 22.7331C85.4809 22.7331 85.655 22.7677 85.8059 22.8369C85.9568 22.9061 86.0496 22.9983 86.0844 23.1137C86.2817 23.8057 86.5777 24.5612 86.9723 25.3801C87.1695 25.7837 87.4655 26.199 87.8601 26.6257C88.2547 27.0409 88.7711 27.4042 89.4094 27.7156C90.0593 28.0155 90.8021 28.1655 91.6377 28.1655C92.6126 28.1655 93.3727 27.9982 93.9182 27.6637C94.4753 27.3293 94.7538 26.8391 94.7538 26.1932C94.7538 25.6626 94.5971 25.2013 94.2838 24.8091C93.982 24.4055 93.4598 24.0133 92.717 23.6327C91.9859 23.2521 90.953 22.8253 89.6183 22.3524C88.2605 21.8796 87.1057 21.2048 86.1541 20.3283C85.214 19.4517 84.744 18.3272 84.744 16.9546C84.744 15.9627 85.0631 15.0573 85.7014 14.2384C86.3514 13.408 87.2392 12.7563 88.3649 12.2835C89.5023 11.8106 90.7615 11.5741 92.1425 11.5741C92.7925 11.5741 93.3785 11.6433 93.9008 11.7817C94.423 11.9086 94.9627 12.0759 95.5198 12.2835C95.601 12.3065 95.7287 12.3527 95.9028 12.4219C96.0884 12.4795 96.2219 12.5084 96.3031 12.5084C96.4772 12.5084 96.5933 12.4795 96.6513 12.4219C96.7209 12.3527 96.7732 12.2719 96.808 12.1797C96.8428 12.0759 96.8776 11.9951 96.9124 11.9375C96.9821 11.8221 97.0923 11.7356 97.2432 11.6779C97.4057 11.6087 97.5798 11.5741 97.7654 11.5741C98.0324 11.5741 98.2645 11.6318 98.4618 11.7471C98.6591 11.8509 98.7577 11.9951 98.7577 12.1797C98.7577 12.3181 98.7519 12.4507 98.7403 12.5776C98.7171 13.1773 98.7055 13.829 98.7055 14.5325C98.7055 14.9016 98.7229 15.2534 98.7577 15.5879C98.7809 16.0031 98.7925 16.2857 98.7925 16.4356C98.7925 16.7586 98.7055 17.0008 98.5314 17.1622C98.3573 17.3122 98.1368 17.3872 97.8699 17.3872C97.6842 17.3872 97.5159 17.3583 97.3651 17.3007C97.2258 17.2315 97.1387 17.1449 97.1039 17.0411C96.8718 16.3491 96.5933 15.7263 96.2683 15.1727C95.955 14.6075 95.4733 14.1173 94.8234 13.7021C94.1851 13.2754 93.3611 13.062 92.3514 13.062C91.6667 13.062 91.0632 13.2119 90.541 13.5118C90.0303 13.8117 89.775 14.2961 89.775 14.9651C89.775 15.4841 89.9143 15.9339 90.1928 16.3145C90.4713 16.6951 90.8891 17.0354 91.4462 17.3353C92.0149 17.6351 92.7692 17.9408 93.7093 18.2522C95.6706 18.8981 97.2258 19.6824 98.3747 20.6051C99.5353 21.5162 100.116 22.7446 100.116 24.2901C100.116 26.0317 99.4076 27.3581 97.9918 28.2693C96.5759 29.1804 94.5275 29.636 91.8466 29.636Z" fill="white"/>
<rect x="104.032" y="23.9502" width="28.9675" height="25.0975" fill="white"/>
<rect x="86.2061" y="32.8076" width="14.8551" height="8.11977" fill="white"/>
<rect x="75.0645" y="32.8076" width="8.17033" height="19.1922" fill="white"/>
<rect x="63.9238" y="32.8076" width="8.17033" height="19.1922" fill="white"/>
<rect x="49.8115" y="32.8076" width="11.1414" height="8.11977" fill="white"/>
</svg>
