<svg width="207" height="91" viewBox="0 0 207 91" fill="none" xmlns="http://www.w3.org/2000/svg">
<path d="M11.0127 32.5049C9.75488 32.5049 8.69531 32.375 7.83398 32.1152C6.97266 31.8555 6.31641 31.6162 5.86523 31.3975C5.41406 31.1787 5.13379 31.042 5.02441 30.9873C4.83301 30.8916 4.60742 30.7754 4.34766 30.6387C4.18359 30.543 4.01953 30.4609 3.85547 30.3926C3.70508 30.3242 3.56836 30.29 3.44531 30.29C3.22656 30.29 3.00098 30.4199 2.76855 30.6797C2.30371 31.2402 1.81152 31.5205 1.29199 31.5205C1.00488 31.5205 0.772461 31.4316 0.594727 31.2539C0.430664 31.0625 0.355469 30.8232 0.369141 30.5361C0.396484 30.126 0.410156 29.5586 0.410156 28.834C0.410156 27.6855 0.321289 26.2363 0.143555 24.4863C0.0478516 23.5293 0 22.8662 0 22.4971C0 22.1006 0.102539 21.8066 0.307617 21.6152C0.512695 21.4102 0.765625 21.3076 1.06641 21.3076C1.33984 21.3076 1.5791 21.3828 1.78418 21.5332C1.98926 21.6836 2.12598 21.8955 2.19434 22.1689C2.3584 22.7842 2.53613 23.3789 2.72754 23.9531C2.93262 24.5137 3.25391 25.2383 3.69141 26.127C4.18359 27.0977 4.81934 27.9248 5.59863 28.6084C6.37793 29.292 7.21875 29.8047 8.12109 30.1465C9.03711 30.4883 9.93945 30.6592 10.8281 30.6592C12.2363 30.6592 13.4121 30.3105 14.3555 29.6133C15.2988 28.9023 15.7637 27.7402 15.75 26.127C15.7363 25.1016 15.4082 24.1787 14.7656 23.3584C14.123 22.5244 13.3301 21.8066 12.3867 21.2051C11.457 20.5898 10.2676 19.9062 8.81836 19.1543C7.17773 18.3066 5.82422 17.5205 4.75781 16.7959C3.69141 16.0576 2.78223 15.1348 2.03027 14.0273C1.27832 12.9062 0.888672 11.5869 0.861328 10.0693C0.833984 8.36035 1.25098 6.91113 2.1123 5.72168C2.97363 4.53223 4.10156 3.64355 5.49609 3.05566C6.9043 2.46777 8.4082 2.17383 10.0078 2.17383C11.0195 2.17383 11.8672 2.24902 12.5508 2.39941C13.248 2.53613 13.959 2.72754 14.6836 2.97363C15.1484 3.15137 15.4834 3.24023 15.6885 3.24023C15.8936 3.24023 16.0508 3.21289 16.1602 3.1582C16.2832 3.10352 16.4062 3.02148 16.5293 2.91211C16.6523 2.78906 16.7549 2.70703 16.8369 2.66602C16.9873 2.57031 17.1719 2.52246 17.3906 2.52246C17.6914 2.52246 17.9717 2.60449 18.2314 2.76855C18.4912 2.91895 18.6211 3.09668 18.6211 3.30176C18.6348 4.25879 18.7441 5.6123 18.9492 7.3623C19.0859 8.59277 19.1543 9.35156 19.1543 9.63867C19.1543 10.0488 19.0449 10.3496 18.8262 10.541C18.6074 10.7188 18.334 10.8076 18.0059 10.8076C17.7871 10.8076 17.5889 10.7666 17.4111 10.6846C17.2334 10.5889 17.1172 10.4727 17.0625 10.3359C16.8711 9.26953 16.502 8.24414 15.9551 7.25977C15.4082 6.26172 14.6562 5.44824 13.6992 4.81934C12.7559 4.17676 11.6348 3.85547 10.3359 3.85547C8.8457 3.85547 7.64941 4.21094 6.74707 4.92188C5.8584 5.63281 5.41406 6.77441 5.41406 8.34668C5.41406 9.23535 5.72852 10.0693 6.35742 10.8486C6.98633 11.6143 7.75195 12.2979 8.6543 12.8994C9.57031 13.501 10.7529 14.1982 12.2021 14.9912C14.0205 16.0029 15.4697 16.8779 16.5498 17.6162C17.6299 18.3408 18.5732 19.2637 19.3799 20.3848C20.2002 21.4922 20.6104 22.7637 20.6104 24.1992C20.6104 25.9219 20.1797 27.4121 19.3184 28.6699C18.4707 29.9141 17.3154 30.8643 15.8525 31.5205C14.4033 32.1768 12.79 32.5049 11.0127 32.5049Z" fill="black"/>
<path d="M31.582 32.5049C29.709 32.5049 28.3008 32.1016 27.3574 31.2949C26.4141 30.4883 25.9424 29.1621 25.9424 27.3164V13.4326H23.625C23.4746 13.4189 23.3516 13.3369 23.2559 13.1865C23.1738 13.0225 23.1328 12.8516 23.1328 12.6738C23.1328 12.4141 23.1807 12.209 23.2764 12.0586C23.3857 11.8945 23.5225 11.7988 23.6865 11.7715L24.6709 11.5049C25.6279 11.3818 26.4277 10.876 27.0703 9.9873C27.7129 9.09863 28.2393 7.73145 28.6494 5.88574C28.6904 5.68066 28.793 5.53711 28.957 5.45508C29.1348 5.35938 29.4014 5.31152 29.7568 5.31152C30.1123 5.31152 30.3516 5.35254 30.4746 5.43457C30.6113 5.5166 30.6797 5.66016 30.6797 5.86523V11.5049H36.2168C36.3672 11.5186 36.4834 11.5938 36.5654 11.7305C36.6611 11.8672 36.709 12.0244 36.709 12.2021C36.709 12.5303 36.6475 12.8174 36.5244 13.0635C36.4014 13.3096 36.2646 13.4326 36.1143 13.4326H30.6797V25.7168C30.6797 27.3301 30.8711 28.4443 31.2539 29.0596C31.6367 29.6611 32.1631 29.9619 32.833 29.9619C33.5303 29.9619 34.1523 29.8799 34.6992 29.7158C35.2461 29.5381 35.8477 29.292 36.5039 28.9775C36.668 29.0732 36.8252 29.2646 36.9756 29.5518C37.1396 29.8252 37.2148 30.0576 37.2012 30.249C36.9277 30.5498 36.4561 30.8779 35.7861 31.2334C35.1299 31.5889 34.4189 31.8896 33.6533 32.1357C32.8877 32.3818 32.1973 32.5049 31.582 32.5049Z" fill="black"/>
<path d="M39.252 21.7998C39.252 19.708 39.6758 17.8555 40.5234 16.2422C41.3848 14.6152 42.6084 13.3506 44.1943 12.4482C45.7939 11.5459 47.6533 11.0947 49.7725 11.0947C51.9053 11.0947 53.7441 11.5459 55.2891 12.4482C56.8477 13.3506 58.0371 14.6084 58.8574 16.2217C59.6777 17.835 60.0879 19.6943 60.0879 21.7998C60.0879 23.8916 59.6641 25.7441 58.8164 27.3574C57.9824 28.9707 56.7725 30.2285 55.1865 31.1309C53.6143 32.0332 51.7617 32.4844 49.6289 32.4844C47.5098 32.4844 45.6641 32.04 44.0918 31.1514C42.5332 30.249 41.3369 28.9912 40.5029 27.3779C39.6689 25.751 39.252 23.8916 39.252 21.7998ZM44.584 21.7998C44.584 23.7275 44.7344 25.3271 45.0352 26.5986C45.3496 27.8701 45.8828 28.8477 46.6348 29.5312C47.3867 30.2012 48.4053 30.5361 49.6904 30.5361C50.9756 30.5361 51.9805 30.2012 52.7051 29.5312C53.4434 28.8477 53.9629 27.877 54.2637 26.6191C54.5645 25.3477 54.7148 23.7412 54.7148 21.7998C54.7148 19.8721 54.5576 18.2725 54.2432 17.001C53.9287 15.7295 53.3955 14.7588 52.6436 14.0889C51.9053 13.4053 50.8936 13.0635 49.6084 13.0635C48.3232 13.0635 47.3115 13.4053 46.5732 14.0889C45.835 14.7588 45.3154 15.7295 45.0146 17.001C44.7275 18.2588 44.584 19.8584 44.584 21.7998Z" fill="black"/>
<path d="M73.0693 32.4844C70.8682 32.4844 69.0225 32.0469 67.5322 31.1719C66.042 30.2969 64.9277 29.0596 64.1895 27.46C63.4512 25.8467 63.082 23.9258 63.082 21.6973C63.082 19.5234 63.5264 17.6367 64.415 16.0371C65.3037 14.4375 66.5342 13.2139 68.1064 12.3662C69.6787 11.5186 71.4629 11.0947 73.459 11.0947C76.7812 11.0947 78.9961 12.1133 80.1035 14.1504C80.5547 14.9434 80.7803 15.6885 80.7803 16.3857C80.7803 16.8643 80.6777 17.2812 80.4727 17.6367C80.2812 17.9785 80.0283 18.2383 79.7139 18.416C79.4131 18.5938 79.1191 18.6826 78.832 18.6826C78.3809 18.6826 78.0049 18.6006 77.7041 18.4365C77.4033 18.2725 77.1709 17.999 77.0068 17.6162L75.1611 13.3916C75.0928 13.3232 74.9219 13.2412 74.6484 13.1455C74.375 13.0361 74.0332 12.9814 73.623 12.9814C71.9961 12.9814 70.7178 13.6855 69.7881 15.0938C68.8584 16.502 68.3936 18.751 68.3936 21.8408C68.3936 23.7412 68.667 25.3135 69.2139 26.5576C69.7607 27.8018 70.4443 28.7109 71.2646 29.2852C72.085 29.8594 72.9189 30.1465 73.7666 30.1465C74.833 30.1465 75.8105 29.9277 76.6992 29.4902C77.5879 29.0527 78.2783 28.4307 78.7705 27.624C78.8389 27.4873 78.9004 27.3916 78.9551 27.3369C79.0098 27.2686 79.0918 27.2549 79.2012 27.2959L80.1855 27.7676C80.3359 27.8223 80.4111 27.9043 80.4111 28.0137C80.4111 28.0547 80.3906 28.1162 80.3496 28.1982C80.3223 28.2666 80.3018 28.3145 80.2881 28.3418C79.6318 29.5996 78.668 30.6045 77.3965 31.3564C76.1387 32.1084 74.6963 32.4844 73.0693 32.4844Z" fill="black"/>
<path d="M83.2822 31.8896C83.0635 31.8896 82.8926 31.8008 82.7695 31.623C82.6465 31.4316 82.585 31.2402 82.585 31.0488C82.585 30.8164 82.6328 30.6387 82.7285 30.5156C82.8242 30.3926 83.002 30.3174 83.2617 30.29C84.7656 30.1396 85.5176 29.7227 85.5176 29.0391V4.49121C85.5176 3.84863 85.4014 3.36328 85.1689 3.03516C84.9502 2.69336 84.6768 2.46777 84.3486 2.3584C84.0342 2.24902 83.6309 2.16016 83.1387 2.0918C82.7422 2.02344 82.5166 1.98242 82.4619 1.96875C82.2979 1.90039 82.1748 1.80469 82.0928 1.68164C82.0107 1.55859 81.9697 1.38086 81.9697 1.14844C81.9697 0.957031 82.0107 0.765625 82.0928 0.574219C82.1885 0.369141 82.3115 0.259766 82.4619 0.246094C84.417 0.123047 86.6455 0.0410156 89.1475 0H89.5576C89.708 0 89.8447 0.0615234 89.9678 0.18457C90.0908 0.307617 90.1592 0.519531 90.1729 0.820312V22.1689L97.6582 14.6221C97.8359 14.4854 97.9248 14.3555 97.9248 14.2324C97.9248 13.9727 97.6445 13.7676 97.084 13.6172C96.5371 13.4531 95.9355 13.3506 95.2793 13.3096C95.0332 13.2822 94.8623 13.1934 94.7666 13.043C94.6846 12.8789 94.6436 12.6738 94.6436 12.4277C94.6436 12.2363 94.7051 12.0381 94.8281 11.833C94.9648 11.6143 95.1357 11.5049 95.3408 11.5049H104.036C104.255 11.5049 104.426 11.6143 104.549 11.833C104.672 12.0381 104.733 12.2363 104.733 12.4277C104.733 12.6875 104.672 12.8994 104.549 13.0635C104.439 13.2275 104.275 13.3096 104.057 13.3096C103.441 13.3096 102.792 13.4736 102.108 13.8018C101.438 14.1162 100.81 14.5059 100.222 14.9707L96.4893 18.7852C97.3369 20.3574 98.3145 22.0732 99.4219 23.9326C100.529 25.792 101.568 27.3711 102.539 28.6699C102.881 29.1484 103.243 29.5381 103.626 29.8389C104.022 30.126 104.419 30.2764 104.815 30.29C105.062 30.3037 105.232 30.3652 105.328 30.4746C105.438 30.5703 105.492 30.7617 105.492 31.0488C105.492 31.2402 105.431 31.4316 105.308 31.623C105.185 31.8008 105.014 31.8896 104.795 31.8896H98.458C97.9932 31.2471 97.4395 30.3447 96.7969 29.1826C96.168 28.0068 95.2656 26.2842 94.0898 24.0146C93.8711 23.5771 93.6729 23.1943 93.4951 22.8662C93.3311 22.5381 93.1875 22.251 93.0645 22.0049L90.1729 24.8965V28.3623C90.1729 28.8818 90.2754 29.2783 90.4805 29.5518C90.6992 29.8252 90.9521 30.0098 91.2393 30.1055C91.5264 30.1875 91.9023 30.249 92.3672 30.29C92.668 30.3174 92.8662 30.3789 92.9619 30.4746C93.0576 30.5566 93.1055 30.748 93.1055 31.0488C93.1055 31.2402 93.0439 31.4316 92.9209 31.623C92.7979 31.8008 92.627 31.8896 92.4082 31.8896H83.2822Z" fill="black"/>
<path d="M107.235 31.8896C107.017 31.8896 106.846 31.8008 106.723 31.623C106.6 31.4316 106.538 31.2402 106.538 31.0488C106.538 30.8164 106.586 30.6387 106.682 30.5156C106.777 30.3926 106.955 30.3174 107.215 30.29C107.871 30.2217 108.432 30.0918 108.896 29.9004C109.361 29.709 109.594 29.4219 109.594 29.0391V4.49121C109.594 3.84863 109.478 3.36328 109.245 3.03516C109.026 2.69336 108.753 2.46777 108.425 2.3584C108.11 2.24902 107.707 2.16016 107.215 2.0918C106.818 2.02344 106.593 1.98242 106.538 1.96875C106.374 1.90039 106.251 1.80469 106.169 1.68164C106.087 1.55859 106.046 1.38086 106.046 1.14844C106.046 0.957031 106.087 0.765625 106.169 0.574219C106.265 0.369141 106.388 0.259766 106.538 0.246094C109.026 0.0820312 111.398 0 113.654 0C113.791 0 113.921 0.0615234 114.044 0.18457C114.167 0.307617 114.242 0.519531 114.27 0.820312V10.0078L114.105 14.5605C114.461 14.1914 115.028 13.7402 115.808 13.207C116.601 12.6602 117.523 12.1748 118.576 11.751C119.643 11.3135 120.709 11.0947 121.775 11.0947C123.539 11.0947 124.94 11.4707 125.979 12.2227C127.019 12.9746 127.538 14.3623 127.538 16.3857V28.3623C127.538 28.8682 127.654 29.2578 127.887 29.5312C128.119 29.791 128.393 29.9619 128.707 30.0439C129.021 30.126 129.418 30.1943 129.896 30.249C130.006 30.249 130.156 30.2627 130.348 30.29C130.594 30.3174 130.765 30.3857 130.86 30.4951C130.97 30.5908 131.024 30.7754 131.024 31.0488C131.024 31.2402 130.963 31.4316 130.84 31.623C130.717 31.8008 130.546 31.8896 130.327 31.8896H120.75C120.531 31.8896 120.36 31.8008 120.237 31.623C120.114 31.4316 120.053 31.2402 120.053 31.0488C120.053 30.8164 120.094 30.6387 120.176 30.5156C120.271 30.3789 120.442 30.3037 120.688 30.29C121.194 30.249 121.68 30.1191 122.145 29.9004C122.623 29.668 122.862 29.3809 122.862 29.0391V16.0986C122.862 14.5811 122.008 13.8223 120.299 13.8223C119.178 13.8223 118.05 14.0957 116.915 14.6426C115.794 15.1758 114.912 15.7568 114.27 16.3857V28.3623C114.27 28.8818 114.386 29.2783 114.618 29.5518C114.851 29.8252 115.117 30.0029 115.418 30.085C115.732 30.167 116.129 30.2354 116.607 30.29C116.908 30.3174 117.106 30.3789 117.202 30.4746C117.298 30.5566 117.346 30.748 117.346 31.0488C117.346 31.2266 117.277 31.4111 117.141 31.6025C117.018 31.7939 116.854 31.8896 116.648 31.8896H107.235Z" fill="black"/>
<path d="M133.137 21.7998C133.137 19.708 133.561 17.8555 134.408 16.2422C135.27 14.6152 136.493 13.3506 138.079 12.4482C139.679 11.5459 141.538 11.0947 143.657 11.0947C145.79 11.0947 147.629 11.5459 149.174 12.4482C150.732 13.3506 151.922 14.6084 152.742 16.2217C153.562 17.835 153.973 19.6943 153.973 21.7998C153.973 23.8916 153.549 25.7441 152.701 27.3574C151.867 28.9707 150.657 30.2285 149.071 31.1309C147.499 32.0332 145.646 32.4844 143.514 32.4844C141.395 32.4844 139.549 32.04 137.977 31.1514C136.418 30.249 135.222 28.9912 134.388 27.3779C133.554 25.751 133.137 23.8916 133.137 21.7998ZM138.469 21.7998C138.469 23.7275 138.619 25.3271 138.92 26.5986C139.234 27.8701 139.768 28.8477 140.52 29.5312C141.271 30.2012 142.29 30.5361 143.575 30.5361C144.86 30.5361 145.865 30.2012 146.59 29.5312C147.328 28.8477 147.848 27.877 148.148 26.6191C148.449 25.3477 148.6 23.7412 148.6 21.7998C148.6 19.8721 148.442 18.2725 148.128 17.001C147.813 15.7295 147.28 14.7588 146.528 14.0889C145.79 13.4053 144.778 13.0635 143.493 13.0635C142.208 13.0635 141.196 13.4053 140.458 14.0889C139.72 14.7588 139.2 15.7295 138.899 17.001C138.612 18.2588 138.469 19.8584 138.469 21.7998Z" fill="black"/>
<path d="M157.11 31.8896C156.892 31.8896 156.714 31.8076 156.577 31.6436C156.44 31.4658 156.372 31.2676 156.372 31.0488C156.372 30.8164 156.42 30.6387 156.516 30.5156C156.611 30.3926 156.789 30.3174 157.049 30.29C157.705 30.2217 158.266 30.0918 158.73 29.9004C159.195 29.709 159.428 29.4219 159.428 29.0391L159.448 4.51172C159.448 3.86914 159.318 3.38379 159.059 3.05566C158.799 2.71387 158.491 2.48828 158.136 2.37891C157.794 2.25586 157.356 2.16016 156.823 2.0918C156.741 2.07812 156.618 2.06445 156.454 2.05078C156.304 2.02344 156.181 1.99609 156.085 1.96875C155.921 1.90039 155.798 1.80469 155.716 1.68164C155.634 1.55859 155.593 1.38086 155.593 1.14844C155.593 0.957031 155.641 0.765625 155.736 0.574219C155.832 0.369141 155.948 0.259766 156.085 0.246094C157.999 0.123047 160.296 0.0410156 162.976 0H163.447C163.598 0 163.734 0.0615234 163.857 0.18457C163.98 0.307617 164.049 0.519531 164.062 0.820312V28.3623C164.062 28.8818 164.186 29.2783 164.432 29.5518C164.691 29.8252 164.985 30.0029 165.313 30.085C165.655 30.167 166.072 30.2354 166.564 30.29C166.852 30.3174 167.043 30.3789 167.139 30.4746C167.248 30.5703 167.303 30.748 167.303 31.0078C167.303 31.2402 167.228 31.4453 167.077 31.623C166.94 31.8008 166.756 31.8896 166.523 31.8896H157.11Z" fill="black"/>
<path d="M170.584 31.8896C170.365 31.8896 170.194 31.8008 170.071 31.623C169.948 31.4316 169.887 31.2402 169.887 31.0488C169.887 30.8164 169.935 30.6387 170.03 30.5156C170.126 30.3926 170.304 30.3174 170.563 30.29C172.108 30.126 172.881 29.709 172.881 29.0391V15.9346C172.881 15.292 172.765 14.8066 172.532 14.4785C172.3 14.1367 172.026 13.9111 171.712 13.8018C171.397 13.6924 170.987 13.5967 170.481 13.5146C170.099 13.4463 169.88 13.4053 169.825 13.3916C169.661 13.3232 169.538 13.2275 169.456 13.1045C169.374 12.9814 169.333 12.8037 169.333 12.5713C169.333 12.3799 169.374 12.1885 169.456 11.9971C169.552 11.792 169.675 11.6826 169.825 11.6689C172.587 11.5186 174.897 11.4434 176.757 11.4434C176.894 11.4434 177.023 11.5049 177.146 11.6279C177.27 11.751 177.345 11.9629 177.372 12.2637V14.5605C177.782 14.1504 178.35 13.6855 179.074 13.166C179.799 12.6465 180.674 12.1748 181.699 11.751C182.725 11.3135 183.777 11.0947 184.857 11.0947C186.252 11.0947 187.421 11.334 188.364 11.8125C189.308 12.291 189.943 13.1523 190.271 14.3965C191.105 13.6309 192.192 12.8926 193.532 12.1816C194.872 11.457 196.314 11.0947 197.859 11.0947C199.596 11.0947 200.963 11.4775 201.961 12.2432C202.973 13.0088 203.479 14.4375 203.479 16.5293V28.3623C203.479 28.8682 203.588 29.2578 203.807 29.5312C204.039 29.791 204.306 29.9688 204.606 30.0645C204.921 30.1465 205.317 30.208 205.796 30.249C205.892 30.249 206.035 30.2627 206.227 30.29C206.473 30.3174 206.644 30.3857 206.739 30.4951C206.849 30.5908 206.903 30.7754 206.903 31.0488C206.903 31.2402 206.842 31.4316 206.719 31.623C206.596 31.8008 206.425 31.8896 206.206 31.8896H196.69C196.472 31.8896 196.301 31.8008 196.178 31.623C196.055 31.4316 195.993 31.2402 195.993 31.0488C195.993 30.8164 196.034 30.6387 196.116 30.5156C196.212 30.3789 196.383 30.3037 196.629 30.29C197.135 30.249 197.613 30.1191 198.064 29.9004C198.516 29.668 198.741 29.3809 198.741 29.0391V16.1602C198.741 14.5469 197.88 13.7402 196.157 13.7402C194.284 13.7402 192.411 14.5469 190.538 16.1602V16.8574V28.3623C190.538 29.1006 190.716 29.5859 191.071 29.8184C191.44 30.0371 191.823 30.167 192.22 30.208C192.616 30.249 192.883 30.2764 193.02 30.29C193.266 30.3174 193.437 30.3857 193.532 30.4951C193.642 30.5908 193.696 30.7754 193.696 31.0488C193.696 31.2402 193.635 31.4316 193.512 31.623C193.389 31.8008 193.218 31.8896 192.999 31.8896H183.771C183.552 31.8896 183.381 31.8008 183.258 31.623C183.135 31.4316 183.073 31.2402 183.073 31.0488C183.073 30.8164 183.114 30.6387 183.196 30.5156C183.292 30.3789 183.463 30.3037 183.709 30.29C184.215 30.249 184.7 30.1191 185.165 29.9004C185.63 29.668 185.862 29.3809 185.862 29.0391V16.1602C185.862 15.5449 185.685 14.9912 185.329 14.499C184.987 13.9932 184.29 13.7402 183.237 13.7402C182.089 13.7402 181.057 13.9863 180.141 14.4785C179.225 14.9707 178.37 15.5791 177.577 16.3037V28.3623C177.577 28.8818 177.687 29.2783 177.905 29.5518C178.124 29.8252 178.377 30.0098 178.664 30.1055C178.965 30.1875 179.348 30.249 179.812 30.29C180.113 30.3174 180.312 30.3789 180.407 30.4746C180.503 30.5566 180.551 30.748 180.551 31.0488C180.551 31.2266 180.482 31.4111 180.346 31.6025C180.223 31.7939 180.059 31.8896 179.854 31.8896H170.584Z" fill="black"/>
<path d="M30.5156 80.8896C30.3105 80.8896 30.1396 80.7666 30.0029 80.5205C29.8799 80.2744 29.8184 80.0488 29.8184 79.8438C29.8184 79.6113 29.8662 79.4336 29.9619 79.3105C30.0576 79.1875 30.2354 79.1123 30.4951 79.085C31.2744 79.0303 31.9375 78.8936 32.4844 78.6748C33.0449 78.4424 33.3252 78.1211 33.3252 77.7109L33.3457 55.583C33.3457 55.0361 33.2021 54.626 32.915 54.3525C32.6279 54.0791 32.293 53.9014 31.9102 53.8193C31.5273 53.7236 31.0146 53.6484 30.3721 53.5938C30.0713 53.5664 29.873 53.5117 29.7773 53.4297C29.6816 53.334 29.6338 53.1357 29.6338 52.835C29.6338 52.6299 29.6953 52.4043 29.8184 52.1582C29.9551 51.9121 30.126 51.7891 30.3311 51.7891H42.0205C42.2256 51.7891 42.3896 51.9121 42.5127 52.1582C42.6494 52.4043 42.7178 52.6299 42.7178 52.835C42.7178 53.3408 42.4922 53.5938 42.041 53.5938C41.043 53.5938 40.1953 53.7441 39.498 54.0449C38.8008 54.332 38.4521 54.8242 38.4521 55.5215V77.2598C38.4521 77.875 38.6367 78.292 39.0059 78.5107C39.375 78.7158 39.8672 78.8184 40.4824 78.8184H46.2656C47.127 78.8184 47.9883 78.1143 48.8496 76.7061C49.7246 75.2842 50.4629 73.6709 51.0645 71.8662C51.1465 71.6338 51.3037 71.4629 51.5361 71.3535C51.7686 71.2441 52.0078 71.1895 52.2539 71.1895C52.5273 71.1895 52.7598 71.251 52.9512 71.374C53.1426 71.4971 53.2246 71.668 53.1973 71.8867L52.1309 80.8691L30.5156 80.8896Z" fill="black"/>
<path d="M56.1094 75.9062C56.1094 74.2246 56.7109 72.8779 57.9141 71.8662C59.1172 70.8545 60.5938 70.1162 62.3438 69.6514C64.1074 69.1865 66.124 68.8379 68.3936 68.6055V65.3857C68.3936 64.3604 68.0791 63.54 67.4502 62.9248C66.835 62.2959 65.8711 61.9814 64.5586 61.9814C63.5879 61.9814 62.8838 62.0977 62.4463 62.3301L59.7188 67.457C58.8438 67.457 58.1465 67.2451 57.627 66.8213C57.1211 66.3975 56.8682 65.7617 56.8682 64.9141C56.8682 64.0117 57.2715 63.1914 58.0781 62.4531C58.8848 61.7148 59.9443 61.1406 61.2568 60.7305C62.583 60.3066 63.9844 60.0947 65.4609 60.0947C68.3047 60.0947 70.3076 60.6826 71.4697 61.8584C72.6318 63.0205 73.2129 64.5449 73.2129 66.4316V76.7881C73.2129 77.335 73.2881 77.8203 73.4385 78.2441C73.5889 78.668 73.7734 78.8799 73.9922 78.8799C74.334 78.8799 74.7646 78.8115 75.2842 78.6748C75.5029 78.6338 75.6807 78.7295 75.8174 78.9619C75.9541 79.1807 76.0225 79.4131 76.0225 79.6592C76.0225 79.8232 75.9814 79.9395 75.8994 80.0078C75.4893 80.3086 74.874 80.6025 74.0537 80.8896C73.2334 81.1768 72.3857 81.3203 71.5107 81.3203C70.5537 81.3203 69.8564 81.1289 69.4189 80.7461C68.9814 80.3633 68.7627 79.7139 68.7627 78.7979V78.6338C67.874 79.5635 66.876 80.2471 65.7686 80.6846C64.6748 81.1221 63.4102 81.3408 61.9746 81.3408C61.0586 81.3408 60.1494 81.1562 59.2471 80.7871C58.3584 80.4043 57.6133 79.8027 57.0117 78.9824C56.4102 78.1621 56.1094 77.1367 56.1094 75.9062ZM61.2773 75.7832C61.2773 76.3301 61.3867 76.8359 61.6055 77.3008C61.8379 77.7656 62.1729 78.1416 62.6104 78.4287C63.0479 78.7021 63.5537 78.8389 64.1279 78.8389C65.085 78.8389 65.9258 78.6748 66.6504 78.3467C67.375 78.0049 67.9492 77.6016 68.373 77.1367V70.123C66.7871 70.3555 65.502 70.6426 64.5176 70.9844C63.5469 71.3262 62.7607 71.8799 62.1592 72.6455C61.5713 73.3975 61.2773 74.4434 61.2773 75.7832ZM65.0713 57.9209C63.9639 57.9209 62.9521 57.6953 62.0361 57.2441C61.1338 56.793 60.416 56.1572 59.8828 55.3369C59.3633 54.5029 59.1035 53.5391 59.1035 52.4453C59.1035 51.3652 59.3633 50.415 59.8828 49.5947C60.416 48.7607 61.1338 48.125 62.0361 47.6875C62.9521 47.2363 63.9639 47.0107 65.0713 47.0107C66.165 47.0107 67.1631 47.2432 68.0654 47.708C68.9814 48.1592 69.7061 48.8018 70.2393 49.6357C70.7725 50.4697 71.0391 51.4268 71.0391 52.5068C71.0391 53.6006 70.7725 54.5576 70.2393 55.3779C69.7061 56.1982 68.9883 56.8271 68.0859 57.2646C67.1836 57.7021 66.1787 57.9209 65.0713 57.9209ZM65.0713 55.4805C66.1377 55.4805 66.9307 55.2002 67.4502 54.6396C67.9697 54.0654 68.2295 53.3271 68.2295 52.4248C68.2295 51.5361 67.9697 50.8115 67.4502 50.251C66.9307 49.6904 66.1377 49.4102 65.0713 49.4102C64.0049 49.4102 63.2119 49.6973 62.6924 50.2715C62.1865 50.8457 61.9336 51.5771 61.9336 52.4658C61.9336 53.3682 62.1865 54.0996 62.6924 54.6602C63.2119 55.207 64.0049 55.4805 65.0713 55.4805Z" fill="black"/>
<path d="M86.1328 81.4844C85.2578 81.4844 84.5127 81.4023 83.8975 81.2383C83.2822 81.0879 82.7969 80.9443 82.4414 80.8076C82.0859 80.6709 81.8604 80.582 81.7646 80.541C81.3135 80.3906 80.9717 80.3154 80.7393 80.3154C80.5342 80.3154 80.3701 80.3496 80.2471 80.418C80.1377 80.4863 80.0693 80.5273 80.042 80.541C79.9189 80.623 79.8027 80.6846 79.6934 80.7256C79.5977 80.7666 79.4609 80.7871 79.2832 80.7871C79.0234 80.7871 78.8047 80.7324 78.627 80.623C78.4629 80.5 78.3809 80.3359 78.3809 80.1309C78.3809 79.6113 78.3398 78.5723 78.2578 77.0137C78.1758 75.5645 78.1348 74.6758 78.1348 74.3477C78.1348 74.0469 78.21 73.8281 78.3604 73.6914C78.5244 73.541 78.7227 73.4658 78.9551 73.4658C79.1328 73.4658 79.29 73.5068 79.4268 73.5889C79.5771 73.6709 79.6729 73.7803 79.7139 73.917C79.8506 74.4229 79.9873 74.8672 80.124 75.25C80.2744 75.6328 80.5479 76.207 80.9443 76.9727C81.3955 77.8203 82.0654 78.4971 82.9541 79.0029C83.8564 79.4951 84.834 79.7412 85.8867 79.7412C87.0898 79.7412 88.0605 79.502 88.7988 79.0234C89.5508 78.5449 89.9268 77.8682 89.9268 76.9932C89.9268 76.3096 89.7217 75.7285 89.3115 75.25C88.9014 74.7578 88.3613 74.334 87.6914 73.9785C87.0215 73.623 86.0508 73.1719 84.7793 72.625L84.2871 72.3994C83.207 71.9072 82.2842 71.3945 81.5186 70.8613C80.7529 70.3145 80.1172 69.6309 79.6113 68.8105C79.1191 67.9766 78.873 66.9854 78.873 65.8369C78.873 64.6748 79.2285 63.6631 79.9395 62.8018C80.6504 61.9268 81.5732 61.2568 82.708 60.792C83.8564 60.3271 85.0459 60.0947 86.2764 60.0947C87.0283 60.0947 87.6709 60.1562 88.2041 60.2793C88.751 60.3887 89.3047 60.5459 89.8652 60.751C90.3164 60.915 90.6172 60.9971 90.7676 60.9971C90.9727 60.9971 91.1094 60.9629 91.1777 60.8945C91.2598 60.8125 91.3213 60.7168 91.3623 60.6074C91.4033 60.4844 91.4443 60.3887 91.4854 60.3203C91.5674 60.1836 91.6768 60.0811 91.8135 60.0127C91.9502 59.9307 92.0938 59.8896 92.2441 59.8896C92.4766 59.8896 92.6748 59.958 92.8389 60.0947C93.0029 60.2178 93.085 60.3887 93.085 60.6074C93.085 60.7715 93.0781 60.9287 93.0645 61.0791C93.0371 61.7627 93.0234 62.501 93.0234 63.2939C93.0234 63.8271 93.0508 64.3945 93.1055 64.9961C93.1328 65.3789 93.1465 65.6182 93.1465 65.7139C93.1465 66.0146 93.0713 66.2402 92.9209 66.3906C92.7842 66.5273 92.6133 66.5957 92.4082 66.5957C92.2441 66.5957 92.0869 66.5615 91.9365 66.4932C91.7998 66.4248 91.7178 66.3428 91.6904 66.2471C91.3623 65.4131 91.0205 64.7021 90.665 64.1143C90.3232 63.5264 89.7969 63.0068 89.0859 62.5557C88.3887 62.0908 87.4932 61.8584 86.3994 61.8584C85.4014 61.8584 84.6016 62.084 84 62.5352C83.3984 62.9727 83.0977 63.6016 83.0977 64.4219C83.0977 65.0234 83.2891 65.5566 83.6719 66.0215C84.0684 66.4863 84.6016 66.9102 85.2715 67.293C85.9414 67.6758 86.8164 68.0996 87.8965 68.5645C89.2773 69.1523 90.4258 69.7197 91.3418 70.2666C92.2715 70.8135 93.0303 71.4834 93.6182 72.2764C94.2197 73.0693 94.5205 74.0127 94.5205 75.1064C94.5205 76.4053 94.1924 77.54 93.5361 78.5107C92.8799 79.4678 91.9229 80.2061 90.665 80.7256C89.4072 81.2314 87.8965 81.4844 86.1328 81.4844Z" fill="black"/>
<path d="M98.1709 90.0977C97.2412 90.0977 96.4688 89.9404 95.8535 89.626C95.2246 89.3115 94.7598 88.9014 94.459 88.3955C94.1582 87.9033 94.0078 87.3906 94.0078 86.8574C94.0078 86.3789 94.1309 85.9482 94.377 85.5654C94.6094 85.1963 94.9102 84.9092 95.2793 84.7041C95.6484 84.499 96.0039 84.3965 96.3457 84.3965C96.6602 84.3965 96.9062 84.5059 97.084 84.7246C97.2754 84.9434 97.5557 85.415 97.9248 86.1396C98.2939 86.8779 98.6221 87.5 98.9092 88.0059C99.5381 87.9785 99.9824 87.4453 100.242 86.4062C100.502 85.3809 100.632 83.7471 100.632 81.5049L100.652 64.9346C100.652 64.292 100.529 63.8066 100.283 63.4785C100.037 63.1367 99.7432 62.9111 99.4014 62.8018C99.0732 62.6924 98.6426 62.5967 98.1094 62.5146C97.6855 62.4463 97.4463 62.4053 97.3916 62.3916C97.2275 62.3232 97.1045 62.2275 97.0225 62.1045C96.9404 61.9814 96.8994 61.8037 96.8994 61.5713C96.8994 61.3799 96.9404 61.1885 97.0225 60.9971C97.1182 60.792 97.2412 60.6826 97.3916 60.6689C99.9209 60.5186 102.368 60.4434 104.733 60.4434C104.884 60.4434 105.021 60.5049 105.144 60.6279C105.267 60.751 105.335 60.9629 105.349 61.2637L105.328 80.0693C105.328 83.1045 104.795 85.5312 103.729 87.3496C102.676 89.1816 100.823 90.0977 98.1709 90.0977ZM102.457 56.8545C101.596 56.8545 100.892 56.5537 100.345 55.9521C99.7979 55.3506 99.5244 54.5986 99.5244 53.6963C99.5244 52.7939 99.7979 52.042 100.345 51.4404C100.892 50.8389 101.596 50.5381 102.457 50.5381C103.305 50.5381 104.002 50.8389 104.549 51.4404C105.109 52.042 105.39 52.7939 105.39 53.6963C105.39 54.5986 105.109 55.3506 104.549 55.9521C104.002 56.5537 103.305 56.8545 102.457 56.8545Z" fill="black"/>
<path d="M110.496 70.7998C110.496 68.708 110.92 66.8555 111.768 65.2422C112.629 63.6152 113.853 62.3506 115.438 61.4482C117.038 60.5459 118.897 60.0947 121.017 60.0947C123.149 60.0947 124.988 60.5459 126.533 61.4482C128.092 62.3506 129.281 63.6084 130.102 65.2217C130.922 66.835 131.332 68.6943 131.332 70.7998C131.332 72.8916 130.908 74.7441 130.061 76.3574C129.227 77.9707 128.017 79.2285 126.431 80.1309C124.858 81.0332 123.006 81.4844 120.873 81.4844C118.754 81.4844 116.908 81.04 115.336 80.1514C113.777 79.249 112.581 77.9912 111.747 76.3779C110.913 74.751 110.496 72.8916 110.496 70.7998ZM115.828 70.7998C115.828 72.7275 115.979 74.3271 116.279 75.5986C116.594 76.8701 117.127 77.8477 117.879 78.5312C118.631 79.2012 119.649 79.5361 120.935 79.5361C122.22 79.5361 123.225 79.2012 123.949 78.5312C124.688 77.8477 125.207 76.877 125.508 75.6191C125.809 74.3477 125.959 72.7412 125.959 70.7998C125.959 68.8721 125.802 67.2725 125.487 66.001C125.173 64.7295 124.64 63.7588 123.888 63.0889C123.149 62.4053 122.138 62.0635 120.853 62.0635C119.567 62.0635 118.556 62.4053 117.817 63.0889C117.079 63.7588 116.56 64.7295 116.259 66.001C115.972 67.2588 115.828 68.8584 115.828 70.7998Z" fill="black"/>
<path d="M143.206 81.4434C141.292 81.4434 139.774 81.0127 138.653 80.1514C137.546 79.29 136.992 77.6904 136.992 75.3525V64.0938C136.992 63.5469 136.876 63.1367 136.644 62.8633C136.411 62.5898 136.138 62.4121 135.823 62.3301C135.509 62.2344 135.112 62.1592 134.634 62.1045C134.333 62.0771 134.135 62.0225 134.039 61.9404C133.943 61.8447 133.896 61.6465 133.896 61.3457C133.896 61.168 133.957 60.9834 134.08 60.792C134.217 60.6006 134.388 60.5049 134.593 60.5049H140.971C141.477 60.5049 141.729 60.751 141.729 61.2432V74.8604C141.729 77.2666 142.57 78.4697 144.252 78.4697C145.51 78.4697 146.562 78.292 147.41 77.9365C148.271 77.5674 149.051 77.0068 149.748 76.2549V64.0938C149.748 63.5469 149.598 63.1367 149.297 62.8633C149.01 62.5898 148.668 62.4121 148.271 62.3301C147.889 62.2344 147.369 62.1592 146.713 62.1045C146.412 62.0771 146.214 62.0225 146.118 61.9404C146.022 61.8447 145.975 61.6465 145.975 61.3457C145.975 61.1543 146.036 60.9697 146.159 60.792C146.282 60.6006 146.453 60.5049 146.672 60.5049H153.706C154.212 60.5049 154.465 60.751 154.465 61.2432V76.501C154.465 77.4033 154.54 78.0254 154.69 78.3672C154.854 78.709 155.066 78.8799 155.326 78.8799C155.709 78.8799 156.037 78.8252 156.311 78.7158C156.529 78.6338 156.721 78.7227 156.885 78.9824C157.049 79.2422 157.131 79.5156 157.131 79.8027C157.131 79.9531 157.09 80.0625 157.008 80.1309C156.721 80.4043 156.174 80.6846 155.367 80.9717C154.561 81.2588 153.583 81.4023 152.435 81.4023C151.573 81.4023 150.944 81.1152 150.548 80.541C150.165 79.9531 149.939 79.1396 149.871 78.1006C149.557 78.6201 149.044 79.1396 148.333 79.6592C147.622 80.165 146.809 80.5889 145.893 80.9307C144.99 81.2725 144.095 81.4434 143.206 81.4434Z" fill="black"/>
<path d="M160.822 80.8896C160.604 80.8896 160.433 80.8008 160.31 80.623C160.187 80.4316 160.125 80.2402 160.125 80.0488C160.125 79.8164 160.173 79.6387 160.269 79.5156C160.364 79.3926 160.542 79.3174 160.802 79.29C162.388 79.1396 163.181 78.7227 163.181 78.0391V64.9346C163.181 64.292 163.064 63.7998 162.832 63.458C162.6 63.1162 162.326 62.8906 162.012 62.7812C161.697 62.6719 161.287 62.5762 160.781 62.4941C160.713 62.4805 160.61 62.4668 160.474 62.4531C160.337 62.4258 160.221 62.3984 160.125 62.3711C159.961 62.3027 159.838 62.207 159.756 62.084C159.674 61.9609 159.633 61.7832 159.633 61.5508C159.633 61.3594 159.681 61.168 159.776 60.9766C159.872 60.7715 159.988 60.6621 160.125 60.6484C162.121 60.5391 164.274 60.4707 166.585 60.4434H167.057C167.193 60.4434 167.323 60.5049 167.446 60.6279C167.569 60.751 167.645 60.9629 167.672 61.2637V64.5449C168.396 63.2598 169.251 62.2002 170.235 61.3662C171.233 60.5186 172.361 60.0947 173.619 60.0947C175.752 60.0947 176.818 61.1543 176.818 63.2734C176.818 63.8066 176.661 64.292 176.347 64.7295C176.046 65.1533 175.677 65.4883 175.239 65.7344C174.815 65.9668 174.426 66.083 174.07 66.083L171.773 63.1299C171.062 63.1299 170.338 63.5127 169.6 64.2783C168.861 65.0303 168.294 65.9121 167.897 66.9238V77.3623C167.897 77.8818 168.075 78.2783 168.431 78.5518C168.786 78.8115 169.189 78.9824 169.641 79.0645C170.105 79.1465 170.721 79.2217 171.486 79.29C171.787 79.3174 171.985 79.3789 172.081 79.4746C172.177 79.5566 172.225 79.748 172.225 80.0488C172.225 80.2402 172.163 80.4316 172.04 80.623C171.917 80.8008 171.746 80.8896 171.527 80.8896H160.822Z" fill="black"/>
</svg>
