<svg width="183" height="72" viewBox="0 0 183 72" fill="none" xmlns="http://www.w3.org/2000/svg">
<path d="M1.02997 40.3158C0.790445 40.3158 0.590838 40.1721 0.431152 39.8847C0.287435 39.5972 0.215576 39.3337 0.215576 39.0942C0.215576 38.8227 0.271466 38.6151 0.383246 38.4713C0.495026 38.3276 0.702618 38.2398 1.00602 38.2078C3.96021 37.9843 5.4373 37.3135 5.4373 36.1956V12.0492C5.4373 11.4104 5.17382 10.8275 4.64686 10.3005C4.11989 9.77354 3.48914 9.35034 2.75458 9.03094C2.03599 8.69558 1.40524 8.49595 0.862304 8.43207C0.510995 8.40013 0.27945 8.33625 0.16767 8.24043C0.05589 8.12865 0 7.89708 0 7.54575C0 7.3062 0.0718586 7.0427 0.215576 6.75524C0.375262 6.46778 0.574869 6.32405 0.814398 6.32405H12.5034L31.9052 29.129H32.1927V10.7557C32.1927 10.1329 31.9531 9.66175 31.4741 9.34235C30.995 9.02296 30.524 8.82333 30.0609 8.74348C29.6137 8.64767 28.8712 8.54386 27.8332 8.43207C27.4819 8.40013 27.2504 8.33625 27.1386 8.24043C27.0268 8.12865 26.9709 7.89708 26.9709 7.54575C26.9709 7.3062 27.0428 7.0427 27.1865 6.75524C27.3462 6.46778 27.5458 6.32405 27.7853 6.32405H39.163C39.4025 6.32405 39.5941 6.46778 39.7378 6.75524C39.8975 7.0427 39.9774 7.3062 39.9774 7.54575C39.9774 7.81723 39.9215 8.02484 39.8097 8.16857C39.6979 8.3123 39.4903 8.40013 39.1869 8.43207C36.3924 8.75147 34.9952 9.48608 34.9952 10.6359V37.609C34.9952 37.8964 35.0191 38.1998 35.067 38.5192L35.1389 39.3577C35.1868 39.9166 34.9153 40.3318 34.3245 40.6033C33.7496 40.8908 33.1428 41.0345 32.5041 41.0345C32.2645 41.0345 32.017 40.9786 31.7615 40.8668C31.522 40.771 31.3383 40.6512 31.2106 40.5075L8.88652 14.2052H8.47932V35.8842C8.47932 36.4432 8.70288 36.8823 9.15 37.2017C9.61309 37.5211 10.1321 37.7447 10.7069 37.8725C11.2978 37.9843 12.0004 38.0801 12.8148 38.1599L13.3178 38.2078C13.6691 38.2398 13.9007 38.3116 14.0124 38.4234C14.1242 38.5192 14.1801 38.7428 14.1801 39.0942C14.1801 39.3337 14.1003 39.5972 13.9406 39.8847C13.7969 40.1721 13.6052 40.3158 13.3657 40.3158H1.02997Z" fill="#003594"/>
<path d="M46.8039 51.0715C46.0374 51.0715 45.263 50.8879 44.4805 50.5206C43.698 50.1533 43.0433 49.6582 42.5164 49.0354C42.0054 48.4126 41.7499 47.7338 41.7499 46.9992C41.7499 46.1209 41.9894 45.4102 42.4685 44.8673C42.9635 44.3243 43.6182 44.0528 44.4326 44.0528L47.1153 47.095C47.9776 47.095 48.7281 46.8795 49.3669 46.4483C50.0216 46.0171 50.6124 45.4102 51.1394 44.6277C51.6823 43.8612 52.369 42.7353 53.1993 41.2501L43.3547 20.4574C42.9874 19.6908 42.5802 19.1718 42.1331 18.9003C41.686 18.6128 41.1191 18.4372 40.4325 18.3733C40.0812 18.3414 39.8496 18.2775 39.7378 18.1817C39.626 18.0699 39.5702 17.8383 39.5702 17.487C39.5702 17.2634 39.642 17.0478 39.7857 16.8402C39.9294 16.6166 40.1211 16.5048 40.3606 16.5048H53.9419C54.1974 16.5048 54.397 16.6166 54.5407 16.8402C54.6844 17.0478 54.7563 17.2634 54.7563 17.487C54.7563 17.7585 54.7004 17.9661 54.5886 18.1098C54.4768 18.2535 54.2692 18.3414 53.9658 18.3733C53.1834 18.4691 52.5526 18.5889 52.0736 18.7326C51.6105 18.8604 51.3789 19.084 51.3789 19.4033L56.912 33.5606L61.8703 19.4273C61.8703 19.0919 61.6228 18.8604 61.1277 18.7326C60.6487 18.5889 59.994 18.4691 59.1636 18.3733C58.8602 18.3414 58.6526 18.2535 58.5408 18.1098C58.4291 17.9661 58.3732 17.7585 58.3732 17.487C58.3732 17.2634 58.445 17.0478 58.5887 16.8402C58.7325 16.6166 58.9321 16.5048 59.1876 16.5048H67.6908C67.9304 16.5048 68.122 16.6166 68.2657 16.8402C68.4254 17.0638 68.5052 17.2794 68.5052 17.487C68.5052 17.8383 68.4493 18.0699 68.3376 18.1817C68.2258 18.2775 67.9942 18.3414 67.6429 18.3733C66.9722 18.4372 66.4373 18.6049 66.0381 18.8763C65.6548 19.1478 65.2955 19.6748 64.9602 20.4574L58.2774 36.5789L57.942 37.3934C56.5847 40.6512 55.4509 43.1665 54.5407 44.9391C53.6305 46.7118 52.5446 48.173 51.2831 49.3228C50.0216 50.4886 48.5285 51.0715 46.8039 51.0715Z" fill="#003594"/>
<path d="M69.7747 40.3158C69.5192 40.3158 69.3196 40.212 69.1759 40.0044C69.0322 39.7809 68.9603 39.5573 68.9603 39.3337C68.9603 39.0622 69.0162 38.8546 69.128 38.7109C69.2558 38.5512 69.4633 38.4633 69.7508 38.4474C70.5013 38.3835 71.148 38.2557 71.691 38.0641C72.2339 37.8565 72.5054 37.5531 72.5054 37.1538L72.5293 8.50394C72.5293 7.75336 72.3776 7.18643 72.0742 6.80315C71.7708 6.41987 71.4115 6.16436 70.9963 6.0366C70.5811 5.90884 70.0462 5.80504 69.3915 5.72519C68.8486 5.64534 68.5452 5.59743 68.4813 5.58146C68.2897 5.50161 68.1459 5.38982 68.0501 5.24609C67.9543 5.10236 67.9064 4.89475 67.9064 4.62327C67.9064 4.39969 67.9623 4.17611 68.0741 3.95253C68.1859 3.71299 68.3216 3.58523 68.4813 3.56926C71.9305 3.34568 75.4835 3.23389 79.1403 3.23389C79.316 3.23389 79.4756 3.31374 79.6194 3.47344C79.7791 3.61717 79.8589 3.85672 79.8589 4.19208V36.3633C79.8589 36.9223 80.0026 37.3534 80.29 37.6569C80.5935 37.9443 80.9368 38.136 81.32 38.2318C81.7033 38.3116 82.1903 38.3835 82.7811 38.4474C83.1325 38.4793 83.364 38.5512 83.4758 38.663C83.5876 38.7588 83.6434 38.9824 83.6434 39.3337C83.6434 39.5573 83.5716 39.7809 83.4279 40.0044C83.2842 40.212 83.0845 40.3158 82.8291 40.3158H69.7747Z" fill="#003594"/>
<path d="M87.0687 34.5188C87.0687 32.5545 87.8192 30.9815 89.3203 29.7997C90.8373 28.6179 92.6737 27.7636 94.8294 27.2366C97.0012 26.6936 99.4523 26.2784 102.183 25.9909V22.0384C102.183 20.6171 101.88 19.6429 101.273 19.1159C100.682 18.5729 99.7957 18.3014 98.614 18.3014C97.2407 18.3014 96.3305 18.4372 95.8834 18.7087L92.0749 25.1046C90.9411 25.1046 90.0069 24.7932 89.2724 24.1703C88.5538 23.5316 88.1945 22.7171 88.1945 21.727C88.1945 20.4494 88.8013 19.3874 90.0149 18.541C91.2445 17.6786 92.7376 17.0478 94.4941 16.6486C96.2666 16.2333 97.9832 16.0257 99.644 16.0257C102.007 16.0257 103.963 16.3132 105.512 16.8881C107.061 17.447 108.203 18.2296 108.938 19.2357C109.672 20.2258 110.04 21.3756 110.04 22.6852V35.5728C110.04 36.1956 110.127 36.7226 110.303 37.1538C110.479 37.569 110.694 37.7766 110.95 37.7766C111.141 37.7766 111.58 37.7048 112.267 37.5611L112.89 37.4652C113.145 37.4652 113.329 37.609 113.441 37.8964C113.553 38.1679 113.608 38.4793 113.608 38.8307C113.608 39.0383 113.561 39.182 113.465 39.2618C113.209 39.4375 112.746 39.6531 112.076 39.9086C111.421 40.1641 110.582 40.3957 109.56 40.6033C108.554 40.8109 107.461 40.9147 106.279 40.9147C105.081 40.9147 104.211 40.7071 103.668 40.2919C103.125 39.8767 102.814 39.4774 102.734 39.0942C102.67 38.7109 102.638 38.2478 102.638 37.7048V37.6329C101.616 38.7029 100.379 39.5174 98.9254 40.0763C97.4882 40.6193 95.9153 40.8908 94.2067 40.8908C93.1368 40.8908 92.0509 40.6672 90.9491 40.22C89.8472 39.7729 88.9211 39.0702 88.1705 38.112C87.436 37.1538 87.0687 35.9561 87.0687 34.5188ZM95.1887 34.2793C95.1887 35.1416 95.4602 35.8842 96.0031 36.507C96.562 37.1299 97.3365 37.4413 98.3266 37.4413C99.9075 37.4413 101.193 36.8344 102.183 35.6207V27.9073C100.826 28.1149 99.652 28.4024 98.6619 28.7697C97.6878 29.137 96.8654 29.7598 96.1948 30.6381C95.5241 31.5165 95.1887 32.7302 95.1887 34.2793ZM99.3326 13.5823C97.9593 13.5823 96.7057 13.3029 95.572 12.7439C94.4382 12.185 93.544 11.3945 92.8893 10.3724C92.2346 9.33437 91.9072 8.13663 91.9072 6.77919C91.9072 5.42176 92.2346 4.23201 92.8893 3.20994C93.544 2.18787 94.4382 1.39736 95.572 0.838416C96.7057 0.279472 97.9593 0 99.3326 0C100.69 0 101.935 0.295442 103.069 0.886326C104.203 1.46124 105.097 2.26772 105.752 3.30576C106.423 4.3438 106.758 5.52556 106.758 6.85106C106.758 8.2085 106.423 9.39825 105.752 10.4203C105.097 11.4264 104.203 12.2089 103.069 12.7679C101.951 13.3109 100.706 13.5823 99.3326 13.5823ZM99.3326 10.085C100.498 10.085 101.361 9.77354 101.919 9.15072C102.478 8.52789 102.758 7.7294 102.758 6.75524C102.758 5.78108 102.478 4.99057 101.919 4.38372C101.361 3.77687 100.498 3.47344 99.3326 3.47344C98.1669 3.47344 97.3046 3.78485 96.7457 4.40767C96.2027 5.0305 95.9313 5.82899 95.9313 6.80315C95.9313 7.77731 96.2027 8.56782 96.7457 9.17467C97.3046 9.78152 98.1669 10.085 99.3326 10.085Z" fill="#003594"/>
<path d="M126.375 41.0345C125.21 41.0345 124.124 40.8828 123.118 40.5793C122.112 40.2759 121.257 39.9485 120.555 39.5972C120.299 39.4694 120.052 39.4056 119.812 39.4056C119.525 39.4056 119.309 39.4455 119.166 39.5253C119.022 39.6052 118.878 39.7329 118.734 39.9086C118.575 40.1003 118.415 40.236 118.255 40.3158C118.096 40.4117 117.856 40.4596 117.537 40.4596C117.217 40.4596 116.93 40.3957 116.674 40.2679C116.435 40.1242 116.315 39.9485 116.315 39.7409L116.219 37.0101C116.14 34.1355 116.1 32.6344 116.1 32.5066C116.1 32.1553 116.219 31.8997 116.459 31.74C116.714 31.5644 117.01 31.4765 117.345 31.4765C117.617 31.4765 117.856 31.5245 118.064 31.6203C118.271 31.7161 118.399 31.8439 118.447 32.0036C118.718 32.9617 119.126 34.0078 119.669 35.1416C119.94 35.7006 120.347 36.2755 120.89 36.8664C121.433 37.4413 122.144 37.9443 123.022 38.3755C123.916 38.7907 124.938 38.9983 126.088 38.9983C127.429 38.9983 128.475 38.7668 129.226 38.3036C129.992 37.8405 130.376 37.1618 130.376 36.2675C130.376 35.5329 130.16 34.8941 129.729 34.3511C129.314 33.7922 128.595 33.2492 127.573 32.7222C126.567 32.1952 125.146 31.6043 123.309 30.9495C121.441 30.2948 119.852 29.3605 118.543 28.1468C117.249 26.9331 116.603 25.3761 116.603 23.4757C116.603 22.1023 117.042 20.8486 117.92 19.7148C118.814 18.5649 120.036 17.6626 121.585 17.0079C123.15 16.3531 124.882 16.0257 126.783 16.0257C127.677 16.0257 128.483 16.1215 129.202 16.3132C129.92 16.4889 130.663 16.7204 131.429 17.0079C131.541 17.0398 131.717 17.1037 131.956 17.1995C132.212 17.2794 132.396 17.3193 132.507 17.3193C132.747 17.3193 132.907 17.2794 132.986 17.1995C133.082 17.1037 133.154 16.9919 133.202 16.8641C133.25 16.7204 133.298 16.6086 133.346 16.5288C133.441 16.3691 133.593 16.2493 133.801 16.1695C134.024 16.0736 134.264 16.0257 134.519 16.0257C134.887 16.0257 135.206 16.1056 135.477 16.2653C135.749 16.409 135.885 16.6086 135.885 16.8641C135.885 17.0558 135.877 17.2394 135.861 17.4151C135.829 18.2455 135.813 19.1478 135.813 20.122C135.813 20.633 135.837 21.1201 135.885 21.5832C135.917 22.1581 135.933 22.5494 135.933 22.757C135.933 23.2042 135.813 23.5395 135.573 23.7631C135.334 23.9707 135.03 24.0745 134.663 24.0745C134.408 24.0745 134.176 24.0346 133.968 23.9548C133.777 23.8589 133.657 23.7392 133.609 23.5954C133.29 22.6372 132.907 21.7749 132.459 21.0083C132.028 20.2258 131.366 19.5471 130.471 18.9722C129.593 18.3813 128.459 18.0858 127.07 18.0858C126.128 18.0858 125.298 18.2934 124.579 18.7087C123.876 19.1239 123.525 19.7946 123.525 20.7209C123.525 21.4395 123.717 22.0623 124.1 22.5893C124.483 23.1163 125.058 23.5874 125.824 24.0027C126.607 24.4179 127.645 24.8411 128.938 25.2723C131.637 26.1666 133.777 27.2525 135.358 28.5301C136.955 29.7917 137.753 31.4925 137.753 33.6325C137.753 36.0439 136.779 37.8804 134.831 39.1421C132.883 40.4037 130.064 41.0345 126.375 41.0345Z" fill="#003594"/>
<rect x="143.143" y="33.1611" width="39.8576" height="34.7504" fill="#003594"/>
<rect x="118.614" y="45.4263" width="20.4398" height="11.2428" fill="#003594"/>
<rect x="103.285" y="45.4263" width="11.2419" height="26.5738" fill="#003594"/>
<rect x="87.9551" y="45.4263" width="11.2419" height="26.5738" fill="#003594"/>
<rect x="68.5371" y="45.4263" width="15.3298" height="11.2428" fill="#003594"/>
</svg>
