<svg xmlns="http://www.w3.org/2000/svg" xmlns:xlink="http://www.w3.org/1999/xlink" width="40" zoomAndPan="magnify" viewBox="0 0 30 30.000001" height="40" preserveAspectRatio="xMidYMid meet" version="1.0"><defs><clipPath id="0ecc7694d6"><path d="M 10 3.808594 L 20 3.808594 L 20 13 L 10 13 Z M 10 3.808594 " clip-rule="nonzero"/></clipPath><clipPath id="f06fb4054f"><path d="M 4.292969 10 L 14 10 L 14 20 L 4.292969 20 Z M 4.292969 10 " clip-rule="nonzero"/></clipPath><clipPath id="b02b24296a"><path d="M 10 16 L 20 16 L 20 25.585938 L 10 25.585938 Z M 10 16 " clip-rule="nonzero"/></clipPath></defs><g clip-path="url(#0ecc7694d6)"><path fill="#003594" d="M 14.449219 12.574219 C 14.867188 12.992188 15.527344 12.992188 15.910156 12.574219 L 19.355469 9.132812 C 19.773438 8.714844 19.773438 8.054688 19.355469 7.671875 L 15.910156 4.226562 C 15.496094 3.808594 14.832031 3.808594 14.449219 4.226562 L 11.007812 7.671875 C 10.589844 8.089844 10.589844 8.75 11.007812 9.132812 Z M 14.449219 12.574219 " fill-opacity="1" fill-rule="nonzero"/></g><path fill="#003594" d="M 25.652344 13.96875 L 22.207031 10.523438 C 21.789062 10.105469 21.128906 10.105469 20.746094 10.523438 L 17.304688 13.96875 C 16.886719 14.382812 16.886719 15.046875 17.304688 15.429688 L 20.746094 18.871094 C 21.164062 19.289062 21.824219 19.289062 22.207031 18.871094 L 25.652344 15.429688 C 26.070312 15.046875 26.070312 14.351562 25.652344 13.96875 Z M 25.652344 13.96875 " fill-opacity="1" fill-rule="nonzero"/><g clip-path="url(#f06fb4054f)"><path fill="#003594" d="M 13.058594 13.96875 L 9.617188 10.523438 C 9.199219 10.105469 8.539062 10.105469 8.15625 10.523438 L 4.710938 13.96875 C 4.292969 14.382812 4.292969 15.046875 4.710938 15.429688 L 8.15625 18.871094 C 8.574219 19.289062 9.234375 19.289062 9.617188 18.871094 L 13.058594 15.429688 C 13.476562 15.046875 13.476562 14.351562 13.058594 13.96875 Z M 13.058594 13.96875 " fill-opacity="1" fill-rule="nonzero"/></g><g clip-path="url(#b02b24296a)"><path fill="#003594" d="M 15.910156 16.820312 C 15.496094 16.402344 14.832031 16.402344 14.449219 16.820312 L 11.007812 20.261719 C 10.589844 20.679688 10.589844 21.339844 11.007812 21.722656 L 14.449219 25.167969 C 14.867188 25.585938 15.527344 25.585938 15.910156 25.167969 L 19.355469 21.722656 C 19.773438 21.304688 19.773438 20.644531 19.355469 20.261719 Z M 15.910156 16.820312 " fill-opacity="1" fill-rule="nonzero"/></g></svg>