<svg width="196" height="178" viewBox="0 0 196 178" fill="none" xmlns="http://www.w3.org/2000/svg">
<mask id="mask0_472_512" style="mask-type:luminance" maskUnits="userSpaceOnUse" x="0" y="0" width="196" height="178">
<path d="M0 0H195.36V177.6H0V0Z" fill="white"/>
</mask>
<g mask="url(#mask0_472_512)">
<path d="M195.35 43.7743C195.35 26.7029 181.372 12.8176 164.188 12.8176C156.171 12.8176 148.863 15.8393 143.334 20.7829L88.4094 0.299258C87.7517 0.0525911 87.0322 0.0525911 86.3744 0.299258L1.87056 31.8212C0.750278 32.2426 0 33.3115 0 34.5037V143.171C0 144.363 0.750278 145.432 1.87056 145.853L86.3744 177.375C86.7033 177.498 87.0528 177.55 87.3919 177.55C87.7311 177.55 88.0703 177.488 88.3889 177.365C88.3992 177.365 88.3992 177.375 88.4094 177.375L172.913 145.853C174.034 145.432 174.784 144.363 174.784 143.171V72.8912C186.768 68.5745 195.35 57.1559 195.35 43.7743ZM87.3919 6.05481L106.694 13.2493L38.7267 44.802L11.1103 34.5037L87.3919 6.05481ZM84.5039 170.54L5.77611 141.177V38.6456L35.2014 49.6223V72.9426C35.2014 74.1245 35.9311 75.1831 37.0411 75.6148L52.1083 81.4423C52.4475 81.5759 52.8072 81.6376 53.1567 81.6376C53.7322 81.6376 54.2975 81.4731 54.7908 81.134C55.5719 80.5995 56.0447 79.7156 56.0447 78.7701V57.3923L84.5039 68.0093V170.54ZM87.3919 62.9526L61.5639 53.3223L129.531 21.7695L139.151 25.3565C135.307 30.5056 133.025 36.8779 133.025 43.7743C133.025 44.4937 133.056 45.2029 133.108 45.9018L87.3919 62.9526ZM169.008 141.177L90.28 170.54V68.0093L134.053 51.6779C137.578 64.9362 149.747 74.7412 164.188 74.7412C165.822 74.7412 167.435 74.6076 169.008 74.3712V141.177ZM164.188 68.9959C150.189 68.9959 138.801 57.6801 138.801 43.7743C138.801 29.8684 150.189 18.5526 164.188 18.5526C178.186 18.5526 189.574 29.8684 189.574 43.7743C189.574 57.6801 178.186 68.9959 164.188 68.9959Z" fill="#0047C7"/>
</g>
</svg>
