<svg xmlns="http://www.w3.org/2000/svg" xmlns:xlink="http://www.w3.org/1999/xlink" width="75" zoomAndPan="magnify" viewBox="0 0 56.25 56.249997" height="75" preserveAspectRatio="xMidYMid meet" version="1.0"><defs><clipPath id="16ef4d997b"><path d="M 2 2 L 53.738281 2 L 53.738281 53.738281 L 2 53.738281 Z M 2 2 " clip-rule="nonzero"/></clipPath></defs><g clip-path="url(#16ef4d997b)"><path fill="#000000" d="M 52.253906 46.925781 C 53.722656 48.398438 53.722656 50.78125 52.253906 52.253906 C 50.78125 53.722656 48.398438 53.722656 46.925781 52.253906 L 27.820312 33.144531 L 8.710938 52.253906 C 7.242188 53.722656 4.855469 53.722656 3.386719 52.253906 C 1.917969 50.78125 1.917969 48.398438 3.386719 46.925781 L 22.496094 27.820312 L 3.386719 8.710938 C 1.917969 7.242188 1.917969 4.855469 3.386719 3.386719 C 4.855469 1.917969 7.242188 1.917969 8.710938 3.386719 L 27.820312 22.496094 L 46.925781 3.386719 C 48.398438 1.917969 50.78125 1.917969 52.253906 3.386719 C 53.722656 4.855469 53.722656 7.242188 52.253906 8.710938 L 33.144531 27.820312 Z M 52.253906 46.925781 " fill-opacity="1" fill-rule="nonzero"/></g></svg>