<svg width="638" height="318" viewBox="0 0 638 318" fill="none" xmlns="http://www.w3.org/2000/svg">
<path d="M48.791 213.613C42.6707 212.235 39.7378 210.532 34.7969 206.927H373.878L379.77 219.48L375.074 219.684L364.763 216.478L362.553 213.613L359.607 211.703L355.924 210.747H338.248L334.565 213.613L327.936 215.522L48.791 213.613Z" fill="#003594" stroke="#0047C7" stroke-linecap="round"/>
<path d="M239.181 154.673L239.163 154.69L239.153 154.711L238.401 156.22L238.258 156.508L238.568 156.43L241.559 155.679H257.329H359.58H359.728V155.531V120.816V120.668H359.58H332.514H332.383L332.367 120.798L331.624 126.764L327.926 128.991L327.911 129.001L327.898 129.013L325.663 131.256L321.945 132.749L318.226 133.496L313.758 132.748L310.019 131.247L305.543 129L302.555 125.252L302.539 125.231L302.515 125.218L298.757 122.954L298.733 122.939L298.705 122.935L294.194 122.18L294.172 122.176L294.148 122.179L288.885 122.934L288.847 122.94L288.816 122.964L282.049 128.247L282.048 128.246L282.036 128.259L278.281 132.028L273.036 136.541L265.534 140.306L265.512 140.317L265.495 140.334L260.991 144.854L255.008 149.358L252.066 150.097L249.135 149.361L247.66 147.88L247.616 147.837H247.555H246.051H245.99L245.946 147.88L239.181 154.673Z" fill="#428DFF" stroke="#428DFF"/>
<path d="M220.748 153.78L220.645 153.876L220.748 153.972L221.483 154.647L221.527 154.686H221.588H223.058H223.794H226H227.47H227.53L227.574 154.647L229.045 153.297L229.148 153.201L229.045 153.106L228.326 152.447L227.601 151.116L227.561 151.042H227.47H226H224.529H224.494L224.463 151.056L222.992 151.731L222.972 151.741L222.954 151.756L222.219 152.431L220.748 153.78Z" fill="#428DFF" stroke="#428DFF" stroke-width="0.2"/>
<path d="M102.799 148.744L102.786 148.75L102.776 148.758C102.419 149.017 101.965 149.462 101.477 149.989C100.986 150.519 100.455 151.14 99.9429 151.756C99.4635 152.332 99.0033 152.902 98.6089 153.391C98.1566 153.95 97.7909 154.402 97.582 154.637C97.4817 154.748 97.4081 154.849 97.3748 154.938C97.3576 154.985 97.3461 155.041 97.3591 155.099C97.3732 155.164 97.4124 155.211 97.4609 155.241C97.5051 155.269 97.5547 155.282 97.5983 155.288C97.6433 155.294 97.692 155.294 97.7417 155.293C97.8408 155.287 97.9593 155.269 98.0871 155.244C98.2557 155.212 98.4534 155.165 98.66 155.117C98.7652 155.092 98.8729 155.067 98.9802 155.042C99.3009 154.971 99.6251 154.905 99.9082 154.88H101.375H102.111H104.321H133.784H191.235C194.563 154.972 199.974 155.017 204.518 154.925C206.791 154.88 208.851 154.799 210.325 154.673C211.062 154.61 211.659 154.536 212.064 154.446C212.266 154.401 212.431 154.351 212.546 154.291C212.601 154.262 212.659 154.224 212.697 154.173C212.741 154.115 212.764 154.039 212.74 153.959C212.716 153.884 212.669 153.793 212.609 153.695C212.548 153.596 212.467 153.477 212.37 153.345C212.174 153.082 211.908 152.755 211.584 152.38C210.934 151.629 210.053 150.68 209.047 149.66C207.04 147.621 204.533 145.285 202.398 143.641L201.668 142.916L200.931 142.184L200.888 142.141H200.828H200.091H200.03L199.987 142.184L199.266 142.899L197.815 143.62L196.373 144.337H195.672H195.64L195.612 144.35L195.61 144.35L195.606 144.352L195.591 144.359L195.532 144.384C195.48 144.407 195.407 144.438 195.317 144.476C195.137 144.552 194.894 144.651 194.641 144.748C194.387 144.845 194.127 144.938 193.91 145C193.801 145.031 193.707 145.054 193.63 145.067C193.593 145.073 193.562 145.076 193.539 145.076C193.527 145.077 193.518 145.076 193.511 145.076L193.503 145.075C193.502 145.075 193.501 145.074 193.501 145.074C193.327 145.026 193.185 144.999 193.053 144.999C192.917 145 192.801 145.029 192.671 145.079C192.584 145.113 192.491 145.188 192.41 145.261C192.326 145.339 192.238 145.431 192.159 145.519C192.079 145.606 192.008 145.691 191.957 145.753C191.942 145.771 191.929 145.787 191.917 145.801H191.252C190.892 145.801 190.311 145.765 189.751 145.658C189.471 145.604 189.2 145.533 188.965 145.441C188.728 145.348 188.537 145.239 188.409 145.112C187.794 144.499 187.117 144.337 186.833 144.337H186.157L184.737 142.926L183.272 140.741L183.264 140.729L183.253 140.719L182.517 139.987L182.474 139.944H182.414H181.677H178.731H175.048H172.887C172.262 139.483 171.882 139.27 171.574 139.1L171.556 139.091C171.259 138.926 171.038 138.804 170.714 138.52L166.312 134.13L161.892 129.737L160.419 128.273L160.409 128.263L160.397 128.255L158.187 126.79L158.117 126.743L158.04 126.781L156.567 127.513L155.094 128.246L153.621 128.978L153.612 128.982C153.255 129.187 152.971 129.336 152.651 129.449C152.333 129.561 151.975 129.639 151.468 129.694H149.268L149.257 129.695C148.898 129.716 148.606 129.754 148.351 129.87C148.09 129.989 147.883 130.184 147.672 130.49L147.671 130.49L147.662 130.507L146.925 131.972L146.924 131.976L146.918 131.987C146.912 131.997 146.905 132.012 146.894 132.032C146.872 132.071 146.839 132.129 146.795 132.201C146.707 132.346 146.574 132.546 146.395 132.77C146.036 133.217 145.5 133.749 144.782 134.102C144.029 134.473 143.466 134.844 143.089 135.123C142.901 135.262 142.76 135.379 142.665 135.462C142.617 135.503 142.581 135.535 142.557 135.558L142.529 135.584L142.522 135.591L142.52 135.593L142.519 135.595L140.324 137.791L138.114 139.987L138.112 139.989L138.108 139.993C138.104 139.997 138.096 140.004 138.086 140.013C138.066 140.03 138.035 140.056 137.993 140.088C137.908 140.152 137.779 140.239 137.605 140.326C137.257 140.5 136.727 140.676 136.008 140.676C134.545 140.676 133.732 140.367 133.145 139.97C132.851 139.771 132.461 139.402 131.969 138.897C131.678 138.599 131.357 138.259 131.004 137.885C130.759 137.626 130.499 137.351 130.223 137.061L130.213 137.052C129.993 136.861 129.797 136.718 129.559 136.598C129.323 136.478 129.05 136.385 128.68 136.288L128.666 136.285C128.366 136.238 128.186 136.235 127.882 136.286L127.877 136.286C127.61 136.34 127.22 136.526 126.754 136.796C126.282 137.068 125.715 137.436 125.088 137.867C123.835 138.728 122.334 139.847 120.862 140.972C119.629 141.915 118.415 142.863 117.381 143.67C117.18 143.828 116.985 143.979 116.799 144.125C115.649 145.022 114.815 145.666 114.557 145.823C113.659 146.366 113.057 146.418 112.144 146.494C112 146.506 111.849 146.519 111.687 146.533C110.51 146.646 106.336 147.062 102.799 148.744Z" fill="#428DFF"/>
<path d="M142.52 135.593L142.522 135.591L142.529 135.584L142.557 135.558C142.581 135.535 142.617 135.503 142.665 135.462C142.76 135.379 142.901 135.262 143.089 135.123C143.466 134.844 144.029 134.473 144.782 134.102C145.5 133.749 146.036 133.217 146.395 132.77C146.574 132.546 146.707 132.346 146.795 132.201C146.839 132.129 146.872 132.071 146.894 132.032C146.905 132.012 146.912 131.997 146.918 131.987L146.924 131.976L146.925 131.972L147.662 130.507L147.671 130.49L147.672 130.49C147.883 130.184 148.09 129.989 148.351 129.87C148.606 129.754 148.898 129.716 149.257 129.695L149.268 129.694H151.468C151.975 129.639 152.333 129.561 152.651 129.449C152.971 129.336 153.255 129.187 153.612 128.982L153.621 128.978L155.094 128.246L156.567 127.513L158.04 126.781L158.117 126.743L158.187 126.79L160.397 128.255L160.409 128.263L160.419 128.273L161.892 129.737L166.312 134.13L170.714 138.52C171.038 138.804 171.259 138.926 171.556 139.091L171.574 139.1C171.882 139.27 172.262 139.483 172.887 139.944H175.048H178.731H181.677H182.414H182.474L182.517 139.987L183.253 140.719L183.264 140.729L183.272 140.741L184.737 142.926L186.157 144.337H186.833C187.117 144.337 187.794 144.499 188.409 145.112C188.537 145.239 188.728 145.348 188.965 145.441C189.2 145.533 189.471 145.604 189.751 145.658C190.311 145.765 190.892 145.801 191.252 145.801H191.917C191.929 145.787 191.942 145.771 191.957 145.753C192.008 145.691 192.079 145.606 192.159 145.519C192.238 145.431 192.326 145.339 192.41 145.261C192.491 145.188 192.584 145.113 192.671 145.079C192.801 145.029 192.917 145 193.053 144.999C193.185 144.999 193.327 145.026 193.501 145.074C193.501 145.074 193.502 145.075 193.503 145.075L193.511 145.076C193.518 145.076 193.527 145.077 193.539 145.076C193.562 145.076 193.593 145.073 193.63 145.067C193.707 145.054 193.801 145.031 193.91 145C194.127 144.938 194.387 144.845 194.641 144.748C194.894 144.651 195.137 144.552 195.317 144.476C195.407 144.438 195.48 144.407 195.532 144.384L195.591 144.359L195.606 144.352L195.61 144.35L195.612 144.35L195.64 144.337H195.672H196.373L197.815 143.62L199.266 142.899L199.987 142.184L200.03 142.141H200.091H200.828H200.888L200.931 142.184L201.668 142.916L202.398 143.641C204.533 145.285 207.04 147.621 209.047 149.66C210.053 150.68 210.934 151.629 211.584 152.38C211.908 152.755 212.174 153.082 212.37 153.345C212.467 153.477 212.548 153.596 212.609 153.695C212.669 153.793 212.716 153.884 212.74 153.959C212.764 154.039 212.741 154.115 212.697 154.173C212.659 154.224 212.601 154.262 212.546 154.291C212.431 154.351 212.266 154.401 212.064 154.446C211.659 154.536 211.062 154.61 210.325 154.673C208.851 154.799 206.791 154.88 204.518 154.925C199.974 155.017 194.563 154.972 191.235 154.88H133.784H104.321H102.111H101.375H99.9082C99.6251 154.905 99.3009 154.971 98.9802 155.042C98.8729 155.067 98.7652 155.092 98.66 155.117C98.4534 155.165 98.2557 155.212 98.0871 155.244C97.9593 155.269 97.8408 155.287 97.7417 155.293C97.692 155.294 97.6433 155.294 97.5983 155.288C97.5547 155.282 97.5051 155.269 97.4609 155.241C97.4124 155.211 97.3732 155.164 97.3591 155.099C97.3461 155.041 97.3576 154.985 97.3748 154.938C97.4081 154.849 97.4817 154.748 97.582 154.637C97.7909 154.402 98.1566 153.95 98.6089 153.391C99.0033 152.902 99.4635 152.332 99.9429 151.756C100.455 151.14 100.986 150.519 101.477 149.989C101.965 149.462 102.419 149.017 102.776 148.758L102.786 148.75L102.799 148.744C106.336 147.062 110.51 146.646 111.687 146.533C111.849 146.519 112 146.506 112.144 146.494C113.057 146.418 113.659 146.366 114.557 145.823C114.815 145.666 115.649 145.022 116.799 144.125C116.985 143.979 117.18 143.828 117.381 143.67C118.415 142.863 119.629 141.915 120.862 140.972C122.334 139.847 123.835 138.728 125.088 137.867C125.715 137.436 126.282 137.068 126.754 136.796C127.22 136.526 127.61 136.34 127.877 136.286L127.882 136.286C128.186 136.235 128.366 136.238 128.666 136.285L128.68 136.288C129.05 136.385 129.323 136.478 129.559 136.598C129.797 136.718 129.993 136.861 130.213 137.052L130.223 137.061C130.499 137.351 130.759 137.626 131.004 137.885C131.357 138.259 131.678 138.599 131.969 138.897C132.461 139.402 132.851 139.771 133.145 139.97C133.732 140.367 134.545 140.676 136.008 140.676C136.727 140.676 137.257 140.5 137.605 140.326C137.779 140.239 137.908 140.152 137.993 140.088C138.035 140.056 138.066 140.03 138.086 140.013C138.096 140.004 138.104 139.997 138.108 139.993L138.112 139.989L138.114 139.987L140.324 137.791L142.519 135.595L142.52 135.593ZM142.52 135.593L142.623 135.698" stroke="#428DFF" stroke-width="0.2"/>
<path d="M77.7691 153.396C76.553 153.366 75.3506 153.325 74.2744 153.272C75.0049 152.66 75.7533 152.083 76.3574 151.657C76.6199 151.471 76.8357 151.33 76.9986 151.229H80.504C80.5776 151.301 80.6684 151.397 80.7756 151.519C81.203 152.011 81.7003 152.713 82.1699 153.471C80.8646 153.458 79.3163 153.435 77.7691 153.396ZM80.285 151.042C80.285 151.042 80.2967 151.048 80.3213 151.066C80.2976 151.052 80.285 151.042 80.285 151.042Z" fill="#003594" stroke="#428DFF" stroke-width="3"/>
<path d="M42.0749 137.101L42.0351 137.07H41.9841H39.8043H39.77L39.7394 137.085L38.2862 137.807L38.2651 137.818L38.2484 137.834L35.342 140.722L28.0761 147.941L28.0703 147.949L22.2576 154.446L22.0425 154.686H22.3661H56.516H56.6613V154.542V152.376V152.332L56.6369 152.296L55.1837 150.13L53.7305 147.964L52.2773 145.798L52.2693 145.786L52.2592 145.776L49.3528 142.888L49.3409 142.877L45.7079 139.989L42.0749 137.101Z" fill="#428DFF" stroke="#428DFF" stroke-width="0.2"/>
<path d="M2.33425 180.242L2 181.02L2.51276 181.696C11.2911 193.255 18.5098 197.405 28.5101 203.157C30.2135 204.135 31.9976 205.161 33.8839 206.278L34.2329 206.484H34.6392H72.9574H156.963H237.283H321.289H368.645L369.938 215.463L370.047 216.22L370.738 216.564L375.16 218.757L375.471 218.91H375.818H415.884L424.484 260.141L424.493 260.185L424.504 260.228C425.595 264.199 426.342 267.572 427.048 270.765C429.134 280.187 430.874 288.047 440.103 305.124L440.174 305.254L440.268 305.368C442.751 308.33 444.818 310.387 447.084 312.016C449.352 313.646 451.759 314.8 454.857 316.024L455.001 316.081L455.153 316.107C461.511 317.186 464.68 317.078 469.664 316.106C485.923 313.461 494.344 310.507 505.428 306.62C508.11 305.678 510.947 304.684 514.091 303.624L514.106 303.62L514.12 303.614L587.072 277.299L587.093 277.292L587.114 277.283C595.651 273.908 607.2 267.496 611.028 264.673C613.056 263.176 616.147 259.819 619.131 255.878C622.135 251.909 625.153 247.185 626.982 242.868L627 242.824L627.016 242.78C627.799 240.538 628.538 238.573 629.237 236.716C631.679 230.227 633.626 225.053 635.188 213.997L635.201 213.908L635.203 213.818L636.677 125.372L636.678 125.292L636.671 125.213L633.723 93.7812L633.705 93.5938L633.641 93.4169L624.798 69.2952L624.708 69.0511L624.54 68.8526C624.032 68.2544 623.534 67.669 623.047 67.0958C614.405 56.9129 609.001 50.5467 599.203 43.7445L599.107 43.6777L599.001 43.6267C576.255 32.6882 562.808 28.7096 543.493 22.9951C540.471 22.1011 537.306 21.1647 533.94 20.1525C526.166 17.79 519.545 15.652 513.307 13.6373C499.655 9.22849 487.833 5.41042 469.745 1.12465L469.626 1.09631L469.503 1.08802C467.167 0.930356 463.675 1.02409 462.08 1.06685C461.692 1.07729 461.415 1.08468 461.297 1.08464C460.54 1.08441 457.085 1.15256 454.3 1.86143L454.177 1.8924L454.063 1.94337C449.59 3.93135 447.139 5.35295 443.356 8.77611L443.207 8.91127L443.099 9.08135L437.595 17.8181C437.592 17.824 437.587 17.8297 437.583 17.8355C435.319 21.2136 434.053 23.6152 431.901 29.8496L431.876 29.9228L431.859 29.9982L418.708 87.2523L407.718 96.1095H331.605H330.131V97.5714V120.962V122.424H331.605H356.478L358.133 122.835V154.586H243.36L240.589 153.899L240.415 153.856L240.235 153.855L215.181 153.77H215.177H201.913H156.963H54.5352H25.0597H24.7707L24.5031 153.878C23.1391 154.431 21.3595 155.779 19.4862 157.47C17.5648 159.205 15.3989 161.439 13.2451 163.927C8.95593 168.879 4.60424 174.961 2.33425 180.242Z" fill="#0047C7" stroke="#0047C7" stroke-width="2"/>
<path d="M419.248 89.0811L415.659 108.087L413.506 127.824L412.07 147.562L411.352 187.767L412.07 200.925L414.941 211.159L416.377 217.007L417.094 218.469" stroke="#003085" stroke-width="2"/>
<path d="M11.1102 167.443H369.445" stroke="#013085" stroke-width="2.5" stroke-linecap="round"/>
<path d="M18.3984 195.386H369.445" stroke="#013085" stroke-width="2.5" stroke-linecap="round"/>
<path d="M369.445 195.386V206.32" stroke="#013085" stroke-width="2.5" stroke-linecap="round"/>
<path d="M370.66 115.809H332.31V120.926H359.598V155.283L244.549 156.014L236.436 158.938H370.66V115.809Z" fill="#013085" stroke="#013085" stroke-width="0.2"/>
<path d="M552.17 94.5788L551.895 94.5483L551.628 94.6194C550.368 94.9537 549.287 95.3049 548.139 95.9162C547.002 96.5221 545.861 97.3511 544.426 98.5807L544.247 98.7343L544.126 98.936L539.713 106.248L539.502 106.596V107.001V215.222V215.579L539.669 215.896C540.27 217.048 540.834 218.011 541.593 218.917C542.356 219.827 543.27 220.629 544.528 221.526L544.803 221.724L545.138 221.781C548.07 222.281 549.644 222.161 552.176 221.793C555.483 221.509 557.665 220.975 562.033 219.535L562.052 219.527L562.073 219.52C569.92 216.683 573.947 214.024 580.819 209.096L580.869 209.059L580.915 209.02C585.753 204.906 587.832 202.611 590.865 199.264C591.252 198.835 591.655 198.391 592.082 197.923L592.095 197.908L592.109 197.892L596.522 192.773L596.581 192.708L596.629 192.633L602.514 183.858L602.57 183.775L602.614 183.684C603.889 181.062 604.557 178.769 605.675 173.092L605.703 172.953V172.811V162.574V162.507L605.697 162.441C605.499 160.276 605.441 158.514 605.386 156.8C605.362 156.059 605.337 155.326 605.302 154.574C605.187 152.1 604.956 149.563 604.197 146.17C603.441 142.789 602.314 139.43 601.383 136.93C600.915 135.676 600.494 134.631 600.19 133.898C600.038 133.531 599.914 133.242 599.829 133.043C599.785 132.943 599.753 132.867 599.729 132.814L599.704 132.757C598.348 129.395 597.349 128.095 596.215 126.617C595.873 126.174 595.522 125.715 595.144 125.179C592 120.614 590.43 118.813 588.309 116.379C587.888 115.895 587.444 115.386 586.961 114.825L586.929 114.788L586.895 114.752C582.68 110.471 580.27 108.871 576.646 106.463C576.317 106.245 575.981 106.02 575.629 105.786L575.63 105.786L575.613 105.776C570.645 102.555 568.441 101.201 565.996 99.8904C563.018 97.9851 560.904 96.7873 558.849 96.0049C556.759 95.2094 554.798 94.8699 552.17 94.5788Z" fill="white" stroke="#003085" stroke-width="2"/>
</svg>
