<svg xmlns="http://www.w3.org/2000/svg" xmlns:xlink="http://www.w3.org/1999/xlink" width="150" zoomAndPan="magnify" viewBox="0 0 112.5 112.499997" height="150" preserveAspectRatio="xMidYMid meet" version="1.0"><defs><clipPath id="8a6159c63c"><path d="M 14 8.140625 L 99 8.140625 L 99 104.140625 L 14 104.140625 Z M 14 8.140625 " clip-rule="nonzero"/></clipPath></defs><g clip-path="url(#8a6159c63c)"><path fill="#0047c7" d="M 56.308594 104.128906 C 55.039062 104.128906 53.777344 104.070312 52.515625 103.957031 C 51.253906 103.84375 50 103.675781 48.753906 103.449219 C 47.507812 103.222656 46.273438 102.9375 45.050781 102.601562 C 43.832031 102.265625 42.628906 101.871094 41.441406 101.425781 C 40.257812 100.980469 39.09375 100.484375 37.953125 99.933594 C 36.816406 99.382812 35.703125 98.78125 34.617188 98.132812 C 33.53125 97.480469 32.476562 96.78125 31.453125 96.039062 C 30.433594 95.292969 29.445312 94.503906 28.496094 93.667969 C 27.546875 92.835938 26.632812 91.960938 25.761719 91.042969 C 24.890625 90.128906 24.0625 89.175781 23.277344 88.183594 C 22.496094 87.191406 21.757812 86.167969 21.0625 85.113281 C 20.371094 84.054688 19.730469 82.96875 19.136719 81.855469 C 18.542969 80.738281 18 79.601562 17.511719 78.4375 C 17.019531 77.273438 16.585938 76.089844 16.203125 74.886719 C 15.820312 73.683594 15.492188 72.46875 15.21875 71.234375 C 14.949219 70.003906 14.730469 68.761719 14.574219 67.507812 C 14.414062 66.257812 14.3125 65 14.265625 63.742188 C 14.21875 62.480469 14.230469 61.21875 14.300781 59.960938 C 14.367188 58.699219 14.496094 57.445312 14.675781 56.199219 C 14.859375 54.949219 15.097656 53.710938 15.394531 52.484375 C 15.6875 51.257812 16.039062 50.046875 16.441406 48.851562 C 16.847656 47.65625 17.304688 46.480469 17.816406 45.324219 C 18.328125 44.171875 18.890625 43.042969 19.503906 41.9375 C 20.117188 40.835938 20.78125 39.761719 21.492188 38.714844 C 22.203125 37.671875 22.960938 36.664062 23.761719 35.6875 C 24.566406 34.710938 25.410156 33.773438 26.300781 32.871094 C 27.1875 31.972656 28.113281 31.113281 29.082031 30.296875 C 30.046875 29.480469 31.046875 28.710938 32.082031 27.984375 C 33.117188 27.257812 34.183594 26.578125 35.28125 25.949219 C 36.378906 25.316406 37.503906 24.738281 38.652344 24.207031 C 39.804688 23.679688 40.976562 23.203125 42.167969 22.777344 C 43.363281 22.355469 44.570312 21.984375 45.796875 21.667969 L 45.796875 18.132812 C 45.800781 17.476562 45.863281 16.828125 45.992188 16.183594 C 46.121094 15.542969 46.3125 14.917969 46.566406 14.3125 C 46.816406 13.707031 47.125 13.128906 47.492188 12.585938 C 47.859375 12.039062 48.273438 11.535156 48.738281 11.070312 C 49.207031 10.609375 49.710938 10.195312 50.257812 9.828125 C 50.808594 9.464844 51.386719 9.15625 51.992188 8.90625 C 52.601562 8.65625 53.226562 8.464844 53.875 8.335938 C 54.519531 8.207031 55.171875 8.144531 55.832031 8.140625 L 56.769531 8.140625 C 57.429688 8.144531 58.082031 8.207031 58.726562 8.335938 C 59.375 8.464844 60 8.65625 60.609375 8.90625 C 61.21875 9.15625 61.796875 9.464844 62.34375 9.828125 C 62.890625 10.195312 63.398438 10.609375 63.863281 11.070312 C 64.328125 11.535156 64.742188 12.039062 65.109375 12.585938 C 65.476562 13.128906 65.785156 13.707031 66.039062 14.3125 C 66.289062 14.917969 66.480469 15.542969 66.609375 16.183594 C 66.738281 16.828125 66.804688 17.476562 66.804688 18.132812 L 66.804688 21.667969 C 68.03125 21.984375 69.242188 22.355469 70.433594 22.777344 C 71.625 23.203125 72.796875 23.679688 73.949219 24.207031 C 75.097656 24.738281 76.222656 25.316406 77.320312 25.945312 C 78.417969 26.578125 79.484375 27.257812 80.519531 27.980469 C 81.554688 28.707031 82.554688 29.480469 83.519531 30.296875 C 84.488281 31.113281 85.414062 31.972656 86.300781 32.871094 C 87.1875 33.769531 88.035156 34.707031 88.835938 35.683594 C 89.640625 36.660156 90.398438 37.671875 91.109375 38.714844 C 91.820312 39.757812 92.480469 40.832031 93.097656 41.933594 C 93.710938 43.039062 94.273438 44.167969 94.785156 45.320312 C 95.296875 46.476562 95.753906 47.652344 96.160156 48.847656 C 96.5625 50.042969 96.914062 51.253906 97.207031 52.480469 C 97.503906 53.707031 97.742188 54.945312 97.925781 56.191406 C 98.109375 57.441406 98.234375 58.695312 98.300781 59.953125 C 98.371094 61.214844 98.382812 62.472656 98.335938 63.734375 C 98.292969 64.996094 98.191406 66.25 98.03125 67.503906 C 97.871094 68.753906 97.65625 69.996094 97.382812 71.230469 C 97.113281 72.460938 96.785156 73.679688 96.402344 74.878906 C 96.019531 76.082031 95.582031 77.265625 95.09375 78.429688 C 94.605469 79.59375 94.0625 80.734375 93.46875 81.847656 C 92.875 82.960938 92.234375 84.046875 91.542969 85.105469 C 90.851562 86.160156 90.113281 87.1875 89.328125 88.175781 C 88.542969 89.167969 87.71875 90.121094 86.847656 91.035156 C 85.976562 91.953125 85.066406 92.828125 84.113281 93.660156 C 83.164062 94.496094 82.179688 95.285156 81.15625 96.03125 C 80.132812 96.777344 79.082031 97.476562 77.996094 98.125 C 76.910156 98.777344 75.796875 99.375 74.65625 99.925781 C 73.519531 100.476562 72.355469 100.976562 71.171875 101.421875 C 69.984375 101.867188 68.78125 102.261719 67.5625 102.597656 C 66.339844 102.9375 65.109375 103.21875 63.863281 103.445312 C 62.617188 103.671875 61.363281 103.84375 60.101562 103.957031 C 58.839844 104.070312 57.574219 104.128906 56.308594 104.128906 Z M 55.832031 9.785156 C 55.28125 9.785156 54.734375 9.839844 54.195312 9.949219 C 53.65625 10.054688 53.132812 10.214844 52.625 10.421875 C 52.117188 10.632812 51.632812 10.890625 51.175781 11.195312 C 50.71875 11.5 50.296875 11.847656 49.90625 12.234375 C 49.515625 12.621094 49.167969 13.042969 48.863281 13.496094 C 48.558594 13.953125 48.300781 14.433594 48.089844 14.941406 C 47.878906 15.445312 47.71875 15.96875 47.609375 16.503906 C 47.503906 17.042969 47.449219 17.585938 47.449219 18.132812 L 47.449219 22.960938 L 46.816406 23.113281 C 46.023438 23.300781 45.238281 23.515625 44.457031 23.753906 C 43.679688 23.992188 42.90625 24.253906 42.140625 24.539062 C 41.378906 24.824219 40.625 25.132812 39.878906 25.460938 C 39.132812 25.792969 38.398438 26.144531 37.675781 26.519531 C 36.953125 26.890625 36.238281 27.289062 35.539062 27.707031 C 34.839844 28.121094 34.15625 28.5625 33.480469 29.019531 C 32.808594 29.476562 32.148438 29.957031 31.507812 30.457031 C 30.863281 30.953125 30.234375 31.472656 29.621094 32.007812 C 29.007812 32.542969 28.414062 33.097656 27.835938 33.667969 C 27.253906 34.242188 26.695312 34.832031 26.152344 35.4375 C 25.609375 36.042969 25.085938 36.664062 24.578125 37.300781 C 24.074219 37.941406 23.589844 38.59375 23.125 39.257812 C 22.65625 39.925781 22.210938 40.605469 21.789062 41.300781 C 21.363281 41.992188 20.960938 42.699219 20.582031 43.417969 C 20.199219 44.136719 19.839844 44.863281 19.503906 45.601562 C 19.164062 46.34375 18.851562 47.09375 18.558594 47.851562 C 18.269531 48.609375 18 49.375 17.753906 50.148438 C 17.511719 50.925781 17.289062 51.707031 17.09375 52.496094 C 16.894531 53.28125 16.722656 54.074219 16.570312 54.875 C 16.421875 55.671875 16.296875 56.476562 16.199219 57.28125 C 16.097656 58.085938 16.019531 58.894531 15.96875 59.707031 C 15.917969 60.515625 15.890625 61.328125 15.890625 62.140625 C 15.886719 62.953125 15.910156 63.761719 15.957031 64.574219 C 16.003906 65.386719 16.078125 66.195312 16.175781 67 C 16.269531 67.804688 16.390625 68.609375 16.535156 69.410156 C 16.683594 70.207031 16.851562 71 17.046875 71.789062 C 17.238281 72.578125 17.457031 73.363281 17.699219 74.136719 C 17.9375 74.914062 18.203125 75.683594 18.492188 76.441406 C 18.777344 77.203125 19.089844 77.953125 19.421875 78.691406 C 19.757812 79.433594 20.113281 80.164062 20.488281 80.882812 C 20.867188 81.605469 21.265625 82.3125 21.6875 83.007812 C 22.109375 83.703125 22.550781 84.386719 23.011719 85.054688 C 23.476562 85.722656 23.957031 86.378906 24.460938 87.019531 C 24.960938 87.660156 25.484375 88.28125 26.023438 88.890625 C 26.5625 89.5 27.121094 90.089844 27.695312 90.667969 C 28.273438 91.242188 28.867188 91.796875 29.476562 92.335938 C 30.085938 92.875 30.710938 93.398438 31.351562 93.898438 C 31.996094 94.398438 32.652344 94.882812 33.320312 95.34375 C 33.992188 95.804688 34.675781 96.246094 35.375 96.667969 C 36.070312 97.089844 36.78125 97.488281 37.503906 97.867188 C 38.226562 98.242188 38.957031 98.597656 39.703125 98.933594 C 40.445312 99.265625 41.199219 99.578125 41.960938 99.867188 C 42.722656 100.152344 43.492188 100.417969 44.273438 100.660156 C 45.050781 100.902344 45.835938 101.121094 46.628906 101.316406 C 47.417969 101.511719 48.214844 101.679688 49.019531 101.828125 C 49.820312 101.972656 50.625 102.097656 51.4375 102.195312 C 52.246094 102.292969 53.058594 102.367188 53.871094 102.414062 C 54.6875 102.464844 55.5 102.488281 56.316406 102.488281 C 57.132812 102.488281 57.945312 102.460938 58.761719 102.414062 C 59.574219 102.363281 60.386719 102.289062 61.195312 102.191406 C 62.003906 102.09375 62.8125 101.972656 63.613281 101.824219 C 64.414062 101.679688 65.210938 101.507812 66.003906 101.3125 C 66.796875 101.117188 67.582031 100.898438 68.359375 100.65625 C 69.136719 100.414062 69.910156 100.148438 70.671875 99.859375 C 71.433594 99.570312 72.1875 99.261719 72.929688 98.925781 C 73.671875 98.59375 74.40625 98.238281 75.128906 97.859375 C 75.847656 97.480469 76.558594 97.082031 77.257812 96.660156 C 77.953125 96.238281 78.636719 95.796875 79.308594 95.335938 C 79.980469 94.875 80.636719 94.390625 81.277344 93.890625 C 81.917969 93.386719 82.542969 92.867188 83.152344 92.328125 C 83.761719 91.789062 84.355469 91.230469 84.929688 90.65625 C 85.507812 90.082031 86.066406 89.488281 86.605469 88.878906 C 87.144531 88.273438 87.664062 87.648438 88.167969 87.007812 C 88.667969 86.367188 89.152344 85.710938 89.613281 85.042969 C 90.074219 84.375 90.515625 83.691406 90.9375 82.996094 C 91.359375 82.300781 91.757812 81.59375 92.136719 80.871094 C 92.511719 80.152344 92.867188 79.421875 93.203125 78.679688 C 93.535156 77.9375 93.84375 77.1875 94.132812 76.429688 C 94.421875 75.667969 94.683594 74.902344 94.925781 74.125 C 95.164062 73.347656 95.382812 72.566406 95.578125 71.777344 C 95.769531 70.988281 95.9375 70.195312 96.082031 69.394531 C 96.230469 68.59375 96.347656 67.792969 96.445312 66.984375 C 96.542969 66.179688 96.613281 65.371094 96.660156 64.558594 C 96.707031 63.75 96.730469 62.9375 96.726562 62.125 C 96.726562 61.3125 96.699219 60.503906 96.648438 59.691406 C 96.597656 58.882812 96.519531 58.074219 96.417969 57.265625 C 96.316406 56.460938 96.191406 55.660156 96.042969 54.859375 C 95.894531 54.0625 95.722656 53.269531 95.523438 52.480469 C 95.324219 51.691406 95.105469 50.910156 94.859375 50.136719 C 94.613281 49.363281 94.34375 48.597656 94.054688 47.835938 C 93.761719 47.078125 93.445312 46.328125 93.109375 45.589844 C 92.773438 44.851562 92.414062 44.121094 92.03125 43.40625 C 91.648438 42.6875 91.246094 41.980469 90.824219 41.289062 C 90.398438 40.59375 89.953125 39.914062 89.488281 39.246094 C 89.019531 38.582031 88.535156 37.929688 88.03125 37.292969 C 87.523438 36.652344 87 36.03125 86.457031 35.425781 C 85.914062 34.820312 85.351562 34.230469 84.773438 33.660156 C 84.195312 33.089844 83.597656 32.535156 82.988281 31.996094 C 82.375 31.460938 81.746094 30.945312 81.101562 30.445312 C 80.457031 29.949219 79.796875 29.46875 79.125 29.011719 C 78.453125 28.554688 77.765625 28.117188 77.066406 27.699219 C 76.367188 27.28125 75.652344 26.886719 74.929688 26.511719 C 74.207031 26.136719 73.472656 25.785156 72.726562 25.457031 C 71.980469 25.125 71.226562 24.820312 70.464844 24.535156 C 69.699219 24.25 68.925781 23.988281 68.148438 23.75 C 67.367188 23.511719 66.582031 23.296875 65.789062 23.109375 L 65.15625 22.957031 L 65.15625 18.132812 C 65.15625 17.585938 65.101562 17.042969 64.992188 16.503906 C 64.886719 15.96875 64.726562 15.445312 64.515625 14.941406 C 64.304688 14.433594 64.046875 13.953125 63.742188 13.496094 C 63.433594 13.042969 63.085938 12.621094 62.699219 12.230469 C 62.308594 11.84375 61.886719 11.5 61.425781 11.195312 C 60.96875 10.890625 60.488281 10.632812 59.980469 10.421875 C 59.46875 10.210938 58.945312 10.054688 58.40625 9.945312 C 57.867188 9.839844 57.320312 9.785156 56.769531 9.785156 Z M 56.308594 23.726562 C 56.015625 23.726562 55.730469 23.699219 55.445312 23.640625 C 55.160156 23.585938 54.882812 23.503906 54.613281 23.390625 C 54.34375 23.28125 54.089844 23.144531 53.847656 22.984375 C 53.605469 22.824219 53.382812 22.640625 53.175781 22.433594 C 52.972656 22.230469 52.789062 22.007812 52.625 21.765625 C 52.464844 21.527344 52.328125 21.273438 52.21875 21.003906 C 52.105469 20.738281 52.023438 20.460938 51.964844 20.179688 C 51.910156 19.894531 51.878906 19.605469 51.878906 19.316406 C 51.878906 19.027344 51.910156 18.742188 51.964844 18.457031 C 52.023438 18.171875 52.105469 17.898438 52.21875 17.628906 C 52.328125 17.363281 52.464844 17.109375 52.625 16.867188 C 52.789062 16.628906 52.972656 16.40625 53.175781 16.199219 C 53.382812 15.996094 53.605469 15.8125 53.847656 15.652344 C 54.089844 15.492188 54.34375 15.355469 54.613281 15.246094 C 54.882812 15.132812 55.160156 15.050781 55.445312 14.992188 C 55.730469 14.9375 56.015625 14.910156 56.308594 14.910156 C 56.597656 14.910156 56.886719 14.9375 57.171875 14.992188 C 57.457031 15.050781 57.734375 15.132812 58.003906 15.246094 C 58.269531 15.355469 58.527344 15.492188 58.769531 15.652344 C 59.007812 15.8125 59.234375 15.996094 59.4375 16.199219 C 59.644531 16.40625 59.828125 16.628906 59.988281 16.867188 C 60.152344 17.109375 60.289062 17.363281 60.398438 17.632812 C 60.507812 17.898438 60.59375 18.175781 60.648438 18.457031 C 60.707031 18.742188 60.734375 19.027344 60.734375 19.320312 C 60.734375 19.609375 60.707031 19.894531 60.648438 20.179688 C 60.59375 20.460938 60.507812 20.738281 60.398438 21.003906 C 60.285156 21.273438 60.148438 21.527344 59.988281 21.765625 C 59.824219 22.007812 59.640625 22.230469 59.4375 22.433594 C 59.230469 22.640625 59.007812 22.820312 58.765625 22.984375 C 58.523438 23.144531 58.269531 23.28125 58 23.390625 C 57.734375 23.5 57.457031 23.585938 57.171875 23.640625 C 56.886719 23.699219 56.597656 23.726562 56.308594 23.726562 Z M 56.308594 16.554688 C 55.941406 16.554688 55.585938 16.625 55.246094 16.761719 C 54.90625 16.902344 54.605469 17.105469 54.34375 17.363281 C 54.082031 17.621094 53.882812 17.921875 53.742188 18.261719 C 53.601562 18.597656 53.53125 18.953125 53.53125 19.320312 C 53.53125 19.6875 53.601562 20.039062 53.742188 20.378906 C 53.882812 20.714844 54.082031 21.015625 54.34375 21.273438 C 54.605469 21.535156 54.90625 21.734375 55.246094 21.875 C 55.585938 22.015625 55.941406 22.085938 56.308594 22.085938 C 56.675781 22.085938 57.03125 22.015625 57.371094 21.875 C 57.710938 21.734375 58.011719 21.535156 58.273438 21.273438 C 58.53125 21.015625 58.734375 20.714844 58.875 20.378906 C 59.015625 20.039062 59.085938 19.6875 59.085938 19.320312 C 59.085938 18.953125 59.015625 18.597656 58.875 18.261719 C 58.734375 17.921875 58.53125 17.621094 58.269531 17.363281 C 58.011719 17.105469 57.710938 16.902344 57.371094 16.765625 C 57.03125 16.625 56.675781 16.550781 56.308594 16.550781 Z M 56.308594 16.554688 " fill-opacity="1" fill-rule="nonzero"/></g></svg>