<svg width="91" height="169" viewBox="0 0 91 169" fill="none" xmlns="http://www.w3.org/2000/svg">
<mask id="mask0_472_521" style="mask-type:luminance" maskUnits="userSpaceOnUse" x="0" y="0" width="91" height="169">
<path d="M0 0H90.258V168.84H0V0Z" fill="white"/>
</mask>
<g mask="url(#mask0_472_521)">
<path d="M76.9358 0H13.2679C5.9404 0.00637187 0.012061 6.30219 0 14.07V154.77C0.012061 162.538 5.9404 168.827 13.2679 168.84H76.9358C84.2572 168.827 90.1856 162.538 90.1976 154.77V14.07C90.1856 6.30219 84.2572 0.00637187 76.9358 0ZM13.2679 5.62673H76.9358C81.3262 5.62673 84.8905 9.40549 84.8905 14.07V16.8802H5.30716V14.07C5.30716 9.40549 8.87141 5.62673 13.2679 5.62673ZM84.8905 146.327H5.30716V22.5133H84.8905V146.327ZM76.9358 163.213H13.2679C8.87141 163.213 5.30716 159.428 5.30716 154.77V151.953H84.8905V154.77C84.8905 159.428 81.3262 163.213 76.9358 163.213Z" fill="#0047C7"/>
</g>
</svg>
