<svg width="116" height="182" viewBox="0 0 116 182" fill="none" xmlns="http://www.w3.org/2000/svg">
<path d="M100.896 55.734V49.8643H83.6562V55.734C86.0729 55.734 88.0365 57.6924 88.0365 60.1038C88.0365 62.5205 86.0729 64.5309 83.6562 64.5309V64.984C83.6562 66.7653 85.1042 68.2184 86.8906 68.2184H97.6615C99.4479 68.2184 100.896 66.7653 100.896 64.984V64.5309C98.4792 64.5309 96.5208 62.5205 96.5208 60.1038C96.5208 57.6924 98.4792 55.734 100.896 55.734Z" fill="#0047C7"/>
<mask id="mask0_455_577" style="mask-type:luminance" maskUnits="userSpaceOnUse" x="14" y="0" width="88" height="114">
<path d="M14.3647 0H101.031V113.667H14.3647V0Z" fill="white"/>
</mask>
<g mask="url(#mask0_455_577)">
<path d="M58.0052 0.114258C34.3125 0.114258 15.1094 19.2861 15.1094 42.932V113.401H32.3542V42.932C32.3542 28.8122 43.8594 17.3278 58.0052 17.3278C72.1667 17.3278 83.651 28.7913 83.651 42.932V55.6663H100.896V42.932C100.896 19.2861 81.6927 0.114258 58.0052 0.114258Z" fill="#428DFF"/>
</g>
<path d="M83.6561 64.5312L83.6509 64.9844C83.6509 66.7708 85.104 68.2135 86.8905 68.2135H97.6613C99.4478 68.2135 100.896 66.7708 100.896 64.9844V64.5312H83.6561Z" fill="#428DFF"/>
<mask id="mask1_455_577" style="mask-type:luminance" maskUnits="userSpaceOnUse" x="0" y="84" width="116" height="98">
<path d="M0 84.8955H116V181.89H0V84.8955Z" fill="white"/>
</mask>
<g mask="url(#mask1_455_577)">
<path d="M106.906 85.1191H9.09896C4.07292 85.1191 0 89.1868 0 94.2025V172.801C0 177.822 4.07292 181.89 9.09896 181.89H106.906C111.932 181.89 116.005 177.822 116.005 172.801V94.2025C116.005 89.1868 111.932 85.1191 106.906 85.1191Z" fill="#0047C7"/>
</g>
<path d="M69.3699 124.407C69.146 118.667 64.5522 113.933 58.8126 113.537C58.5418 113.516 58.271 113.511 58.0053 113.511C57.7345 113.511 57.4637 113.516 57.1928 113.537C51.4533 113.933 46.8595 118.667 46.6355 124.407C46.4533 129.016 49.0314 133.042 52.8439 134.985L48.9741 153.5H67.0314L63.1616 134.985C66.9741 133.042 69.5522 129.016 69.3699 124.407Z" fill="#002160"/>
</svg>
