<svg width="153" height="175" viewBox="0 0 153 175" fill="none" xmlns="http://www.w3.org/2000/svg">
<mask id="mask0_455_549" style="mask-type:luminance" maskUnits="userSpaceOnUse" x="0" y="101" width="83" height="74">
<path d="M0 101.167H82.6667V175H0V101.167Z" fill="white"/>
</mask>
<g mask="url(#mask0_455_549)">
<path d="M76.1561 102.084H0.150879V166.251C0.150879 166.824 0.20817 167.391 0.322754 167.959C0.437337 168.521 0.604003 169.068 0.822754 169.6C1.0415 170.126 1.31234 170.631 1.63525 171.11C1.95296 171.589 2.31754 172.027 2.7238 172.433C3.13004 172.839 3.57276 173.204 4.05192 173.521C4.53109 173.844 5.0363 174.11 5.56755 174.334C6.0988 174.553 6.64567 174.719 7.21338 174.829C7.77588 174.943 8.34359 175.001 8.92171 175.001H73.229C73.8071 175.001 74.3748 174.943 74.9425 174.829C75.505 174.719 76.0519 174.553 76.5832 174.334C77.1144 174.11 77.6196 173.844 78.0988 173.521C78.578 173.204 79.0207 172.839 79.4269 172.433C79.8384 172.027 80.1978 171.589 80.5207 171.11C80.8384 170.631 81.1092 170.126 81.328 169.6C81.5519 169.068 81.7186 168.521 81.828 167.959C81.9425 167.391 81.9998 166.824 81.9998 166.251V102.084H76.1561Z" fill="#0047C7"/>
</g>
<mask id="mask1_455_549" style="mask-type:luminance" maskUnits="userSpaceOnUse" x="0" y="0" width="83" height="110">
<path d="M0 0H82.6667V109.167H0V0Z" fill="white"/>
</mask>
<g mask="url(#mask1_455_549)">
<path d="M73.229 0H8.92171C8.34359 0 7.77588 0.0572923 7.21338 0.171875C6.64567 0.281251 6.0988 0.447917 5.56755 0.666667C5.0363 0.890625 4.53109 1.15625 4.05192 1.47917C3.57276 1.79687 3.13004 2.16146 2.7238 2.56771C2.31754 2.97396 1.95296 3.41146 1.63525 3.89063C1.31234 4.36979 1.0415 4.875 0.822754 5.40104C0.604003 5.93229 0.437337 6.47917 0.322754 7.04167C0.20817 7.60937 0.150879 8.17708 0.150879 8.75V107.917H81.9998V8.75C81.9998 8.17708 81.9425 7.60937 81.828 7.04167C81.7186 6.47917 81.5519 5.93229 81.328 5.40104C81.1092 4.875 80.8384 4.36979 80.5207 3.89063C80.1978 3.41146 79.8384 2.97396 79.4269 2.56771C79.0207 2.16146 78.578 1.79687 78.0988 1.47917C77.6196 1.15625 77.1144 0.890625 76.5832 0.666667C76.0519 0.447917 75.505 0.281251 74.9425 0.171875C74.3748 0.0572923 73.8071 0 73.229 0Z" fill="#003594"/>
</g>
<path d="M19.1514 138.542C19.1514 139.261 19.1826 139.974 19.2503 140.693C19.318 141.407 19.4222 142.115 19.5628 142.818C19.6982 143.526 19.8701 144.219 20.0785 144.912C20.2868 145.599 20.5264 146.271 20.7972 146.938C21.0732 147.599 21.3753 148.25 21.7139 148.886C22.0524 149.521 22.4222 150.136 22.818 150.735C23.2191 151.334 23.6462 151.907 24.0993 152.464C24.5576 153.021 25.0368 153.552 25.5472 154.063C26.0524 154.568 26.5837 155.052 27.141 155.511C27.6982 155.964 28.2712 156.396 28.8701 156.792C29.4691 157.193 30.0837 157.563 30.7191 157.901C31.3545 158.24 32.0055 158.547 32.667 158.823C33.3337 159.099 34.0107 159.344 34.6982 159.552C35.3857 159.761 36.0837 159.933 36.792 160.073C37.4951 160.214 38.2087 160.318 38.9222 160.391C39.641 160.464 40.3545 160.495 41.0785 160.495C41.7972 160.495 42.516 160.464 43.2295 160.391C43.9482 160.318 44.6566 160.214 45.3649 160.073C46.068 159.933 46.766 159.761 47.4535 159.552C48.141 159.344 48.818 159.099 49.4847 158.823C50.1514 158.547 50.7972 158.24 51.4326 157.901C52.068 157.563 52.6826 157.193 53.2816 156.792C53.8805 156.396 54.4587 155.964 55.0107 155.511C55.568 155.052 56.0993 154.568 56.6097 154.063C57.1149 153.552 57.5993 153.021 58.0524 152.464C58.5055 151.907 58.9326 151.334 59.3337 150.735C59.7295 150.136 60.0993 149.521 60.4378 148.886C60.7764 148.25 61.0785 147.604 61.3545 146.938C61.6253 146.271 61.8701 145.599 62.0732 144.912C62.2816 144.224 62.4535 143.526 62.5941 142.823C62.7295 142.115 62.8337 141.407 62.9014 140.693C62.9691 139.974 63.0003 139.261 63.0003 138.542C61.9743 109.49 20.1826 109.479 19.1514 138.542Z" fill="#003594"/>
<path d="M14.7656 14.583H26.4583C26.849 14.583 27.2187 14.6559 27.5781 14.807C27.9375 14.9528 28.2552 15.1663 28.526 15.4372C28.8021 15.7132 29.0104 16.0257 29.1615 16.3851C29.3073 16.7393 29.3854 17.1143 29.3854 17.4997V29.1663C29.3854 29.5518 29.3073 29.9268 29.1615 30.2809C29.0104 30.6403 28.8021 30.9528 28.526 31.2288C28.2552 31.4997 27.9375 31.7132 27.5781 31.859C27.2187 32.0101 26.849 32.083 26.4583 32.083H14.7656C14.3802 32.083 14.0052 32.0101 13.651 31.859C13.2917 31.7132 12.974 31.4997 12.7031 31.2288C12.4271 30.9528 12.2135 30.6403 12.0677 30.2809C11.9167 29.9268 11.8438 29.5518 11.8438 29.1663V17.4997C11.8438 17.1143 11.9167 16.7393 12.0677 16.3851C12.2135 16.0257 12.4271 15.7132 12.7031 15.4372C12.974 15.1663 13.2917 14.9528 13.651 14.807C14.0052 14.6559 14.3802 14.583 14.7656 14.583Z" fill="#EAF3FF"/>
<path d="M35.2295 14.583H46.9222C47.3128 14.583 47.6826 14.6559 48.042 14.807C48.4014 14.9528 48.7139 15.1663 48.9899 15.4372C49.266 15.7132 49.4743 16.0257 49.6253 16.3851C49.7712 16.7393 49.8441 17.1143 49.8441 17.4997V29.1663C49.8441 29.5518 49.7712 29.9268 49.6253 30.2809C49.4743 30.6403 49.266 30.9528 48.9899 31.2288C48.7139 31.4997 48.4014 31.7132 48.042 31.859C47.6826 32.0101 47.3128 32.083 46.9222 32.083H35.2295C34.8441 32.083 34.4691 32.0101 34.1097 31.859C33.7555 31.7132 33.4378 31.4997 33.1618 31.2288C32.891 30.9528 32.6774 30.6403 32.5316 30.2809C32.3805 29.9268 32.3076 29.5518 32.3076 29.1663V17.4997C32.3076 17.1143 32.3805 16.7393 32.5316 16.3851C32.6774 16.0257 32.891 15.7132 33.1618 15.4372C33.4378 15.1663 33.7555 14.9528 34.1097 14.807C34.4691 14.6559 34.8441 14.583 35.2295 14.583Z" fill="#EAF3FF"/>
<path d="M55.6929 14.583H67.3856C67.771 14.583 68.146 14.6559 68.5054 14.807C68.8595 14.9528 69.1772 15.1663 69.4533 15.4372C69.7241 15.7132 69.9377 16.0257 70.0835 16.3851C70.2345 16.7393 70.3075 17.1143 70.3075 17.4997V29.1663C70.3075 29.5518 70.2345 29.9268 70.0835 30.2809C69.9377 30.6403 69.7241 30.9528 69.4533 31.2288C69.1772 31.4997 68.8595 31.7132 68.5054 31.859C68.146 32.0101 67.771 32.083 67.3856 32.083H55.6929C55.3022 32.083 54.9325 32.0101 54.5731 31.859C54.2137 31.7132 53.9012 31.4997 53.6252 31.2288C53.3491 30.9528 53.1408 30.6403 52.9897 30.2809C52.8439 29.9268 52.771 29.5518 52.771 29.1663V17.4997C52.771 17.1143 52.8439 16.7393 52.9897 16.3851C53.1408 16.0257 53.3491 15.7132 53.6252 15.4372C53.9012 15.1663 54.2137 14.9528 54.5731 14.807C54.9325 14.6559 55.3022 14.583 55.6929 14.583Z" fill="#EAF3FF"/>
<path d="M14.7656 35H26.4583C26.849 35 27.2187 35.0729 27.5781 35.224C27.9375 35.3698 28.2552 35.5833 28.526 35.8542C28.8021 36.1302 29.0104 36.4427 29.1615 36.8021C29.3073 37.1563 29.3854 37.5313 29.3854 37.9167V49.5833C29.3854 49.9687 29.3073 50.3437 29.1615 50.6979C29.0104 51.0573 28.8021 51.3698 28.526 51.6458C28.2552 51.9167 27.9375 52.1302 27.5781 52.276C27.2187 52.4271 26.849 52.5 26.4583 52.5H14.7656C14.3802 52.5 14.0052 52.4271 13.651 52.276C13.2917 52.1302 12.974 51.9167 12.7031 51.6458C12.4271 51.3698 12.2135 51.0573 12.0677 50.6979C11.9167 50.3437 11.8438 49.9687 11.8438 49.5833V37.9167C11.8438 37.5313 11.9167 37.1563 12.0677 36.8021C12.2135 36.4427 12.4271 36.1302 12.7031 35.8542C12.974 35.5833 13.2917 35.3698 13.651 35.224C14.0052 35.0729 14.3802 35 14.7656 35Z" fill="#EAF3FF"/>
<path d="M35.2295 35H46.9222C47.3128 35 47.6826 35.0729 48.042 35.224C48.4014 35.3698 48.7139 35.5833 48.9899 35.8542C49.266 36.1302 49.4743 36.4427 49.6253 36.8021C49.7712 37.1563 49.8441 37.5313 49.8441 37.9167V49.5833C49.8441 49.9687 49.7712 50.3437 49.6253 50.6979C49.4743 51.0573 49.266 51.3698 48.9899 51.6458C48.7139 51.9167 48.4014 52.1302 48.042 52.276C47.6826 52.4271 47.3128 52.5 46.9222 52.5H35.2295C34.8441 52.5 34.4691 52.4271 34.1097 52.276C33.7555 52.1302 33.4378 51.9167 33.1618 51.6458C32.891 51.3698 32.6774 51.0573 32.5316 50.6979C32.3805 50.3437 32.3076 49.9687 32.3076 49.5833V37.9167C32.3076 37.5313 32.3805 37.1563 32.5316 36.8021C32.6774 36.4427 32.891 36.1302 33.1618 35.8542C33.4378 35.5833 33.7555 35.3698 34.1097 35.224C34.4691 35.0729 34.8441 35 35.2295 35Z" fill="#EAF3FF"/>
<path d="M55.6929 35H67.3856C67.771 35 68.146 35.0729 68.5054 35.224C68.8595 35.3698 69.1772 35.5833 69.4533 35.8542C69.7241 36.1302 69.9377 36.4427 70.0835 36.8021C70.2345 37.1563 70.3075 37.5313 70.3075 37.9167V49.5833C70.3075 49.9687 70.2345 50.3437 70.0835 50.6979C69.9377 51.0573 69.7241 51.3698 69.4533 51.6458C69.1772 51.9167 68.8595 52.1302 68.5054 52.276C68.146 52.4271 67.771 52.5 67.3856 52.5H55.6929C55.3022 52.5 54.9325 52.4271 54.5731 52.276C54.2137 52.1302 53.9012 51.9167 53.6252 51.6458C53.3491 51.3698 53.1408 51.0573 52.9897 50.6979C52.8439 50.3437 52.771 49.9687 52.771 49.5833V37.9167C52.771 37.5313 52.8439 37.1563 52.9897 36.8021C53.1408 36.4427 53.3491 36.1302 53.6252 35.8542C53.9012 35.5833 54.2137 35.3698 54.5731 35.224C54.9325 35.0729 55.3022 35 55.6929 35Z" fill="#EAF3FF"/>
<path d="M14.7656 55.417H26.4583C26.849 55.417 27.2187 55.4899 27.5781 55.641C27.9375 55.7868 28.2552 56.0003 28.526 56.2712C28.8021 56.5472 29.0104 56.8597 29.1615 57.2191C29.3073 57.5732 29.3854 57.9482 29.3854 58.3337V70.0003C29.3854 70.3857 29.3073 70.7607 29.1615 71.1149C29.0104 71.4743 28.8021 71.7868 28.526 72.0628C28.2552 72.3337 27.9375 72.5472 27.5781 72.693C27.2187 72.8441 26.849 72.917 26.4583 72.917H14.7656C14.3802 72.917 14.0052 72.8441 13.651 72.693C13.2917 72.5472 12.974 72.3337 12.7031 72.0628C12.4271 71.7868 12.2135 71.4743 12.0677 71.1149C11.9167 70.7607 11.8438 70.3857 11.8438 70.0003V58.3337C11.8438 57.9482 11.9167 57.5732 12.0677 57.2191C12.2135 56.8597 12.4271 56.5472 12.7031 56.2712C12.974 56.0003 13.2917 55.7868 13.651 55.641C14.0052 55.4899 14.3802 55.417 14.7656 55.417Z" fill="#EAF3FF"/>
<path d="M35.2295 55.417H46.9222C47.3128 55.417 47.6826 55.4899 48.042 55.641C48.4014 55.7868 48.7139 56.0003 48.9899 56.2712C49.266 56.5472 49.4743 56.8597 49.6253 57.2191C49.7712 57.5732 49.8441 57.9482 49.8441 58.3337V70.0003C49.8441 70.3857 49.7712 70.7607 49.6253 71.1149C49.4743 71.4743 49.266 71.7868 48.9899 72.0628C48.7139 72.3337 48.4014 72.5472 48.042 72.693C47.6826 72.8441 47.3128 72.917 46.9222 72.917H35.2295C34.8441 72.917 34.4691 72.8441 34.1097 72.693C33.7555 72.5472 33.4378 72.3337 33.1618 72.0628C32.891 71.7868 32.6774 71.4743 32.5316 71.1149C32.3805 70.7607 32.3076 70.3857 32.3076 70.0003V58.3337C32.3076 57.9482 32.3805 57.5732 32.5316 57.2191C32.6774 56.8597 32.891 56.5472 33.1618 56.2712C33.4378 56.0003 33.7555 55.7868 34.1097 55.641C34.4691 55.4899 34.8441 55.417 35.2295 55.417Z" fill="#EAF3FF"/>
<path d="M55.6929 55.417H67.3856C67.771 55.417 68.146 55.4899 68.5054 55.641C68.8595 55.7868 69.1772 56.0003 69.4533 56.2712C69.7241 56.5472 69.9377 56.8597 70.0835 57.2191C70.2345 57.5732 70.3075 57.9482 70.3075 58.3337V70.0003C70.3075 70.3857 70.2345 70.7607 70.0835 71.1149C69.9377 71.4743 69.7241 71.7868 69.4533 72.0628C69.1772 72.3337 68.8595 72.5472 68.5054 72.693C68.146 72.8441 67.771 72.917 67.3856 72.917H55.6929C55.3022 72.917 54.9325 72.8441 54.5731 72.693C54.2137 72.5472 53.9012 72.3337 53.6252 72.0628C53.3491 71.7868 53.1408 71.4743 52.9897 71.1149C52.8439 70.7607 52.771 70.3857 52.771 70.0003V58.3337C52.771 57.9482 52.8439 57.5732 52.9897 57.2191C53.1408 56.8597 53.3491 56.5472 53.6252 56.2712C53.9012 56.0003 54.2137 55.7868 54.5731 55.641C54.9325 55.4899 55.3022 55.417 55.6929 55.417Z" fill="#EAF3FF"/>
<path d="M14.7656 75.833H26.4583C26.849 75.833 27.2187 75.9059 27.5781 76.057C27.9375 76.2028 28.2552 76.4163 28.526 76.6872C28.8021 76.9632 29.0104 77.2757 29.1615 77.6351C29.3073 77.9893 29.3854 78.3643 29.3854 78.7497V90.4163C29.3854 90.8018 29.3073 91.1768 29.1615 91.5309C29.0104 91.8903 28.8021 92.2028 28.526 92.4788C28.2552 92.7497 27.9375 92.9632 27.5781 93.109C27.2187 93.2601 26.849 93.333 26.4583 93.333H14.7656C14.3802 93.333 14.0052 93.2601 13.651 93.109C13.2917 92.9632 12.974 92.7497 12.7031 92.4788C12.4271 92.2028 12.2135 91.8903 12.0677 91.5309C11.9167 91.1768 11.8438 90.8018 11.8438 90.4163V78.7497C11.8438 78.3643 11.9167 77.9893 12.0677 77.6351C12.2135 77.2757 12.4271 76.9632 12.7031 76.6872C12.974 76.4163 13.2917 76.2028 13.651 76.057C14.0052 75.9059 14.3802 75.833 14.7656 75.833Z" fill="#EAF3FF"/>
<path d="M35.2295 75.833H46.9222C47.3128 75.833 47.6826 75.9059 48.042 76.057C48.4014 76.2028 48.7139 76.4163 48.9899 76.6872C49.266 76.9632 49.4743 77.2757 49.6253 77.6351C49.7712 77.9893 49.8441 78.3643 49.8441 78.7497V90.4163C49.8441 90.8018 49.7712 91.1768 49.6253 91.5309C49.4743 91.8903 49.266 92.2028 48.9899 92.4788C48.7139 92.7497 48.4014 92.9632 48.042 93.109C47.6826 93.2601 47.3128 93.333 46.9222 93.333H35.2295C34.8441 93.333 34.4691 93.2601 34.1097 93.109C33.7555 92.9632 33.4378 92.7497 33.1618 92.4788C32.891 92.2028 32.6774 91.8903 32.5316 91.5309C32.3805 91.1768 32.3076 90.8018 32.3076 90.4163V78.7497C32.3076 78.3643 32.3805 77.9893 32.5316 77.6351C32.6774 77.2757 32.891 76.9632 33.1618 76.6872C33.4378 76.4163 33.7555 76.2028 34.1097 76.057C34.4691 75.9059 34.8441 75.833 35.2295 75.833Z" fill="#EAF3FF"/>
<path d="M55.6929 75.833H67.3856C67.771 75.833 68.146 75.9059 68.5054 76.057C68.8595 76.2028 69.1772 76.4163 69.4533 76.6872C69.7241 76.9632 69.9377 77.2757 70.0835 77.6351C70.2345 77.9893 70.3075 78.3643 70.3075 78.7497V90.4163C70.3075 90.8018 70.2345 91.1768 70.0835 91.5309C69.9377 91.8903 69.7241 92.2028 69.4533 92.4788C69.1772 92.7497 68.8595 92.9632 68.5054 93.109C68.146 93.2601 67.771 93.333 67.3856 93.333H55.6929C55.3022 93.333 54.9325 93.2601 54.5731 93.109C54.2137 92.9632 53.9012 92.7497 53.6252 92.4788C53.3491 92.2028 53.1408 91.8903 52.9897 91.5309C52.8439 91.1768 52.771 90.8018 52.771 90.4163V78.7497C52.771 78.3643 52.8439 77.9893 52.9897 77.6351C53.1408 77.2757 53.3491 76.9632 53.6252 76.6872C53.9012 76.4163 54.2137 76.2028 54.5731 76.057C54.9325 75.9059 55.3022 75.833 55.6929 75.833Z" fill="#EAF3FF"/>
<path d="M41.0785 125.417H122.922C123.5 125.417 124.073 125.474 124.636 125.584C125.198 125.698 125.75 125.865 126.282 126.084C126.813 126.302 127.318 126.573 127.797 126.891C128.276 127.209 128.719 127.573 129.125 127.979C129.532 128.386 129.896 128.828 130.214 129.308C130.537 129.782 130.808 130.287 131.026 130.818C131.245 131.349 131.412 131.896 131.526 132.459C131.636 133.021 131.693 133.594 131.693 134.167V142.917C131.693 143.49 131.636 144.063 131.526 144.625C131.412 145.188 131.245 145.735 131.026 146.266C130.808 146.797 130.537 147.302 130.214 147.776C129.896 148.256 129.532 148.698 129.125 149.104C128.719 149.511 128.276 149.875 127.797 150.193C127.318 150.511 126.813 150.782 126.282 151C125.75 151.219 125.198 151.386 124.636 151.5C124.073 151.61 123.5 151.667 122.922 151.667H41.0785C40.5003 151.667 39.9326 151.61 39.3649 151.5C38.8024 151.386 38.2503 151.219 37.7191 151C37.1878 150.782 36.6826 150.511 36.2035 150.193C35.7243 149.875 35.2816 149.511 34.8753 149.104C34.4691 148.698 34.1045 148.256 33.7868 147.776C33.4639 147.302 33.193 146.797 32.9743 146.266C32.7555 145.735 32.5889 145.188 32.4743 144.625C32.3649 144.063 32.3076 143.49 32.3076 142.917V134.167C32.3076 133.594 32.3649 133.021 32.4743 132.459C32.5889 131.896 32.7555 131.349 32.9743 130.818C33.193 130.287 33.4639 129.782 33.7868 129.308C34.1045 128.828 34.4691 128.386 34.8753 127.979C35.2816 127.573 35.7243 127.209 36.2035 126.891C36.6826 126.573 37.1878 126.302 37.7191 126.084C38.2503 125.865 38.8024 125.698 39.3649 125.584C39.9326 125.474 40.5003 125.417 41.0785 125.417Z" fill="#428DFF"/>
<path d="M120 102.104C119.427 102.104 118.854 102.162 118.292 102.271C117.724 102.386 117.177 102.552 116.646 102.771C116.115 102.99 115.609 103.261 115.13 103.578C114.651 103.896 114.208 104.261 113.802 104.667C113.391 105.073 113.031 105.516 112.708 105.995C112.391 106.469 112.12 106.974 111.901 107.506C111.677 108.037 111.51 108.584 111.401 109.146C111.286 109.709 111.234 110.282 111.234 110.854C111.234 111.427 111.286 112 111.401 112.563C111.51 113.125 111.677 113.672 111.901 114.203C112.12 114.735 112.391 115.24 112.708 115.714C113.031 116.193 113.391 116.636 113.802 117.042C114.208 117.448 114.651 117.813 115.13 118.131C115.609 118.448 116.115 118.719 116.646 118.938C117.177 119.157 117.724 119.323 118.292 119.438C118.854 119.547 119.427 119.604 120 119.604C120.578 119.604 121.146 119.547 121.714 119.438C122.276 119.323 122.823 119.157 123.359 118.938C123.891 118.719 124.396 118.448 124.875 118.131C125.354 117.813 125.797 117.448 126.203 117.042C126.609 116.636 126.974 116.193 127.292 115.714C127.615 115.24 127.885 114.735 128.104 114.203C128.323 113.672 128.49 113.125 128.604 112.563C128.714 112 128.771 111.427 128.771 110.854C128.771 110.282 128.714 109.709 128.604 109.146C128.49 108.584 128.323 108.037 128.104 107.506C127.885 106.974 127.615 106.469 127.292 105.995C126.974 105.516 126.609 105.073 126.203 104.667C125.797 104.261 125.354 103.896 124.875 103.578C124.396 103.261 123.891 102.99 123.359 102.771C122.823 102.552 122.276 102.386 121.714 102.271C121.146 102.162 120.578 102.104 120 102.104Z" fill="#0047C7"/>
<path d="M151.365 76.5473C150.344 75.5265 149.271 74.5577 148.156 73.6358C147.042 72.7192 145.88 71.8598 144.682 71.0525C143.479 70.2452 142.245 69.4952 140.969 68.8129C139.698 68.1254 138.396 67.5004 137.063 66.9379C135.729 66.3754 134.37 65.8806 132.99 65.4535C131.604 65.0213 130.208 64.6619 128.792 64.365C127.375 64.0733 125.943 63.8442 124.505 63.6879C123.068 63.5317 121.625 63.4483 120.177 63.4275C118.729 63.4119 117.287 63.464 115.844 63.589C114.401 63.7088 112.969 63.9015 111.547 64.1619C110.125 64.4223 108.714 64.7556 107.323 65.1515C105.932 65.5473 104.563 66.0108 103.219 66.5421C101.87 67.0681 100.552 67.6619 99.2657 68.3181C97.9741 68.9744 96.7189 69.6931 95.5001 70.4744C94.2814 71.2504 93.1043 72.0838 91.9637 72.9744C90.8282 73.8702 89.7345 74.8129 88.6876 75.8129C85.9012 78.3806 90.021 82.6879 92.7189 80.0317C93.6303 79.1671 94.5782 78.3442 95.5678 77.5681C96.5574 76.7921 97.5835 76.0629 98.646 75.3858C99.7032 74.714 100.797 74.089 101.917 73.516C103.037 72.9431 104.182 72.4275 105.354 71.9692C106.526 71.5056 107.719 71.1046 108.927 70.7608C110.136 70.4119 111.359 70.1254 112.599 69.9015C113.839 69.6723 115.083 69.5056 116.339 69.4015C117.594 69.2921 118.849 69.2452 120.104 69.2608C121.365 69.2765 122.62 69.3546 123.87 69.49C125.125 69.6254 126.365 69.8233 127.599 70.0785C128.828 70.3338 130.047 70.6463 131.25 71.0213C132.448 71.3963 133.63 71.8285 134.792 72.3129C135.948 72.8025 137.083 73.3442 138.193 73.9431C139.297 74.5421 140.375 75.1879 141.417 75.891C142.464 76.5942 143.469 77.3442 144.443 78.141C145.412 78.9379 146.344 79.7817 147.229 80.6723C149.875 83.391 154.089 79.1827 151.365 76.5473Z" fill="#0047C7"/>
<path d="M119.729 75.3907C117.636 75.3907 115.563 75.5886 113.511 75.9845C111.453 76.3751 109.458 76.9636 107.516 77.7397C105.573 78.5209 103.724 79.4741 101.964 80.6043C100.203 81.7345 98.5678 83.0261 97.0574 84.4688C94.271 87.0366 98.3855 91.3438 101.089 88.6928C101.719 88.0886 102.38 87.5209 103.063 86.9845C103.75 86.4428 104.458 85.9428 105.193 85.4741C105.927 85.0053 106.688 84.573 107.464 84.1772C108.24 83.7813 109.031 83.422 109.844 83.1043C110.656 82.7813 111.479 82.5053 112.318 82.2657C113.156 82.0261 114.005 81.8282 114.865 81.672C115.724 81.5105 116.583 81.3959 117.453 81.323C118.323 81.2501 119.193 81.2188 120.068 81.2293C120.938 81.2397 121.807 81.2918 122.677 81.3855C123.542 81.4793 124.401 81.6147 125.255 81.7918C126.11 81.9688 126.953 82.1876 127.787 82.448C128.62 82.7032 129.438 83.0053 130.24 83.3386C131.042 83.6772 131.828 84.0574 132.599 84.4688C133.365 84.8855 134.11 85.3334 134.833 85.8178C135.557 86.3074 136.255 86.823 136.927 87.3803C137.599 87.9324 138.245 88.5157 138.86 89.1303C141.505 91.8491 145.719 87.6407 142.995 85.0053C141.474 83.4793 139.813 82.1147 138.016 80.9116C136.219 79.7136 134.323 78.698 132.328 77.8751C130.333 77.047 128.271 76.4272 126.151 76.0105C124.031 75.5938 121.891 75.3855 119.729 75.3907Z" fill="#0047C7"/>
<path d="M119.839 87.3595C117.157 87.3543 114.568 87.8543 112.073 88.8491C109.584 89.8491 107.37 91.271 105.427 93.1252C105.162 93.3908 104.953 93.7033 104.802 94.0522C104.657 94.4012 104.584 94.7658 104.578 95.146C104.573 95.5262 104.641 95.896 104.782 96.2502C104.922 96.6043 105.12 96.9168 105.386 97.1929C105.646 97.4689 105.948 97.6824 106.297 97.8387C106.646 97.9949 107.011 98.0835 107.391 98.0991C107.771 98.1095 108.141 98.0522 108.495 97.9272C108.854 97.797 109.177 97.6043 109.459 97.3491C110.162 96.6772 110.927 96.0835 111.745 95.5574C112.563 95.0314 113.427 94.5939 114.334 94.2397C115.24 93.8804 116.172 93.6147 117.13 93.4377C118.084 93.2606 119.052 93.1824 120.026 93.1929C121 93.2033 121.964 93.3074 122.917 93.5054C123.87 93.7033 124.792 93.9897 125.693 94.3699C126.589 94.7449 127.443 95.2033 128.25 95.7449C129.058 96.2918 129.802 96.9064 130.49 97.5939C133.136 100.307 137.349 96.0991 134.625 93.4689C132.667 91.5054 130.407 89.9949 127.844 88.9377C125.282 87.8752 122.615 87.3491 119.839 87.3595Z" fill="#0047C7"/>
</svg>
