<svg width="66" height="172" viewBox="0 0 66 172" fill="none" xmlns="http://www.w3.org/2000/svg">
<mask id="mask0_472_531" style="mask-type:luminance" maskUnits="userSpaceOnUse" x="0" y="0" width="66" height="172">
<path d="M0 0H65.5722V171.907H0V0Z" fill="white"/>
</mask>
<g mask="url(#mask0_472_531)">
<path d="M32.7861 50.2625C22.2812 50.2625 13.7651 41.7328 13.7651 31.2073C13.7651 20.6818 22.2812 12.1521 32.7861 12.1521C43.2911 12.1521 51.8071 20.6818 51.8071 31.2073C51.8071 41.7328 43.2911 50.2625 32.7861 50.2625ZM32.7861 0C14.681 0 0 14.7083 0 32.8545V160.206C0 166.664 5.22172 171.907 11.6669 171.907H53.9054C60.3505 171.907 65.5791 166.664 65.5791 160.206V32.8545C65.5791 14.7083 50.8981 0 32.7861 0Z" fill="#0047C7"/>
</g>
</svg>
